<?xml version="1.0" standalone="no"?><!DOCTYPE svg PUBLIC "-//W3C//DTD SVG 1.1//EN" "http://www.w3.org/Graphics/SVG/1.1/DTD/svg11.dtd"><svg class="icon" width="32px" height="28.82px" viewBox="0 0 1137 1024" version="1.1" xmlns="http://www.w3.org/2000/svg"><path fill="#848484" d="M965.54026625 618.66666688c-18.66666656 0-36.42666656-3.89333344-52.58666625-10.82666719l-192.42666656 216.48c2.93333344 11.04 5.01333375 22.39999969 5.01333281 34.34666719a133.33333312 133.33333312 0 1 1-266.66666625 0c0-14.77333313 2.98666688-28.74666656 7.41333375-42.08000063l-257.2266675-205.81333312c-13.70666625 4.8-28.21333312 7.89333375-43.51999969 7.89333375a133.33333312 133.33333312 0 1 1 75.73333313-242.93333344l142.72000031-124.90666688A132.26666625 132.26666625 0 0 1 352.20693312 165.33333312a133.33333312 133.33333312 0 1 1 266.66666719 0c0 11.94666656-2.08000031 23.30666625-5.01333375 34.34666719l284.85333375 170.88c19.73333344-11.46666656 42.34666688-18.55999969 66.82666594-18.56000062a133.33333312 133.33333312 0 1 1 0 266.66666718zM526.82026625 298.45333344l-228.26666625 233.44000031L618.87360031 778.66666625l266.66666625-266.66666625-358.72000031-213.54666656z" /></svg>