<?xml version="1.0" standalone="no"?><!DOCTYPE svg PUBLIC "-//W3C//DTD SVG 1.1//EN" "http://www.w3.org/Graphics/SVG/1.1/DTD/svg11.dtd"><svg class="icon" width="32px" height="32.00px" viewBox="0 0 1024 1024" version="1.1" xmlns="http://www.w3.org/2000/svg"><path fill="#848484" d="M329.48808594 173.47871094l177.85546875 99.76992187c0.94658203 0.50185547 2.01884766 0.82089844 3.08671875 0.82089844s2.14453125-0.25136719 3.08583984-0.82089844l177.85634766-99.76992187c1.95556641-1.13378906 3.21679688-3.21591797 3.21679687-5.48085938a6.24375 6.24375 0 0 0-3.21679687-5.48173828L513.52050781 62.80507812a6.21210937 6.21210937 0 0 0-6.11367187 0L329.48808594 162.51171875a6.32460937 6.32460937 0 0 0-3.15351563 5.48173828 6.32636719 6.32636719 0 0 0 3.15351563 5.48525391z m361.88964844 286.70009765L513.52050781 360.40888672a6.21210937 6.21210937 0 0 0-6.11367187 0L329.48808594 460.1796875a6.32460937 6.32460937 0 0 0-3.15351563 5.48085938c0 0.18896484 0.06240234 0.37792969 0.06240235 0.56513671-0.06240234 0.37792969-0.06240234 0.82089844-0.06240235 1.38603516v378.40429688c0 5.48173828 2.96015625 10.46074219 7.68779297 13.17480468l169.03388672 94.79003907a15.36328125 15.36328125 0 0 0 7.37402344 1.9555664c2.52070313 0 5.10380859-0.6328125 7.37402343-1.95556641l169.03300782-94.79003906a14.97216797 14.97216797 0 0 0 7.68867187-13.17480469V467.61523437c0-0.50185547 0-0.94570313-0.06328125-1.38603515 0-0.18808594 0.06328125-0.37617187 0.06328125-0.56513672a6.33164063 6.33164063 0 0 0-3.14912109-5.48525391zM495.36669922 915.03300781L356.45996094 837.13466797V486.27089844l138.84609375 77.89746093v350.85937501h0.06240234zM664.40234375 837.13466797l-138.84609375 77.89833984V564.11035156l138.84609375-77.89746093v350.92089843z"  /><path fill="#848484" d="M431.71103516 317.17460937a6.24375 6.24375 0 0 0-3.21679688-5.48173828L250.70644531 211.92382812a6.21210937 6.21210937 0 0 0-6.11367187 1e-8L66.67314453 311.69287109a6.37822266 6.37822266 0 0 0-3.21679687 5.48173828c0 0.12480469 0.06328125 0.18808594 0.06328125 0.31376954s-0.06328125 0.18808594-0.06328125 0.31376953c0 0.18808594 0.06328125 0.37705078 0.06328125 0.56513672 0 0.38144531-0.06328125 0.82617188-0.06328125 1.32714843V698.09960938c0 5.48085938 2.96103516 10.45986328 7.68867187 13.17392578l169.03300781 94.79003906a15.36328125 15.36328125 0 0 0 7.37402344 1.95644531c2.52070313 0 5.1046875-0.6328125 7.37402344-1.95644531l7.68867187-4.35058594V415.615625l165.82148438-93.01816406c2.07685547-1.07226563 3.27480469-3.15351562 3.27480469-5.42285157z m-199.22080078 450l-138.84609375-77.89746093V338.4125l138.84609374 77.89833984v350.86464844z m724.91308593-449.3671875c0-0.1265625-0.06240234-0.18896484-0.06240234-0.31464843s0.06240234-0.18808594 0.06240234-0.31376953c0-0.50273437-0.06240234-1.07226563-0.18808593-1.575v-0.1256836a6.65595703 6.65595703 0 0 0-2.96015625-3.84345703L787.36484375 218.04101562l-10.96611328-6.11367187c-0.50273437-0.25136719-1.00986328-0.43945313-1.51171875-0.6328125a6.74121094 6.74121094 0 0 0-1.575-0.18808594c-1.07226563 0-2.14453125 0.25136719-3.09023438 0.82089844l-21.87070312 12.28974609L592.36542969 311.69726562a6.07763672 6.07763672 0 0 0-2.96015625 3.84433594 4.71005859 4.71005859 0 0 0-0.25136719 1.63740235 6.24375 6.24375 0 0 0 3.21679687 5.48085937l165.81708985 93.0234375v386.1553711l7.68779297 4.35058593c2.26933594 1.26035156 4.85332031 1.95556641 7.37402344 1.95556641s5.1046875-0.6328125 7.37402343-1.95556641l169.03388672-94.79003906a14.97216797 14.97216797 0 0 0 7.68779297-13.17480469V319.6953125c0-0.50273437 0-0.94658203-0.06328125-1.38603516a1.25595703 1.25595703 0 0 0 0.12128906-0.50273437z m-30.18691406 371.46972657l-138.84169922 77.89746093V416.24931641l138.84169922-77.89833985v350.92705078z"  /></svg>