<?xml version="1.0" encoding="utf-8"?>
<!-- Generator: Adobe Illustrator 17.0.0, SVG Export Plug-In . SVG Version: 6.00 Build 0)  -->
<!DOCTYPE svg PUBLIC "-//W3C//DTD SVG 1.1//EN" "http://www.w3.org/Graphics/SVG/1.1/DTD/svg11.dtd">
<svg version="1.1" id="图层_1" xmlns="http://www.w3.org/2000/svg" xmlns:xlink="http://www.w3.org/1999/xlink" x="0px" y="0px"
	 width="64.063px" height="64px" viewBox="0 0 64.063 64" enable-background="new 0 0 64.063 64" xml:space="preserve">
<path fill="#848484" d="M25.482,50.4c-1.6,0-3,0.6-4,1.6l-2.6,2.4c-0.8,0.8-1.8,0.8-2.6,0l-2.6-2.4c-1-1-2.6-1.6-4-1.6s-3,0.6-4,1.6
	l-4,3.6c-0.8,0.8-0.8,2-0.2,2.8c0.8,0.8,2,0.8,2.8,0.2l4-3.6c0.8-0.8,1.8-0.8,2.6,0l2.6,2.4c1,1,2.6,1.6,4,1.6c1.6,0,3-0.6,4-1.6
	l2.6-2.4c0.8-0.8,1.8-0.8,2.6,0l2.4,2.4c0.4,0.4,0.8,0.8,1.4,1c-2-2.2-3.4-5-4.2-7.8C26.082,50.4,25.682,50.4,25.482,50.4z"/>
<path fill="#848484" d="M11.482,47.4c1.8,0.4,3.4,1.2,4.8,2.6l0.2,0.2c0.6,0.6,1.4,0.6,2,0l0.2-0.2c1.8-1.8,4.2-2.8,6.6-2.8h0.2
	c0-0.6-0.2-1.4-0.2-2c0-5.4,2-10.4,5.8-14.2c3.4-3.4,7.6-5.4,12.4-5.8l-1-0.4v-8.6c0-0.8-0.4-1.6-1.2-1.8l-12.2-4.8V8.4
	c0-0.2-0.6,0.2-0.6-0.4c-0.2-2.2-0.6-5.4-0.6-5.4h-5.4c0,0-0.4,3.2-0.6,5.4c0,0.4-0.6,0-0.6,0.4v1.2l-12.4,4.8
	c-0.6,0.4-1.2,1-1.2,1.8v8.6l-6.6,2.8c-1,0.4-1.4,1.6-0.8,2.6l10.2,16.4C10.882,47,11.082,47.2,11.482,47.4z M24.082,3.2h0.4
	l-0.2,1.2h-0.4L24.082,3.2z M23.082,3.2h0.6l-0.4,3.8h-0.6L23.082,3.2z M11.682,17.6l13.8-5.4l13.6,5.2V23l-12.2-5.2
	c-0.8-0.4-1.8-0.4-2.8,0l-12.4,5.4C11.682,23.2,11.682,17.6,11.682,17.6z"/>
<path fill="#848484" d="M46.882,28.6c-9.6,0-17.2,7.8-17.2,17.2s7.8,17.2,17.2,17.2s17.2-7.8,17.2-17.2S56.282,28.6,46.882,28.6z"/>
<text transform="matrix(1 0 0 1 35.7809 53.917)" fill="#FFFFFF" font-family="'PingFang-SC-Bold'" font-size="24">车</text>
</svg>
