<?xml version="1.0" encoding="utf-8"?>
<!-- Generator: Adobe Illustrator 17.0.0, SVG Export Plug-In . SVG Version: 6.00 Build 0)  -->
<!DOCTYPE svg PUBLIC "-//W3C//DTD SVG 1.1//EN" "http://www.w3.org/Graphics/SVG/1.1/DTD/svg11.dtd">
<svg version="1.1" id="图层_1" xmlns="http://www.w3.org/2000/svg" xmlns:xlink="http://www.w3.org/1999/xlink" x="0px" y="0px"
	 width="32.031px" height="32px" viewBox="0 0 32.031 32" enable-background="new 0 0 32.031 32" xml:space="preserve">
<path fill="#666666" d="M12.741,25.2c-0.8,0-1.5,0.3-2,0.8l-1.3,1.2c-0.4,0.4-0.9,0.4-1.3,0l-1.3-1.2c-0.5-0.5-1.3-0.8-2-0.8
	s-1.5,0.3-2,0.8l-2,1.8c-0.4,0.4-0.4,1-0.1,1.4c0.4,0.4,1,0.4,1.4,0.1l2-1.8c0.4-0.4,0.9-0.4,1.3,0l1.3,1.2c0.5,0.5,1.3,0.8,2,0.8
	c0.8,0,1.5-0.3,2-0.8l1.3-1.2c0.4-0.4,0.9-0.4,1.3,0l1.2,1.2c0.2,0.2,0.4,0.4,0.7,0.5c-1-1.1-1.7-2.5-2.1-3.9
	C13.041,25.2,12.841,25.2,12.741,25.2z"/>
<path fill="#666666" d="M5.741,23.7c0.9,0.2,1.7,0.6,2.4,1.3l0.1,0.1c0.3,0.3,0.7,0.3,1,0l0.1-0.1c0.9-0.9,2.1-1.4,3.3-1.4h0.1
	c0-0.3-0.1-0.7-0.1-1c0-2.7,1-5.2,2.9-7.1c1.7-1.7,3.8-2.7,6.2-2.9l-0.5-0.2V8.1c0-0.4-0.2-0.8-0.6-0.9l-6.1-2.4V4.2
	c0-0.1-0.3,0.1-0.3-0.2c-0.1-1.1-0.3-2.7-0.3-2.7h-2.7c0,0-0.2,1.6-0.3,2.7c0,0.2-0.3,0-0.3,0.2v0.6l-6.2,2.4
	c-0.3,0.2-0.6,0.5-0.6,0.9v4.3l-3.3,1.4c-0.5,0.2-0.7,0.8-0.4,1.3l5.1,8.2C5.441,23.5,5.541,23.6,5.741,23.7z M12.041,1.6h0.2
	l-0.1,0.6h-0.2L12.041,1.6z M11.541,1.6h0.3l-0.2,1.9h-0.3L11.541,1.6z M5.841,8.8l6.9-2.7l6.8,2.6v2.8l-6.1-2.6
	c-0.4-0.2-0.9-0.2-1.4,0l-6.2,2.7C5.841,11.6,5.841,8.8,5.841,8.8z"/>
<g>
	<path fill="#666666" d="M23.446,14.3c-4.8,0-8.6,3.9-8.6,8.6c0,4.7,3.9,8.6,8.6,8.6s8.6-3.9,8.6-8.6
		C32.046,18.2,28.146,14.3,23.446,14.3z M28.216,25.63h-4.07v2.28h-1.07v-2.28h-4.33v-1.01h4.33v-1.4h-3.54l-0.24-0.96
		c0.59-0.6,1.13-1.34,1.61-2.23h-2.02v-1.01h2.54c0.22-0.49,0.42-0.96,0.59-1.41l1.04,0.23c-0.14,0.35-0.3,0.74-0.5,1.18h5.49v1.01
		h-5.98c-0.42,0.8-0.9,1.55-1.44,2.23h2.45v-1.47h1.07v1.47h3.31v0.96h-3.31v1.4h4.07V25.63z"/>
</g>
</svg>
