<?xml version="1.0" standalone="no"?><!DOCTYPE svg PUBLIC "-//W3C//DTD SVG 1.1//EN" "http://www.w3.org/Graphics/SVG/1.1/DTD/svg11.dtd"><svg t="1535683707962" class="icon" style="" viewBox="0 0 1024 1024" version="1.1" xmlns="http://www.w3.org/2000/svg" p-id="2454" xmlns:xlink="http://www.w3.org/1999/xlink" width="32" height="32"><defs><style type="text/css"></style></defs><path d="M908.726857 816.566857c-5.705143-5.412571-13.604571-8.338286-21.504-8.045714-47.396571 2.340571-74.752 15.652571-98.742857 27.355428l-0.292571 0.146286c-24.137143 11.702857-44.909714 21.942857-89.380572 21.942857-44.178286 0-65.097143-10.093714-89.234286-21.796571h-0.146285c-26.770286-13.019429-57.197714-27.940571-114.980572-27.940572-57.636571 0-88.064 14.774857-114.834285 27.794286l-0.292572 0.146286c-24.137143 11.702857-44.909714 21.942857-89.380571 21.942857-44.178286 0-65.097143-10.093714-89.234286-21.796571l-0.146286-0.146286c-24.137143-11.702857-51.346286-25.161143-99.035428-27.501714-7.899429-0.438857-15.798857 2.486857-21.504 8.045714-5.851429 5.558857-9.069714 13.312-9.069715 21.211428 0 15.652571 12.141714 28.379429 27.648 29.257143 35.547429 1.755429 54.418286 10.971429 76.068572 21.504l0.146286 0.146286c26.770286 13.019429 57.197714 27.940571 114.980571 27.940571 57.636571 0 88.064-14.774857 114.834286-27.794285l0.292571-0.146286c24.137143-11.702857 44.909714-21.942857 89.380572-21.942857 44.178286 0 65.097143 10.093714 89.234285 21.796571l0.146286 0.146286c26.770286 13.019429 57.197714 27.940571 114.980571 27.940571 57.636571 0 88.064-14.774857 114.834286-27.794285l0.292572-0.146286c21.796571-10.678857 40.521143-19.748571 76.214857-21.650286 15.506286-0.731429 27.648-13.604571 27.648-29.257143 0.146286-8.192-3.218286-15.945143-8.923429-21.357714z" p-id="2455" fill="#cccccc"></path><path d="M242.834286 823.003429c12.580571 3.510857 27.209143 5.705143 47.250285 5.705142 40.96 0 59.538286-9.069714 82.944-20.48s49.298286-23.990857 92.452572-28.086857c-0.146286-1.170286-0.292571-2.486857-0.292572-3.803428V423.350857c0-16.091429 13.165714-29.257143 29.257143-29.257143s29.257143 13.165714 29.257143 29.257143v353.133714c0 1.316571-0.146286 2.486857-0.292571 3.657143 43.008 3.949714 69.046857 16.676571 92.452571 28.086857s41.984 20.48 82.944 20.48c20.041143 0 34.816-2.194286 47.250286-5.705142l99.328-287.305143c6.729143-19.309714-1.609143-40.521143-19.602286-50.176l-54.710857-29.403429V282.185143c0-19.163429-7.606857-36.717714-19.894857-49.590857-2.486857-2.925714-5.266286-5.412571-8.484572-7.460572-11.995429-9.216-27.062857-14.628571-43.300571-14.628571h-47.689143v-57.051429c0-15.36-12.434286-27.648-27.648-27.648H364.836571c-15.36 0-27.648 12.434286-27.648 27.648v57.051429h-52.224c-39.497143 0-71.68 32.182857-71.68 71.68v176.274286l-50.176 27.062857c-17.993143 9.654857-26.185143 30.866286-19.602285 50.176L242.834286 823.003429z m271.36-505.270858c-12.288-6.582857-27.062857-6.582857-39.350857 0l-205.970286 110.884572V282.185143c0-8.923429 7.168-16.091429 16.091428-16.091429h414.573715c8.923429 0 16.091429 7.168 16.091428 16.091429v143.945143l-201.435428-108.397715z" p-id="2456" fill="#cccccc"></path></svg>