<?xml version="1.0" standalone="no"?><!DOCTYPE svg PUBLIC "-//W3C//DTD SVG 1.1//EN" "http://www.w3.org/Graphics/SVG/1.1/DTD/svg11.dtd"><svg class="icon" width="32px" height="32.00px" viewBox="0 0 1024 1024" version="1.1" xmlns="http://www.w3.org/2000/svg"><path fill="#848484" d="M644.17709281 740.41727844l-4.56558936 47.27869312c103.57044094 13.64426812 185.81667375 42.17967094 185.8166728 75.27503625 0 46.35526313-160.82686875 83.85403219-316.07378063 83.85403219-155.21785031 0-316.04471813-37.4997075-316.04471812-83.85403219 0-32.73536906 80.33843531-60.98296125 182.20451344-74.8184775l-4.53558938-47.33963062c-170.81679094 17.21424094-293.96957812 65.34511406-293.96957813 122.12717062 0 71.27381813 193.59786281 129.05242969 432.39974719 129.05242969 238.81313438 0 432.41099719-57.77298656 432.41099625-129.04586719 0-57.17861625-124.89277406-105.651675-297.64829906-122.53497937zM485.82895437 871.44312969h57.65205V651.30672406h-57.65861249v220.13640563z m0-503.15700658v-78.62282342h57.65205v78.62282344h-57.65861249z m353.16474094 48.25087314c28.55321437 121.28248969 16.42768406 237.03189844-25.74542344 246.24182625-54.62301094 11.80772062-66.33510656-85.73839313-218.77329093-96.46049719-22.18857657-1.57780031-39.63625312 9.93554719-35.66409657 28.58415188 2.922165 13.73333062-87.43056656 45.20308406-92.79958782 22.81669687-4.51215187-18.67110375-28.63102594-6.21557625-44.08090499-37.09096031 0 0-19.10422594 2.65779188-24.36543469 3.78559594-30.47976188 6.54651094-64.42730906-27.7966575-71.44725468-57.53298844-7.00213313-29.8010175 8.30993531-74.70972844 38.79532219-81.32186438 352.45037156-75.8150325 268.68633844-225.46417594 340.46921437-240.955305 42.22092-9.07211625 105.08167875 90.51960563 133.61145656 211.93334438z m-49.13867812 179.99109374c9.40117687-2.03998406 25.09667906-72.022875 2.89216406-166.36463811-22.1398275-94.31832562-69.71945531-160.52687063-79.10938125-158.55344907-9.33555188 2.05217156-28.24665469 81.33405188-6.04120313 175.6711275 22.12764 94.38957469 72.86849344 151.22038125 82.25842032 149.2469597z m-530.58804281-405.95307843C268.72815031 103.87193844 303.87568812 29.38908313 333.95326625 32.08343655c51.14303812 4.63777594 5.759955 115.64815875 256.86080531 138.23704501 21.71983031 1.99217156 36.17971781 31.85975156 33.85754813 53.14177219-2.33998219 21.23889657-22.97888345 47.9686875-44.68652625 46.01870344-3.74997094-0.32999719-17.2376775-0.54562031-17.2376775-0.54562032-34.99191375 0-105.71823655 1.78123594-120.98249251 4.76996251-104.90168063 20.42890313-104.72168156 89.14617844-143.63700281 85.59964312-30.05976562-2.79560343-48.33524719-82.10842125-38.85532125-168.72805594z m49.45086375 120.74905594c6.6843225 0.56905781 37.06096031-43.1996625 44.37527812-110.60913562 7.37994281-67.36634906-12.5099025-120.78936844-19.1576625-121.41936375-6.6899475-0.56343281-34.07317125 49.43961375-41.39967656 116.80033781-7.37994281 67.37759906 9.47992594 114.61504219 16.18768594 115.22722407z" /></svg>