<?xml version="1.0" standalone="no"?><!DOCTYPE svg PUBLIC "-//W3C//DTD SVG 1.1//EN"
    "http://www.w3.org/Graphics/SVG/1.1/DTD/svg11.dtd">
<svg class="icon" width="32px" height="28.82px" viewBox="0 0 1137 1024" version="1.1"
     xmlns="http://www.w3.org/2000/svg">
    <path fill="#53b6a7"
          d="M962 962v-299.99999971h-249.99999961v299.99999971h-100.0000002V461.9999999h450.00000001v500.0000001h-100.0000002zM62 62h450v900H62V62z m249.99999961 650.00000039h100.0000002v-100.00000019H311.99999961v100.00000019z m0-150.00000029h100.0000002V461.9999999H311.99999961v100.0000002z m0-150.00000029h100.0000002V311.99999961H311.99999961v100.0000002z m0-149.99999942h100.0000002V162.0000002H311.99999961v100.00000019z m-149.99999941 450h100.00000019v-100.00000019H162.0000002v100.00000019z m0-150.00000029h100.00000019V461.9999999H162.0000002v100.0000002z m0-150.00000029h100.00000019V311.99999961H162.0000002v100.0000002z m0-149.99999942h100.00000019V162.0000002H162.0000002v100.00000019z"/>
</svg>
