<?xml version="1.0" standalone="no"?><!DOCTYPE svg PUBLIC "-//W3C//DTD SVG 1.1//EN" "http://www.w3.org/Graphics/SVG/1.1/DTD/svg11.dtd"><svg class="icon" width="32px" height="32.00px" viewBox="0 0 1024 1024" version="1.1" xmlns="http://www.w3.org/2000/svg"><path fill="#e84c3d" d="M534.28952178 419.74230282c278.03162548-191.65032297-92.64363141-261.70102518 50.70908681-410.8245523-127.61436918 21.33318163-103.1330323 166.854656-76.90528237 193.5035354 26.19619555 26.57970252 138.10741097 64.69859555 26.19619556 217.3210169z m-134.4021997 0c227.70847289-156.92231111-75.89190163-212.87791882 41.54739674-334.93265067-104.49957925 17.41558518-84.49410845 136.63770548-63.02014579 158.4247846 21.47274903 21.78829275 113.13698133 51.51493689 21.47274905 176.50786607z m575.05655467 181.61117866c-1.85321245-6.50262755-4.40547555-12.69456592-7.27328238-18.67654637a110.4402963 110.4402963 0 0 0-2.06195674-4.161536c-3.04256948-5.76959525-6.39946903-11.40205037-10.31949274-16.57818074-0.13714015-0.28034845-0.31311645-0.41991585-0.45389748-0.59467852-3.88118755-5.14214875-8.21627259-9.85952711-12.83534696-14.3730157-0.90658133-0.94420385-1.85078518-1.81923082-2.8301843-2.72581215-5.00015408-4.61664711-10.21390697-8.88255525-15.87670282-12.80136533-0.10558578 0-0.21117155-0.06917689-0.3155437-0.17476267-5.66765037-3.88361482-11.78555733-7.274496-18.0466726-10.38624237-0.83861808-0.38714785-1.64204089-0.84104533-2.48187258-1.18935704-13.25526282-6.29388325-27.62827852-10.80615822-42.84233956-13.53439762-0.55826963-0.07039052-1.11775289-0.24272592-1.68087704-0.27913482-7.72839348-1.32892445-15.70194015-2.20273778-23.81626785-2.45031823-4.44067082-24.90003911-25.77506608-51.7940717-51.51250963-51.7940717H184.5942803c-28.95720297 0-52.45914075 31.93059555-52.45914075 61.30771437h-0.69905066s0 7.34245925 0.69905066 20.17780623v1.11775288c0 0.69905067 0.13956741 1.26096118 0.17476267 1.9248166 4.47586608 72.286208 31.58107022 309.22797511 197.42113186 396.30832829h311.22318222c47.38738252-42.21125215 83.06081185-99.18024059 110.33956503-139.329536 6.85700741 1.60805925 13.95431348 2.62265363 21.08924208 3.39088119 1.53645511 0.1759763 3.00616059 0.27913482 4.54382934 0.38714785 7.31090489 0.66142815 14.68977303 0.94299022 22.24340384 0.66142815h0.13835378c7.30969125-0.3155437 14.68977303-1.11653925 22.13660445-2.20152415 1.82044445-0.27913482 3.70642489-0.59467852 5.56206459-0.94299022 7.55484445-1.32892445 15.10968889-2.9369837 22.66210607-5.17613038 91.31713422-27.10034963 147.41473659-111.24371911 125.27449127-187.90627555zM210.30138311 512.87381333h87.60706844s-62.1815277 109.00821333 67.84675082 367.21398519C199.00491852 791.15180563 210.30138311 512.87381333 210.30138311 512.87381333z m624.01801481 223.019008c-6.18829748 1.85199882-12.38023585 2.9369837-18.53576533 3.84963319-1.60927289 0.20995792-3.25131378 0.45389748-4.82539141 0.55826963-5.87518103 0.59467852-11.64720355 0.90779497-17.34883555 0.59467852-1.25853392-0.03398163-2.44789097-0.27913482-3.74283378-0.34952534-2.97217897-0.24272592-5.83755852-0.76701392-8.77696948-1.18692978 38.64682192-69.91234845 50.88749037-135.80151467 52.98464238-178.35986488 36.89555437 4.43824355 67.81155555 26.12216415 77.35796622 59.24090311 13.60721541 47.1410157-20.91205215 98.9714963-77.11281305 115.65283555z m-789.54617362 219.31501037s-10.56100503 59.87441778 61.1329517 59.87441778h734.39156148c57.70566163 0 54.17278578-59.87441778 54.17278577-59.87441778H44.7732243z"  /></svg>