<?xml version="1.0" standalone="no"?><!DOCTYPE svg PUBLIC "-//W3C//DTD SVG 1.1//EN"
    "http://www.w3.org/Graphics/SVG/1.1/DTD/svg11.dtd">
<svg class="icon" width="32px" height="32.00px" viewBox="0 0 1024 1024" version="1.1"
     xmlns="http://www.w3.org/2000/svg">
    <path fill="#f39943"
          d="M65.71093333 516.7008l143.97973334 13.35893333v172.18133334l228.58666666-56.40426667v-62.34133333h-26.22186666v-78.66986667l-133.09546667-21.27573333-74.71146667-70.752 23.74933334-148.43413334 445.2992 71.248a170.20373333 170.20373333 0 0 1 11.38026666-30.67626666l-497.74613333-79.65866667 80.64853333-142.496 54.4256-20.7808 465.0912 74.71146667 44.0352 6.92693333 49.47733334 7.9168 75.70133333 12.36906667v70.75306666l-86.58666667 94.5024-39.08693333-5.44213333 18.80106667-117.26293333 72.7328 11.8752v-25.23413334l-104.39786667-17.31733333h-5.93813333l-74.21653334 88.56533333c23.2544 9.40053333 35.1296 55.41546667 26.71786667 107.3664s-37.60213333 98.95573333-64.32 93.01866667c-12.864 0-22.76053333-14.3488-28.6976-32.16l-6.92693333 44.03413333 73.7216 80.15466667-192.9632-30.18133333v57.39413333h-25.728v112.31466667l-309.7312 76.1952V938.25066667L65.71093333 962V516.7008z m657.55946667-193.95306667c-11.38133333 0-23.74933333 16.32746667-27.70773333 40.57173334s0 45.024 13.85386666 49.47733333 24.2432-16.32746667 27.70666667-40.57173333 0-45.024-13.8528-49.47733334z m-3.46346667 215.22773334l25.728 23.2544 86.09066667-53.93066667 25.728-159.81226667-33.64373333-5.4432-23.2544 144.97066667z"/>
</svg>
