<?xml version="1.0" standalone="no"?><!DOCTYPE svg PUBLIC "-//W3C//DTD SVG 1.1//EN" "http://www.w3.org/Graphics/SVG/1.1/DTD/svg11.dtd"><svg t="1535506779803" class="icon" style="" viewBox="0 0 1024 1024" version="1.1" xmlns="http://www.w3.org/2000/svg" p-id="2040" xmlns:xlink="http://www.w3.org/1999/xlink" width="32" height="32"><defs><style type="text/css"></style></defs><path d="M828.952381 958.000762l-48.761905 0 0-97.52381L243.809524 860.476952l0 97.52381L195.047619 958.000762l0-97.52381L146.285714 860.476952l0 97.52381c0 26.940952 21.820952 48.761905 48.761905 48.761905l48.761905 0c26.916571 0 48.761905-21.820952 48.761905-48.761905l0-48.761905 438.857143 0 0 48.761905c0 26.940952 21.820952 48.761905 48.761905 48.761905l48.761905 0c26.916571 0 48.761905-21.820952 48.761905-48.761905l0-97.52381-48.761905 0L828.952381 958.000762zM341.333333 299.715048l341.333333 0 0-48.761905L341.333333 250.953143 341.333333 299.715048zM874.471619 278.186667c-0.828952-0.219429-1.706667-0.316952-2.56-0.512C851.041524 192.414476 774.339048 129.048381 682.666667 129.048381L341.333333 129.048381c-95.451429 0-174.787048 68.632381-191.609905 159.232C104.911238 303.250286 73.142857 346.965333 73.142857 397.238857l0 73.142857 48.761905 0 0-73.142857c0-23.04 8.630857-43.617524 24.380952-56.124952l0 446.19581c0 26.940952 21.820952 48.761905 48.761905 48.761905l633.904762 0c26.916571 0 48.761905-21.820952 48.761905-48.761905l0-456.655238c17.603048 12.263619 24.380952 38.66819 24.380952 66.56l0 73.142857 48.761905 0 0-75.946667C950.857143 338.67581 918.723048 290.230857 874.471619 278.186667zM316.952381 762.953143c-26.940952 0-48.761905-21.820952-48.761905-48.761905 0-26.916571 21.820952-48.761905 48.761905-48.761905 26.916571 0 48.761905 21.845333 48.761905 48.761905C365.714286 741.13219 343.868952 762.953143 316.952381 762.953143zM731.428571 762.953143c-26.940952 0-48.761905-21.820952-48.761905-48.761905 0-26.916571 21.820952-48.761905 48.761905-48.761905 26.916571 0 48.761905 21.845333 48.761905 48.761905C780.190476 741.13219 758.345143 762.953143 731.428571 762.953143zM804.571429 567.905524 219.428571 567.905524l0-268.190476c0-53.857524 43.666286-97.52381 97.52381-97.52381l390.095238 0c53.857524 0 97.52381 43.666286 97.52381 97.52381L804.571429 567.905524z" p-id="2041" fill="#4db3a4"></path></svg>