<?xml version="1.0" standalone="no"?><!DOCTYPE svg PUBLIC "-//W3C//DTD SVG 1.1//EN" "http://www.w3.org/Graphics/SVG/1.1/DTD/svg11.dtd"><svg class="icon" width="32px" height="31.21px" viewBox="0 0 1050 1024" version="1.1" xmlns="http://www.w3.org/2000/svg"><path fill="#848484" d="M600.04443359 455.43623047c0 16.36699219-13.28291016 29.66220703-29.64902343 29.66220703H106.51044922c-16.36523438 0-29.64726563-13.29521484-29.64726563-29.66308594 0-16.36523438 13.28378906-29.64814453 29.64726563-29.64814453H570.39453125c16.36611328 0 29.64902344 13.28378906 29.64902344 29.64902344zM520.84355469 412.65898437c0.19072266-101.09179688-81.590625-183.21855469-182.68066407-183.41015624-101.08564453-0.20478516-183.20185547 81.58710938-183.4171875 182.67187499l366.09785157 0.73828126zM805.38857422 577.63056641c0 12.11484375-5.97392578 21.94365234-13.35498047 21.94365234H662.18574219c-7.35996094 0-13.33125-9.82880859-13.33125-21.94365234 0-12.11220703 5.97128906-21.94013672 13.33125-21.94013672h129.84785156c7.38105469 0 13.35498047 9.82880859 13.35498047 21.94013672zM747.09335938 540.659375V92.12539063C747.09335938 75.48505859 735.86445312 62 722.00761719 62 708.15166016 62 696.921875 75.48505859 696.921875 92.12539063v448.53398437h50.17148437zM856.65869141 807.04707031c29.31416016-205.92949219-50.12402344-194.67773438-50.12402344-194.67773437l-17.24941406 0.10810547c29.31503906 18.90703125 30.39169922 61.60166016 30.39169921 61.60166015-1.12675781-39.7546875-43.53222656-61.50585938-43.5796875-61.50585937l-14.50195312 0.09580078c0.02373047 0 18.99228516 15.09960938 18.99228516 30.50683594 0 0-15.6234375-30.53056641-33.49423829-30.41191407l-71.45859375 0.46582032s-30.12714844 2.96191406-53.58779296 55.76220703c0 0 20.30800781-49.34794922 42.62080078-55.69101563l-4.22753907 0.02460938c-40.30664063-1.12412109-54.68642578 38.75097656-54.68642578 38.75097656S589.10029297 716.78515625 594.52402344 787.14248047l-0.04921875-0.02109375s-1.09599609 122.58457031 71.10175781 165.5859375c0 0-20.68945313-19.58994141-29.86523437-46.75429688 15.57685547 19.32890625 36.36298828 35.23886719 64.17158203 45.225 0 0 147.16845703 56.28691406 284.70849609-87.96533203 0.00263672 0.00087891-143.70117188 54.47109375-127.93271484-56.1665039zM326.16933594 121.8359375h23.29628906V207.45898437h-23.29628906V121.8359375zM229.00185547 238.52832031l-19.04326172 13.47539063-49.45605469-69.89150391 19.01777344-13.47539062 49.48154297 69.89238281zM150.46894531 335.19394531l-7.95410156 21.91992188L62 327.9078125l7.95673828-21.92167969 80.51220703 29.2078125zM463.16796875 247.26201172l-19.28056641-13.09306641 48.09462891-70.846875 19.30517578 13.0913086-48.11923828 70.84863281zM540.77099609 363.76630859l-6.40458984-22.40859375 82.378125-23.46064453 6.37734375 22.40947266-82.35087891 23.45976562zM275.42216797 599.56279297c0-11.99179688-9.69873047-21.70283203-21.69140625-21.70283203-11.94785156 0-21.69492187 9.71191406-21.69492188 21.70283203 0 11.98388672 9.74707031 21.70634766 21.69404297 21.70634765 11.99355469 0 21.69228516-9.72421875 21.69228516-21.70634765zM421.92792969 577.87226562c-11.99179688 0-21.69052734 9.71015625-21.69052735 21.70195313 0 11.95839844 9.69785156 21.67119141 21.69140625 21.67119141 11.99707031 0 21.69404297-9.71191406 21.69404297-21.67119141 0.00087891-11.99179688-9.69785156-21.70195312-21.69492187-21.70195312z"  /><path fill="#848484" d="M93.22666016 501.33095703l101.34580078 451.378125h291.02871094L577.13310547 501.33007812H93.22753906z"  /><path fill="#848484" d="M431.10458984 634.34990234c-2.7703125 48.9515625-43.00576172 87.91787109-92.65429687 87.9178711-49.50439453 0-89.64140625-38.74921875-92.60595703-87.53642578-16.10332031-3.59560547-28.19179687-17.95253906-28.19179688-35.18085938 0-19.93623047 16.15078125-36.07294922 36.07734375-36.07294922 19.95029297 0 36.07646484 16.13671875 36.07646485 36.07294922 0 17.55-12.47255859 32.14775391-29.07685547 35.40673828 3.05859375 40.46044922 36.48251953 72.43945313 77.72167968 72.43945313 41.21191406 0 74.59277344-31.93066406 77.69619141-72.31640625-17.15361328-2.78525391-30.29326172-17.56230469-30.29326172-35.52802735 0-19.93623047 16.14902344-36.07470703 36.07382813-36.07470703 19.95117188 0 36.07910156 16.13671875 36.07910156 36.07470703 0 16.76074219-11.41962891 30.73623047-26.90244141 34.79765625z"  /></svg>