<?xml version="1.0" standalone="no"?><!DOCTYPE svg PUBLIC "-//W3C//DTD SVG 1.1//EN" "http://www.w3.org/Graphics/SVG/1.1/DTD/svg11.dtd"><svg class="icon" width="32px" height="32.00px" viewBox="0 0 1024 1024" version="1.1" xmlns="http://www.w3.org/2000/svg"><path fill="#848484" d="M464.16113281 763.06220703c-6.27539063-6.72978516-12.19658203-13.84277344-17.98066406-21.09375-12.03222656-10.12763672-23.57490234-20.75097656-34.26416016-32.53710937 3.8109375 0.45263672 7.78359375 0.35595703 11.64902344 0.67060547-8.66162109-13.91132812-16.33710938-28.53457031-22.86210937-43.76074219-8.35927734-1.34296875-16.77392578-2.33085938-24.91699219-4.24951172-30.20537109-46.73671875-50.90185547-101.39501953-58.96054688-160.69921875 19.51787109 7.46982422 39.99287109 13.23896484 60.99082032 17.59833984 1.37021484-12.67822266 3.50859375-25.51992188 6.66123047-38.51367187-24.91875-5.31738281-48.73798828-13.10185547-71.13339844-23.12138672-0.10986328-3.7828125-0.35683594-7.53837891-0.35683594-11.36162109 0-44.74951172 7.29228516-87.71660156 20.5875-127.62861329 32.371875 22.21699219 71.05078125 35.59482422 112.71533203 38.08828125 12.77402344-16.09013672 26.36982422-31.61865234 41.36396485-45.9-9.1828125 1.49414063-18.58535156 2.52246094-28.17949219 2.52246094-40.97988281 0-78.64189453-13.82871094-108.87890625-37.01953125 26.25996094-56.41259766 65.18583984-104.60214844 112.77246094-139.79794922 40.07460938 29.61826172 73.46074219 68.88427734 98.95429687 114.16816406 12.33457031-8.6484375 24.77988281-16.81699219 37.17070313-24.73857421-21.19042969-37.00634766-47.17705078-70.43378906-77.57490235-98.49023438 40.95175781 7.38896484 79.32832031 22.25830078 113.67421875 43.10595703-3.20625 15.15849609-8.90771484 29.24736328-15.70605469 42.6928711 21.571875-13.14492187 42.81767578-25.56210937 62.36015625-36.81386719a1996.565625 1996.565625 0 0 0 33.63486329-19.61191406C647.68115234 98.45703125 559.80107422 62.89121094 463.47734375 62.89121094c-82.89140625 0-159.64365234 26.12373047-222.96445313 70.17363281h-5.26201171c0 1.34296875 0.08173828 2.61738281 0.16435547 3.96035156-34.94882813 25.19121094-65.73339844 56.04257813-90.62402344 91.23925781-4.05439453 5.59160156-7.89257812 11.43017578-11.56640625 17.32324219-9.92285156 15.63925781-18.74970703 31.8796875-26.31445313 48.80654297-15.10400391 33.56542969-25.46630859 69.57070312-30.53671875 107.37070313-2.30273438 17.09121094-3.91992188 34.45664062-3.91992187 52.15078125 0 195.42919922 144.2671875 357.33603516 331.81523437 386.00683593 12.60966797-14.33496094 31.79707031-37.81318359 59.89306641-76.86035156zM404.70751953 127.23945313c-35.1140625 32.48261719-64.85449219 71.73632813-87.44150391 115.89521484-15.45996094-20.0109375-26.89189453-43.25537109-32.83945312-68.59775391 36.01933594-23.12050781 76.64238281-39.403125 120.28095703-47.29746094z m-158.2734375 75.68261718c10.55390625 32.23564453 28.23398438 61.12792969 51.06796875 84.93574219-16.99541016 45.25488281-26.89013672 94.33564453-28.23398437 145.77363281-46.07929687-29.44072266-83.79667969-69.00908203-108.71367188-115.33359375 19.92832031-44.52978516 49.31367187-83.75625 85.88056641-115.37578125zM131.25253906 453.84716797c0-30.53671875 4.44023438-60.00292969 12.22558594-88.29228516 31.68720703 46.76396484 75.27128906 85.8515625 126.80595703 114.07324219 4.32949219 58.41386719 19.65234375 113.22246094 43.74755859 162.31640625-85.79794922-36.42978516-152.68183594-103.69775391-182.72460937-186.15234375 0.05537109-0.60205078-0.05449219-1.20585937-0.05449219-1.94501953z m22.75048828 120.19921875c48.24492188 57.09726563 115.01894531 100.50292969 191.88105469 122.34990234 20.80458984 30.16669922 45.17226563 57.17988281 72.52998047 80.21953125 2.85029297 1.13818359 5.81132813 2.02851562 8.79873047 2.97421875-2.30273438 1.27441406-4.52373047 2.30273438-6.82558594 3.57714844-121.92451172-15.89941406-223.0734375-98.06396484-266.38417969-209.12080078z"  /><path fill="#848484" d="M810.50732422 128.93925781c6.19453125 61.67548828-297.85429687 143.37597656-373.94824219 320.09765625-58.74169922 136.16542969 17.8171875 251.65107422 96.48808594 307.29462891-150.98291016 221.27871094-157.09482422 174.61230469-168.05830078 187.78271484l85.16601562 16.99453125S594.39570312 715.76210937 609.03125 690.09189453c-0.54667969-0.52119141-39.63603516-35.36015625-72.42099609-76.01308594-8.16679687-10.26474609-16.00839844-20.73691406-22.66699219-31.18007812-6.57861328-10.37460938-12.25458984-20.50488281-15.70693359-29.78261719-1.89228516-4.60458984-3.56396484-8.77148438-4.19501954-12.77314453-0.74091797-3.93310547-1.97490234-7.22285156-1.78242187-10.19794922 0-5.63291016-0.05449219-8.89453125-0.05449219-8.89453125l1.20673828 8.78466797c0 2.83798828 1.69892578 5.95019531 2.85029297 9.70488281 1.04238281 3.71425781 3.17988281 7.57880859 5.48173828 11.74570313 4.41386719 8.49638672 10.99335938 17.59833984 18.58623047 26.83652344 7.51025391 9.27773437 16.39160156 18.55722656 25.43554688 27.5493164 18.34101562 17.88486328 38.10234375 34.19560547 53.23447265 46.02216797 10.36054687 8.07363281 18.09052734 13.70654297 22.2038086 16.63945313 14.66455078-26.25996094 29.6859375-53.91826172 44.76269531-83.05751954l-0.35595703 0.49394532s-30.23525391-26.93144531-55.50908203-58.19414063c-6.22265625-7.96289063-12.30820313-15.93984375-17.35136719-23.92998047-5.09941406-8.00507813-9.42890625-15.72099609-12.06210938-22.80761718-1.42382813-3.53496094-2.6578125-6.72890625-3.17988281-9.79804688-0.60205078-2.97509766-1.53369141-5.49667969-1.36845703-7.75722656-0.02724609-4.359375-0.05537109-6.86689453-0.05537109-6.86689453s0.32871094 2.48027344 0.87802734 6.82558593c0 2.16474609 1.34208984 4.53603516 2.19287109 7.37314454 0.76816406 2.86435547 2.41171875 5.76914062 4.16601563 9.05800781 3.37236328 6.4828125 8.44277344 13.41826172 14.19960937 20.4899414 5.81044922 7.08662109 12.58154297 14.19960937 19.4897461 21.1069336 14.0625 13.66435547 29.19287109 26.12285156 40.76015625 35.19667969 7.51201172 5.86582031 13.21171875 10.04589844 16.47421875 12.34863281 16.00839844-31.46748047 31.98867188-64.40185547 47.58574219-98.59921875l-1.61806641 2.1243164s-24.23056641-21.51738281-44.43310547-46.58554687c-5.01591797-6.26308594-9.81386719-12.75996094-13.84277344-19.10566406-4.05703125-6.33251953-7.565625-12.58154297-9.64863281-18.20039063-1.125-2.82392578-2.14013672-5.38681641-2.52246094-7.86708984-0.49306641-2.39941406-1.26123047-4.41386719-1.096875-6.23671875 0-3.46728516-0.05537109-5.46943359-0.05537109-5.4694336s0.24609375 2.04257812 0.71279297 5.4413086c0 1.68662109 1.040625 3.65888672 1.75429687 5.86582031 0.68554688 2.28955078 1.97402344 4.64677734 3.37060547 7.20966797 2.65869141 5.26289062 6.77021484 10.78681641 11.37480469 16.43291016 4.60546875 5.62060547 9.97822266 11.33525391 15.57070312 16.89960937 11.23769531 10.93798828 23.32617188 20.88720703 32.56347657 28.1109375 6.08642578 4.74169922 10.63652344 8.07363281 13.21259765 9.90878906 0.05537109-0.24609375 0.16523437-0.42451172 0.27421875-0.62929687 0 0 10.74638672-23.79375 15.62431641-35.19667969 49.91660156-115.67724609 31.22138672-66.80126953-8.35927734 33.20859375 3.70019531-0.20566406 8.30478516-0.53525391 14.08798828-1.0546875 12.91113281-1.1109375 30.18164063-3.12539063 47.09267578-6.55224609 8.41552734-1.80966797 16.85742188-3.796875 24.53466797-6.30439453 7.67285156-2.52246094 14.74628906-5.20839844 20.446875-8.38916016 2.79580078-1.56181641 5.42636719-2.97421875 7.40214843-4.74082031 1.99951172-1.69980469 4.11152344-2.85029297 5.18027344-4.41386719 2.49257813-2.90478516 3.86455078-4.56328125 3.86455078-4.56328125s-1.17949219 1.79472656-3.34423828 5.02998047c-0.87714844 1.78154297-2.82392578 3.19306641-4.71533203 5.14072265-1.80878906 2.05488281-4.32949219 3.82324219-7.07080078 5.74189454-5.37363281 3.96035156-12.27919922 7.64736328-19.84570313 11.11464843-7.56650391 3.53583984-15.89941406 6.57949219-24.34042968 9.48427735-33.77197266 11.08828125-69.07675781 16.56914062-69.07675782 16.56914062l-0.19335937-1.98632812a26284.57910156 26284.57910156 0 0 1-35.16855469 88.37402343c4.05615234-0.21972656 8.57988281-0.5625 14.0616211-1.02832031 16.63945313-1.52138672 38.89775391-4.07021484 60.71660156-8.45507812 10.91074219-2.34404297 21.81972656-4.96230469 31.74257812-8.18261719 9.89648438-3.22119141 19.02392578-6.69023438 26.25996094-10.828125 3.67382813-1.96083984 7.0734375-3.796875 9.62226563-6.05830078 2.60419922-2.19287109 5.31738281-3.68701172 6.66035156-5.70146485 3.17988281-3.78369141 5.04316406-5.87988281 5.04316406-5.87988281s-1.53457031 2.30273438-4.30488281 6.48369141c-1.20410156 2.30273438-3.64394531 4.06933594-6.08466797 6.64628906-2.38447266 2.63144531-5.56523438 4.89287109-9.10019531 7.40214844-6.88007812 5.13984375-15.87128906 9.81298828-25.60253907 14.33496094-9.78662109 4.50878906-20.47587891 8.42871094-31.359375 12.18427734-37.27792969 12.25283203-75.79160156 19.11972656-86.18115234 20.85996094-11.48554688 28.85097656-28.06962891 58.16777344-39.33457031 86.62060547 4.55009766-0.27421875 14.5828125-0.67060547 20.64023437-1.19179688 19.10566406-1.70068359 44.59833984-4.67402344 69.6796875-9.7453125 12.47167969-2.6578125 24.97236328-5.63378906 36.32167969-9.30673828 11.34755859-3.68701172 21.84697266-7.71591797 30.15087891-12.45761719 4.22226563-2.27636719 8.11494141-4.40068359 11.02060547-6.97851562 2.96103516-2.37041016 6.05830078-4.15107422 7.64736328-6.52324219 3.70019531-4.27587891 5.78496094-6.75615234 5.78496093-6.75615234s-1.81054688 2.65869141-4.96318359 7.42763671c-1.34121094 2.59013672-4.22138672 4.67402344-6.9890625 7.58056641-2.6859375 3.04189453-6.35976563 5.63291016-10.41503906 8.49726563-7.95058594 5.87988281-18.20214844 11.334375-29.38535156 16.43291015-11.23945312 5.23564453-23.57490234 9.703125-35.99296875 13.95351563-42.29472656 13.93769531-92.24121094 19.28320313-104.73925782 21.44882812-12.96386719 32.85351563-36.01757813 66.30908203-46.26914062 92.82832031 101.44951172 36.45791016 276.03369141 43.96904297 346.47802734-119.59541015 76.09921875-176.80078125-130.30664063-596.52597656-124.16660156-534.84960938z"  /></svg>