<?xml version="1.0" standalone="no"?><!DOCTYPE svg PUBLIC "-//W3C//DTD SVG 1.1//EN" "http://www.w3.org/Graphics/SVG/1.1/DTD/svg11.dtd"><svg t="1525425790125" class="icon" style="" viewBox="0 0 1145 1024" version="1.1" xmlns="http://www.w3.org/2000/svg" p-id="697" xmlns:xlink="http://www.w3.org/1999/xlink" width="35.78125" height="32"><defs><style type="text/css"></style></defs><path d="M912.917 799.38c-24.107 0-46.373 7.455-64.6 20.229l-125.228-104.7c44.435-74.75 46.307-167.365 4.926-243.886-41.38-76.49-119.907-125.622-206.807-129.334L521.34 214c54.716-5.65 96.26-51.793 96.128-106.802C617.468 47.95 569.42 0 510.206 0 450.993 0 402.978 48.046 403.01 107.26c0 55.572 42.202 101.288 96.26 106.804l-0.132 127.625c-93.336 4.269-176.263 60.79-214.426 146.082-38.163 85.26-25.025 184.772 33.959 257.221l-121.188 86.244c-42.891-41.774-111.006-42.564-154.85-1.774-43.843 40.79-47.982 108.773-9.425 154.555 38.588 45.815 106.31 53.27 153.93 17.014 47.654-36.258 58.427-103.52 24.566-152.915l121.712-86.637c51.235 52.549 123.192 79.61 196.363 73.798 73.205-5.815 140.007-43.845 182.34-103.815l120.795 101.022c-37.737 37.934-43.451 97.245-13.663 141.681 29.788 44.468 86.8 61.745 136.23 41.283 49.461-20.46 77.606-73.008 67.229-125.49-10.346-52.516-56.293-90.415-109.793-90.579z m-402.612-55.833c-77.54-0.067-140.4-62.925-140.466-140.466a140.572 140.572 0 0 1 46.865-104.536c29.756-26.635 69.43-39.347 109.102-34.944v-22.728c0-2.89 1.773-5.648 4.369-6.765 2.724-1.183 5.911-0.59 7.98 1.577l49.92 49.986a7.283 7.283 0 0 1 0 10.116l-49.79 50.117c-2.134 1.97-5.221 2.564-7.915 1.479-2.725-1.085-4.531-3.746-4.498-6.668v-25.157a89.058 89.058 0 0 0-72.58 19.474c-20.133 16.849-31.793 41.776-31.858 68.05 0 49.134 39.935 89.034 88.935 89.034s88.937-39.9 88.937-89.034c0-3.909 3.449-7.126 7.389-7.126h36.814c4.075 0 7.39 3.283 7.39 7.126-0.129 77.571-63.022 140.398-140.594 140.465z m0 0" fill="#848484" p-id="698"></path></svg>