<?xml version="1.0" standalone="no"?><!DOCTYPE svg PUBLIC "-//W3C//DTD SVG 1.1//EN" "http://www.w3.org/Graphics/SVG/1.1/DTD/svg11.dtd"><svg class="icon" width="24px" height="24.00px" viewBox="0 0 1024 1024" version="1.1" xmlns="http://www.w3.org/2000/svg"><path fill="#808080" d="M752 811.9990625q0-13.92-10.183125-24.103125t-24.103125-10.183125-24.103125 10.183125-10.183125 24.103125 10.183125 24.103125 24.103125 10.183125 24.103125-10.183125T752 811.9990625z m137.143125 0q0-13.92-10.183125-24.103125t-24.103125-10.183125-24.103125 10.183125-10.183125 24.103125 10.183125 24.103125 24.103125 10.183125 24.103125-10.183125 10.183125-24.103125z m68.5715625-120v171.4284375q0 21.4284375-15.016875 36.4115625t-36.4115625 15.016875H117.7146875q-21.4284375 0-36.4115625-15.016875t-15.016875-36.4115625V691.9990625q0-21.4284375 15.016875-36.4115625t36.4115625-15.016875h249.12l72.3084375 72.856875q31.063125 30 72.856875 30t72.856875-30l72.856875-72.856875h248.5715625q21.4284375 0 36.4115625 15.016875t15.016875 36.4115625z m-174.103125-304.83375q9.12 21.976875-7.5084375 37.5084375l-240 240q-9.6346875 10.183125-24.103125 10.183125t-24.103125-10.183125l-240-240q-16.5946875-15.5315625-7.5084375-37.5084375 9.12-20.88 31.6115625-20.88h137.143125v-240q0-13.92 10.183125-24.103125t24.103125-10.183125h137.143125q13.92 0 24.103125 10.183125t10.183125 24.103125v240h137.143125q22.4915625 0 31.6115625 20.88z"  /></svg>