<?xml version="1.0" standalone="no"?><!DOCTYPE svg PUBLIC "-//W3C//DTD SVG 1.1//EN" "http://www.w3.org/Graphics/SVG/1.1/DTD/svg11.dtd"><svg t="1535365640852" class="icon" style="" viewBox="0 0 1024 1024" version="1.1" xmlns="http://www.w3.org/2000/svg" p-id="6509" xmlns:xlink="http://www.w3.org/1999/xlink" width="32" height="32"><defs><style type="text/css"></style></defs><path d="M512 466.432c-25.088 0-45.568 20.48-45.568 45.568s20.48 45.568 45.568 45.568 45.568-20.48 45.568-45.568-20.48-45.568-45.568-45.568z" p-id="6510" fill="#878787"></path><path d="M743.936 816.64c0 18.432-15.36 33.792-33.792 33.792-18.432 0-33.792-15.36-33.792-33.792 0-18.432 15.36-33.792 33.792-33.792 18.432 0 33.792 15.36 33.792 33.792z m135.168 0c0 18.432-15.36 33.792-33.792 33.792-18.432 0-33.792-15.36-33.792-33.792 0-18.432 15.36-33.792 33.792-33.792 18.432 0 33.792 15.36 33.792 33.792z m67.584-118.272c0-28.16-22.528-50.688-50.688-50.688h-245.248l-71.68 71.68c-19.456 18.944-45.056 29.696-71.68 29.696s-52.224-10.752-71.68-29.696l-71.168-71.68H117.76c-28.16 0-50.688 22.528-50.688 50.688v168.96c0 28.16 22.528 50.688 50.688 50.688h778.24c28.16 0 50.688-22.528 50.688-50.688v-168.96z m-171.52-301.056c-5.12-12.288-17.408-20.48-31.232-20.48h-135.168V139.776c0-18.432-15.36-33.792-33.792-33.792H439.296c-18.432 0-33.792 15.36-33.792 33.792v237.056H269.824c-13.824 0-26.112 8.704-31.232 20.48-5.12 12.8-2.56 27.648 7.168 36.864l237.056 237.056c6.144 6.656 15.36 10.24 23.552 10.24 8.704 0 17.408-3.072 23.552-10.24l237.056-237.056c10.752-9.216 13.312-24.064 8.192-36.864z" p-id="6511" fill="#878787"></path></svg>