<?xml version="1.0" standalone="no"?><!DOCTYPE svg PUBLIC "-//W3C//DTD SVG 1.1//EN" "http://www.w3.org/Graphics/SVG/1.1/DTD/svg11.dtd"><svg class="icon" width="32px" height="32.00px" viewBox="0 0 1024 1024" version="1.1" xmlns="http://www.w3.org/2000/svg"><path fill="#848484" d="M512 457.55A190.35 190.35 0 0 0 692 260 190.35 190.35 0 0 0 512 62a190.35 190.35 0 0 0-180 197.55A190.35 190.35 0 0 0 512 457.1zM490.85 746L658.25 504.35A571.5 571.5 0 0 0 512 485a467.55 467.55 0 0 0-213.3 41.4s-13.5 0-40.05 45c-40.5 67.05-103.05 165.15-121.05 198-13.05 21.6-45 64.35-24.3 109.8A432.9 432.9 0 0 0 164.6 962h100.35a231.75 231.75 0 0 1 225-216z m395.55 22.5c-31.05-54-99.45-163.35-104.85-173.25s-29.7-62.1-72-75.6L692 514.25 531.8 746A233.1 233.1 0 0 1 760.85 962h90s9.9 0 57.6-87.3c18-45 0-66.6-23.4-106.2zM512 803.15c-105.75 0-191.25 68.85-191.25 158.85h382.5c0-90-85.5-158.85-191.25-158.85z" /></svg>