<?xml version="1.0" standalone="no"?><!DOCTYPE svg PUBLIC "-//W3C//DTD SVG 1.1//EN" "http://www.w3.org/Graphics/SVG/1.1/DTD/svg11.dtd"><svg class="icon" width="24px" height="24.00px" viewBox="0 0 1024 1024" version="1.1" xmlns="http://www.w3.org/2000/svg"><path fill="#808080" d="M949.27205849 358.775l-50.37646992-50.28529395c-13.93382373-13.93529414-38.76323555-11.69852959-55.46617646 5.09411778l-378.97647099 378.9705876c-16.79264737 16.70294092-19.02499981 41.53235273-5.08970567 55.46911816l50.28529395 50.37499951c13.93382373 13.84558857 38.76323555 11.61176484 55.55441162-5.17941123l378.88823583-378.88676455c16.79264737-16.79264737 19.11470625-41.62352959 5.18088164-55.55735332zM547.8764706 845.11176435l1.78676456 1.51617657-157.64558818 83.24411747H710.97058847c23.75882315 0 42.87205898-19.20147099 42.872059-42.86911727V643.16323496L558.95294112 837.16029424c-3.48235313 3.39705878-7.32647021 5.36323536-11.07647052 7.95147011z m-138.26617646-118.61764628c3.12941162-8.30441162 7.50294141-16.43088252 14.56029404-23.4L753.84264746 374.94117617V136.73235254c0-23.66911758-19.20588222-42.8735294-42.87205899-42.87352939H110.75588193C87.08823565 93.85882315 67.88235253 113.06323496 67.88235253 136.73235254V886.91176513c0 23.75882315 19.20588222 42.86911729 42.8735294 42.86911729h212.04117685l84.84999961-205.06911768 1.96323575 1.78235333zM175.06176435 158.16911768h450.16323575c23.76029443 0 42.8749998 11.78823516 42.8749998 26.43823565 0 14.64558838-19.20441182 26.34705879-42.8749998 26.34705878H175.06176435c-23.66911758 0-42.86911729-11.78823516-42.86911727-26.34705878-0.00147041-14.65147089 19.19999971-26.43823565 42.86911727-26.43823565z m0 141.21029443h450.16323575c23.76029443 0 42.8749998 12.41617675 42.8749998 27.68823457 0 15.2735291-19.20441182 27.68823545-42.8749998 27.68823545H175.06176435c-23.66911758 0-42.86911729-12.41470547-42.86911727-27.68823545-0.00147041-15.27205869 19.19999971-27.68823545 42.86911727-27.68823457z m0 201.58970537c-23.66911758 0-42.86911729-12.86323506-42.86911727-28.57941123 0-15.72058828 19.20147099-28.58382334 42.86911727-28.58382422h278.67500069c23.66911758 0 42.8735294 12.77205908 42.87352939 28.58382422 0 15.80735303-19.20588222 28.57941211-42.87352939 28.57941123H175.06176435zM417.29411797 751.05882354l-80.92205948 186.58676513 180.15294112-91.82058838L417.29411797 751.05882354z m0 0"  /></svg>