<?xml version="1.0" standalone="no"?><!DOCTYPE svg PUBLIC "-//W3C//DTD SVG 1.1//EN" "http://www.w3.org/Graphics/SVG/1.1/DTD/svg11.dtd"><svg t="1535523053055" class="icon" style="" viewBox="0 0 1024 1024" version="1.1" xmlns="http://www.w3.org/2000/svg" p-id="2293" xmlns:xlink="http://www.w3.org/1999/xlink" width="32" height="32"><defs><style type="text/css"></style></defs><path d="M558.545 660.945c51.2-55.854 51.2-139.636-2.327-193.163s-139.636-53.527-193.163-2.327L176.873 279.273C153.6 256 118.69 262.982 102.4 290.909 6.982 467.782 32.582 693.527 181.527 842.473s374.691 174.545 551.564 79.127c27.927-13.964 32.582-51.2 11.636-74.473L558.545 660.945zM512 46.545c-69.818 0-137.31 16.291-197.818 44.219l30.254 62.836c51.2-23.273 107.055-37.236 167.564-37.236 218.764 0 395.636 176.872 395.636 395.636 0 60.51-13.963 116.364-37.236 167.564l62.836 30.254c27.928-60.509 44.219-128 44.219-197.818C977.455 256 768 46.545 512 46.545z m0 186.182c-41.89 0-83.782 9.31-121.018 27.928l30.254 62.836c27.928-13.964 58.182-20.946 90.764-20.946 116.364 0 209.455 93.091 209.455 209.455 0 32.582-6.982 62.836-20.946 90.764l62.836 30.254c16.291-37.236 27.928-76.8 27.928-118.69 0-155.928-125.673-281.6-279.273-281.6z" p-id="2294" fill="#878787"></path></svg>