<?xml version="1.0" standalone="no"?><!DOCTYPE svg PUBLIC "-//W3C//DTD SVG 1.1//EN"
    "http://www.w3.org/Graphics/SVG/1.1/DTD/svg11.dtd">
<svg t="1529461053835" class="icon" style="" viewBox="0 0 1024 1024" version="1.1" xmlns="http://www.w3.org/2000/svg"
     p-id="15865" xmlns:xlink="http://www.w3.org/1999/xlink" width="32px" height="32px">
    <defs>
        <style type="text/css"></style>
    </defs>
    <path
        d="M636.191245 386.913612c-47.954114-47.954114-121.483755-47.954114-166.240929 0l-290.921624 290.921624c-44.757173 44.757173-44.757173 118.286814 0 163.043988 44.757173 44.757173 118.286814 44.757173 163.043987 0l290.921625-290.921625c47.954114-44.757173 47.954114-118.286814 3.196941-163.043987zM310.10327 796.122051c-22.378586 22.378586-60.741878 22.378586-83.120464 0s-22.378586-60.741878 0-83.120464 60.741878-22.378586 83.120464 0 22.378586 60.741878 0 83.120464z"
        p-id="15866" fill="#848484"></path>
    <path
        d="M569.055485 450.852431c-12.787764-12.787764-12.787764-28.772468 0-41.560232l83.120464-83.120465c12.787764-12.787764 28.772468-12.787764 41.560232 0s12.787764 28.772468 0 41.560232l-83.120464 83.120465c-9.590823 9.590823-28.772468 9.590823-41.560232 0z"
        p-id="15867" fill="#848484"></path>
    <path
        d="M466.753375 546.760658v9.590823h9.590823s-3.196941-3.196941-6.393882-3.196941c0-3.196941-3.196941-3.196941-3.196941-6.393882zM802.432173 220.672684c-79.923523-79.923523-195.013397-95.908228-290.921625-54.347996l-9.590822 70.3327c79.923523-51.151055 188.619515-44.757173 255.755274 25.575528 70.3327 70.3327 76.726582 179.028692 25.575527 255.755274l70.332701-9.590823c44.757173-92.711287 25.575527-207.80116-51.151055-287.724683z"
        p-id="15868" fill="#848484"></path>
    <path
        d="M904.734282 118.370574C802.432173 16.068464 661.766772-19.097886 530.692194 9.674583l-6.393882 60.741877C639.388185 38.447051 770.462763 67.219519 863.17405 159.930806c92.711287 92.711287 121.483755 223.785865 89.514346 342.072679l60.741878-6.393881c28.772468-131.074578-6.393882-274.93692-108.695992-377.23903z"
        p-id="15869" fill="#848484"></path>
    <path
        d="M656.140156 610.315844l289.323154 289.323154-124.329033 124.361002-289.323154-289.355123zM2.014073 202.609968l124.361002-124.329033 284.815467 284.847437-124.361002 124.329032z"
        p-id="15870" fill="#848484"></path>
</svg>
