<?xml version="1.0" standalone="no"?><!DOCTYPE svg PUBLIC "-//W3C//DTD SVG 1.1//EN" "http://www.w3.org/Graphics/SVG/1.1/DTD/svg11.dtd"><svg class="icon" width="32px" height="32.00px" viewBox="0 0 1024 1024" version="1.1" xmlns="http://www.w3.org/2000/svg"><path fill="#848484" d="M901.13375001 397.6625H123.7521875c-9.0665625 0-16.4240625 8.600625-16.4240625 19.1953125v191.4628125c0 10.5965625 7.3575 19.1953125 16.4240625 19.1953125h777.3909375c9.0665625 0 16.4221875-8.59875001 16.4221875-19.1953125V416.85874999c-0.009375-10.595625-7.355625-19.1971875-16.43156251-19.19718749zM795.455 560.5821875H575.37874999c-22.6696875 0-41.0578125-21.481875-41.05781249-47.9896875s18.388125-47.986875 41.05781249-47.986875h220.07625001c22.674375 0 41.060625 21.4790625 41.060625 47.986875s-18.38624999 47.990625-41.060625 47.990625z m105.67874999 138.66656251H123.7521875c-9.0665625 0-16.4240625 8.59875001-16.4240625 19.19343749v191.46375c0 10.5965625 7.3575 19.1953125 16.4240625 19.19531251h777.3909375c9.0665625 0 16.4221875-8.59875001 16.4221875-19.19531251V718.443125c-0.009375-10.5946875-7.355625-19.1934375-16.43156251-19.1934375zM795.455 858.11H320.8015625c-22.66875001 0-41.056875-21.481875-41.056875-47.9896875s18.3871875-47.986875 41.056875-47.986875h474.6534375c22.674375 0 41.060625 21.4790625 41.060625 47.986875s-18.38624999 47.990625-41.060625 47.990625zM901.13375001 96.0875H123.7521875c-9.0665625 0-16.4240625 8.6015625-16.4240625 19.1953125v191.454375c0 10.595625 7.3575 19.194375 16.4240625 19.194375h777.3909375c9.0665625 0 16.4221875-8.59875001 16.4221875-19.194375V115.281875c-0.009375-10.605-7.355625-19.1953125-16.43156251-19.1953125zM795.455 263.05624999H473.553125c-22.674375 0-41.056875-21.48-41.05687501-47.98968749 0-26.5078125 18.384375-47.986875 41.05687501-47.986875h321.90375c22.674375 0 41.060625 21.4790625 41.060625 47.986875-0.0009375 26.5096875-18.3871875 47.990625-41.0615625 47.990625z" /></svg>