<?xml version="1.0" standalone="no"?><!DOCTYPE svg PUBLIC "-//W3C//DTD SVG 1.1//EN" "http://www.w3.org/Graphics/SVG/1.1/DTD/svg11.dtd"><svg class="icon" width="32px" height="32.00px" viewBox="0 0 1024 1024" version="1.1" xmlns="http://www.w3.org/2000/svg"><path fill="#e84c3d" d="M91.128125 932.8859375h463.925625V91.1515625H91.128125v841.734375z m379.130625-126.6365625H343.985V553.071875h126.27375v253.1775z m-126.590625-588.9225H469.896875v125.840625H343.6690625v-125.840625z m0 167.889375H469.896875v126.43875H343.6690625V385.21625z m-41.1684375 126.43875H176.2690625V385.21625h126.230625v126.43875z m-126.7003125-294.271875h125.746875V343.409375h-125.746875V217.383125z m-0.178125 335.68875h126.27375v253.1775H175.62125V553.071875z m757.4625-209.863125H596.256875v83.7871875h336.825v-83.7871875z m-336.440625 126.43875V932.384375h83.938125V680.01875l168.496875 0.7996875V932.384375h84.795V469.6475H596.6421875z"  /></svg>