<?xml version="1.0" standalone="no"?><!DOCTYPE svg PUBLIC "-//W3C//DTD SVG 1.1//EN"
    "http://www.w3.org/Graphics/SVG/1.1/DTD/svg11.dtd">
<svg class="icon" width="32px" height="21.17px" viewBox="0 0 1548 1024" version="1.1"
     xmlns="http://www.w3.org/2000/svg">
    <path fill="#53b6a7"
          d="M329.216 324.096c0 13.312 6.144 19.456 16.896 26.624l110.08 61.44c6.656 4.608 13.824 6.656 22.016 6.656H691.2v90.624H389.12c-21.504 0-30.208 8.192-30.208 30.208V660.48c0 22.016 8.704 30.208 30.208 30.208H691.2v226.304c0 22.016-1.024 30.208 20.48 30.208h100.864c21.504 0 20.48-8.192 20.48-30.208V690.688h211.456c-0.512 0.512 28.16-1.024 30.208 0l103.936-65.024c10.752-7.68 16.896-13.312 16.896-26.624s-6.144-19.456-16.896-26.624l-102.912-62.976c-2.56-1.536-26.112 0-30.208 0h-212.48v-90.624h302.08c21.504 0 30.208-8.192 30.208-30.208V267.776c0-22.016-8.704-30.208-30.208-30.208h-302.08V116.736c0-22.016 1.024-30.208-20.48-30.208H711.68c-21.504 0-20.48 8.192-20.48 30.208v120.832H480.256c-7.68 0-23.552-2.56-30.208 2.048l-103.936 57.856c-10.752 7.168-16.896 13.312-16.896 26.624z"/>
</svg>
