<?xml version="1.0" standalone="no"?><!DOCTYPE svg PUBLIC "-//W3C//DTD SVG 1.1//EN" "http://www.w3.org/Graphics/SVG/1.1/DTD/svg11.dtd"><svg t="1526544847759" class="icon" style="" viewBox="0 0 1024 1024" version="1.1" xmlns="http://www.w3.org/2000/svg" p-id="2492" xmlns:xlink="http://www.w3.org/1999/xlink" width="18" height="18"><defs><style type="text/css"></style></defs><path d="M810.368 420.608s65.856 29.056 61.248 179.264l47.488 47.424s50.56-116.352 32.192-216c0 0-1.536-93.504-168.512-217.536 0 0-82.752 9.152-76.608-76.608l-65.856-65.92L520.768 190.72l58.24 58.304s144 6.08 93.504 124.096l-216 217.6-41.472-6.144-246.656 246.656s-16.896 59.712 26.048 96.512c0 0 27.584 33.728 85.824 32.192l242.048-251.264 4.608-41.408 246.656-245.12s13.824-21.44 36.8-1.536z" p-id="2493" fill="#848484"></path><path d="M343.04 448.128l78.144 78.208 105.728-105.728-81.216-81.216C531.52 143.232 284.8 66.624 284.8 66.624c-45.952-12.288-36.736 22.976-36.736 22.976 96.512 79.68 81.216 105.728 81.216 105.728C316.992 287.296 237.312 322.56 237.312 322.56c-79.68 33.664-145.536-78.144-145.536-78.144-26.048-4.608-22.976 24.512-22.976 24.512 64.32 283.456 274.24 179.2 274.24 179.2zM939.456 830.528L696.96 596.8 589.76 704l230.016 244.544s6.464 7.104 13.568 7.104c7.104 0 11.392-4.096 11.392-4.096l96.64-96.64s3.84-3.328 3.84-11.456-5.76-12.928-5.76-12.928z m-59.392 0.832l-13.376 41.088a13.248 13.248 0 0 1-11.84 8.576h-43.136a13.248 13.248 0 0 1-11.84-8.576l-13.312-41.088a13.248 13.248 0 0 1 4.544-13.888l34.88-25.344a13.248 13.248 0 0 1 14.656 0l34.944 25.344a13.184 13.184 0 0 1 4.48 13.888z" p-id="2494" fill="#848484"></path></svg>