<?xml version="1.0" standalone="no"?><!DOCTYPE svg PUBLIC "-//W3C//DTD SVG 1.1//EN" "http://www.w3.org/Graphics/SVG/1.1/DTD/svg11.dtd"><svg class="icon" width="32px" height="31.88px" viewBox="0 0 1028 1024" version="1.1" xmlns="http://www.w3.org/2000/svg"><path fill="#e84c3d" d="M582.92144375 374.0384375h16.365V132.648125a54.6609375 54.6609375 0 1 0-59.2425 0v239.263125c11.9465625 1.145625 27.166875 2.128125 42.8775 2.128125z m403.081875-157.7625c0-6.5465625 4.9096875-29.295-1.145625-29.295-1.30875 0-3.2728125 1.145625-6.0553125 3.928125-7.528125 7.69125-25.8571875 29.1309375-32.7309375 29.1309375a91.6471875 91.6471875 0 0 0-34.366875-6.3834375h-9.001875a201.459375 201.459375 0 0 0-115.7034375 43.86c-34.8590625 30.60375-51.225 73.153125-76.918125 109.321875-24.384375 33.7125-67.753125 44.3503125-110.9578125 46.314375h-16.3659375c-15.05625 0-29.62125-0.8184375-43.040625-1.9640625h-8.67375c-26.8396875-2.4553125-53.3521875-7.85625-80.1909375-10.6378125-9.328125-0.8184375-18.8203125-1.4728125-28.149375-1.4728125a176.0925 176.0925 0 0 0-21.601875 1.145625c-60.061875 6.7096875-118.15875 46.805625-134.851875 106.2121875-5.5640625 16.365-25.6940625 89.191875-26.02125 92.465625-2.7815625 24.7115625-30.275625 31.2571875-47.623125 43.040625a122.578125 122.578125 0 0 0-33.8765625 35.5125c-8.510625 13.584375-13.7475 28.3125-23.4028125 41.405625a85.755 85.755 0 0 1-68.244375 38.6221875 75.609375 75.609375 0 0 1-16.365-1.8H49.24206875a8.5096875 8.5096875 0 0 0-8.5096875 7.3640625l-8.67375 56.296875a5.89125 5.89125 0 0 0 5.728125 6.710625 5.07375 5.07375 0 0 0 2.128125 0c29.62125-11.128125 59.73375-16.3659375 86.08125-35.18625a182.6390625 182.6390625 0 0 0 40.096875-38.78625 339.42 339.42 0 0 1 45.98625-56.95125 174.1284375 174.1284375 0 0 1 66.9346875-35.6775 502.093125 502.093125 0 0 0 49.096875-13.7465625c23.5659375-9.819375 36.3309375-32.7309375 58.588125-44.6775a78.718125 78.718125 0 0 1 38.131875-8.510625 141.0703125 141.0703125 0 0 1 53.188125 11.9465625c21.43875 8.8378125 41.240625 20.4571875 62.188125 30.2765625 5.8921875 2.6184375 11.7834375 5.236875 18.0028125 7.528125a261.8475 261.8475 0 0 0 41.0765625 11.2921875 305.053125 305.053125 0 0 0 56.296875 5.236875 316.3453125 316.3453125 0 0 0 90.3375-13.0921875 16.3659375 16.3659375 0 0 1 4.910625 0 16.3659375 16.3659375 0 0 1 8.67375 2.29125l7.036875 4.254375a98.19375 98.19375 0 0 0 49.096875 13.7475 113.25 113.25 0 0 0 28.475625-3.928125 217.9884375 217.9884375 0 0 1 56.13375-10.636875h2.945625c30.440625 0.9815625 43.5328125 24.875625 45.823125 52.36875 1.8 22.42125 3.7640625 70.3725-19.801875 81.8278125a38.131875 38.131875 0 0 1-17.6746875 3.6 132.3965625 132.3965625 0 0 1-16.3659375-1.471875h-1.30875a9.165 9.165 0 0 0-9.165 9v40.7503125a9.328125 9.328125 0 0 0 9.165 9.328125 9.165 9.165 0 0 0 3.6 0 148.925625 148.925625 0 0 0 67.4259375-47.4590625c18.1659375-25.858125 18.1659375-60.71625 15.2203125-90.82875s-4.4184375-64.153125-22.9125-87.7190625c-15.219375-19.4746875-40.095-18.8203125-61.696875-26.02125a188.53125 188.53125 0 0 0-49.096875-16.365 5.89125 5.89125 0 0 1-4.745625-9.165 163.6546875 163.6546875 0 0 0 21.1115625-75.118125c1.8-18.328125 5.89125-142.051875 35.349375-142.051875h2.454375c11.619375 2.6184375 10.1465625 16.365 10.1465625 26.184375a68.244375 68.244375 0 0 0 13.910625 43.86 26.184375 26.184375 0 0 0 19.9659375 8.836875 30.1125 30.1125 0 0 0 24.22125-12.27375c16.365-23.4028125 6.0553125-59.079375 12.110625-86.083125 2.29125-10.1465625 7.2-18.984375 9.819375-28.966875 4.9096875-18.001875 9.9825-40.095-2.29125-56.4609375a88.209375 88.209375 0 0 1-2.4553125-30.93zM649.69300625 912.9546875h-50.73375V693.6565625a292.288125 292.288125 0 0 1-54.825-14.4009375l-4.4175-1.636875v235.3359375h-50.5696875a39.440625 39.440625 0 0 0 0 78.88125h160.381875a39.440625 39.440625 0 1 0 0-78.88125z"  /></svg>