<?xml version="1.0" encoding="utf-8"?>
<!-- Generator: Adobe Illustrator 17.0.0, SVG Export Plug-In . SVG Version: 6.00 Build 0)  -->
<!DOCTYPE svg PUBLIC "-//W3C//DTD SVG 1.1//EN" "http://www.w3.org/Graphics/SVG/1.1/DTD/svg11.dtd">
<svg version="1.1" id="图层_1" xmlns="http://www.w3.org/2000/svg" xmlns:xlink="http://www.w3.org/1999/xlink" x="0px" y="0px"
	 width="40px" height="40px" viewBox="0 0 40 40" enable-background="new 0 0 40 40" xml:space="preserve">
<circle id="XMLID_37_" fill="#FFFFFF" stroke="#6256D8" stroke-width="1.5" stroke-miterlimit="10" cx="20" cy="20" r="19.208"/>
<path fill="#6256D8" d="M23.048,14.157h-2.835v-2.025c1.215-0.405,2.106-1.62,2.106-2.997c0-1.701-1.377-3.159-3.159-3.159h-0.081
	c-1.701,0-3.159,1.377-3.159,3.159c0,1.377,0.891,2.592,2.106,2.997v2.025h-2.835v1.458h2.997v4.941c0,0-1.053,2.916-3.321,2.835
	c-2.268-0.081-4.698-2.106-4.698-2.106l0.81-0.081l-2.025-2.43L8.307,21.69l0.891-0.162c0,0,1.701,2.997,4.293,4.131
	c2.592,1.215,5.184,2.592,5.67,2.673c0.162,0,0.486-0.162,0.891-0.324V15.615h2.997C23.048,15.615,23.048,14.157,23.048,14.157z
	 M19.16,10.917c-0.972,0-1.782-0.729-1.782-1.701s0.729-1.701,1.701-1.701h0.081c0.972,0,1.701,0.729,1.701,1.701
	S20.132,10.917,19.16,10.917z"/>
<path fill="#6256D8" d="M29.69,18.774c-0.891-0.729-2.187-1.053-3.969-1.053h-4.779v14.255h2.268v-5.265h2.187
	c1.62,0,2.916-0.405,3.969-1.215c1.053-0.891,1.539-1.944,1.539-3.402C30.986,20.556,30.581,19.503,29.69,18.774z M25.721,25.092
	h-2.43v-5.913h1.944c1.458,0,2.268,0.405,2.754,1.053c0.405,0.567,0.567,1.215,0.567,1.863v0.162
	C28.475,23.553,27.908,24.93,25.721,25.092z"/>
</svg>
