<?xml version="1.0" standalone="no"?><!DOCTYPE svg PUBLIC "-//W3C//DTD SVG 1.1//EN"
    "http://www.w3.org/Graphics/SVG/1.1/DTD/svg11.dtd">
<svg class="icon" width="32px" height="32.00px" viewBox="0 0 1024 1024" version="1.1"
     xmlns="http://www.w3.org/2000/svg">
    <path fill="#f39943"
          d="M854.436 145.645v108.394c0 14.684-11.537 26.224-26.224 26.224s-26.224-11.54-26.224-26.224V145.645c0-14.687 11.537-26.224 26.224-26.224s26.224 11.537 26.224 26.224z m-632.878 0v108.394c0 14.684-11.537 26.224-26.224 26.224s-26.224-11.54-26.224-26.224V145.645c0-14.687 11.537-26.224 26.224-26.224s26.224 11.537 26.224 26.224zM959.333 145.645c0 14.684-11.537 26.224-26.224 26.224H90.436c-14.687 0-26.224-11.54-26.224-26.224 0-14.687 11.537-26.224 26.224-26.224h842.673c14.687 0 26.224 11.537 26.224 26.224zM398.209 435.834l539.736 461.547-272.667 4.839-324.76-400.102zM636.344 435.834L96.609 897.381l272.667 4.839 324.76-400.102zM462.674 372.896l-111.19-111.191c-49.826-49.826-135.843-49.826-185.669 0-50.873 51.4-50.873 134.268 0 185.141 40.387 40.387 71.332 71.33 111.191 111.715 5.247 4.722 11.54 7.343 18.883 7.343 6.818 0 13.633-2.622 18.355-7.343l73.951-74.475 74.479-73.954a26.923 26.923 0 0 0 0-37.236zM867.203 261.705c-49.826-49.826-135.843-49.826-185.669 0L570.342 372.896a26.928 26.928 0 0 0 0 37.237l74.479 73.954 73.951 74.475c9.965 9.965 26.749 9.965 37.24 0 39.857-40.387 70.804-71.33 111.191-111.715 50.873-50.874 50.873-133.743 0-185.142z"/>
</svg>
