<svg xmlns="http://www.w3.org/2000/svg" xmlns:xlink="http://www.w3.org/1999/xlink" preserveAspectRatio="xMidYMid" width="88" height="35" viewBox="0 0 88 35">
  <defs>
    <style>
      .cls-1 {
        filter: url(#filter-chain-1);
      }

      .cls-2 {
        fill: #fcffff;
      }

      .cls-2, .cls-4 {
        fill-rule: evenodd;
      }

      .cls-3 {
        filter: url(#color-overlay-1);
      }

      .cls-4 {
        fill: #a8a8a8;
      }

      .cls-5, .cls-6 {
        font-size: 16.7301px;
      }

      .cls-6 {
        fill: #fefefe;
        font-family: "PingFang-SC-Heavy";
      }
    </style>

    <filter id="filter-chain-1" filterUnits="userSpaceOnUse">
      <feOffset dy="1" in="SourceAlpha"/>
      <feGaussianBlur stdDeviation="1" result="dropBlur"/>
      <feFlood flood-opacity="0.3"/>
      <feComposite operator="in" in2="dropBlur" result="dropShadowComp"/>
      <feComposite in="SourceGraphic" result="shadowed"/>
      <feFlood flood-color="#80cbc4"/>
      <feComposite operator="in" in2="SourceGraphic"/>
      <feBlend in2="shadowed" result="solidFill"/>
    </filter>
    <filter id="color-overlay-1" filterUnits="userSpaceOnUse">
      <feFlood flood-color="#fff"/>
      <feComposite operator="in" in2="SourceGraphic"/>
      <feBlend in2="SourceGraphic" result="solidFill"/>
    </filter>
  </defs>
  <g class="cls-1">
    <path d="M39.068,13.781 C37.845,13.089 36.433,12.687 34.923,12.687 C33.581,12.687 32.317,13.007 31.193,13.563 C31.478,12.731 31.639,11.843 31.639,10.917 C31.639,6.354 27.897,2.655 23.282,2.655 C18.666,2.655 14.924,6.354 14.924,10.917 C14.924,11.248 14.950,11.574 14.988,11.895 C13.813,11.272 12.471,10.917 11.044,10.917 C6.428,10.917 2.686,14.615 2.686,19.178 C2.686,23.741 6.428,27.439 11.044,27.439 C11.526,27.439 11.996,27.390 12.456,27.313 L12.456,27.563 L18.109,27.563 C16.195,29.158 13.731,30.125 11.032,30.125 C4.939,30.125 0.000,25.228 0.000,19.188 C0.000,13.147 4.939,8.250 11.032,8.250 C11.549,8.250 12.053,8.297 12.551,8.366 C13.712,3.570 18.071,-0.000 23.285,-0.000 C29.099,-0.000 33.853,4.435 34.290,10.063 C34.503,10.051 34.713,10.031 34.928,10.031 C38.250,10.031 41.222,11.487 43.247,13.781 L39.068,13.781 Z" class="cls-2"/>
    <g class="cls-3">
      <path d="M17.533,25.281 L16.588,25.281 L16.588,23.031 L17.373,23.031 C18.582,23.031 19.561,22.052 19.561,20.844 C19.561,19.636 18.582,18.656 17.373,18.656 L16.024,18.656 L16.024,23.031 L16.024,25.281 L13.614,25.281 L13.614,17.560 C13.615,17.560 13.615,17.560 13.615,17.560 C13.617,16.963 14.145,16.483 14.800,16.472 C14.800,16.466 14.804,16.460 14.804,16.453 C14.804,16.445 14.799,16.439 14.799,16.431 L16.000,16.431 L16.000,16.469 L16.024,16.469 L17.533,16.469 C19.967,16.469 21.940,18.441 21.940,20.875 C21.940,23.309 19.967,25.281 17.533,25.281 Z" class="cls-4"/>
      <path d="M39.630,20.094 C39.366,19.124 38.466,18.406 37.385,18.406 C36.304,18.406 35.404,19.124 35.139,20.094 L32.767,20.094 C33.066,17.840 35.008,16.094 37.385,16.094 C39.762,16.094 41.703,17.840 42.003,20.094 L39.630,20.094 ZM35.139,21.250 C35.404,22.219 36.304,22.938 37.385,22.938 C38.466,22.938 39.366,22.219 39.630,21.250 L42.006,21.250 C41.721,23.519 39.773,25.281 37.385,25.281 C34.997,25.281 33.049,23.519 32.764,21.250 L35.139,21.250 Z" class="cls-4"/>
      <path d="M66.953,20.094 C66.687,19.124 65.780,18.406 64.692,18.406 C63.604,18.406 62.698,19.124 62.432,20.094 L60.058,20.094 C60.357,17.840 62.292,16.094 64.661,16.094 C67.030,16.094 68.965,17.840 69.263,20.094 L66.953,20.094 ZM62.432,21.250 C62.698,22.219 63.604,22.938 64.692,22.938 C65.780,22.938 66.687,22.219 66.953,21.250 L69.267,21.250 C68.982,23.519 67.041,25.281 64.661,25.281 C62.281,25.281 60.340,23.519 60.055,21.250 L62.432,21.250 Z" class="cls-4"/>
      <path d="M77.117,25.281 L74.645,25.281 L74.645,19.041 C74.645,18.691 74.360,18.406 74.010,18.406 L73.997,18.406 C73.646,18.406 73.361,18.691 73.361,19.041 L73.361,25.281 L70.889,25.281 L70.889,18.969 L70.891,18.969 C70.891,18.963 70.889,18.958 70.889,18.953 C70.889,17.374 72.283,16.094 74.003,16.094 C75.723,16.094 77.117,17.374 77.117,18.953 C77.117,18.958 77.116,18.963 77.115,18.969 L77.117,18.969 L77.117,25.281 Z" class="cls-4"/>
      <path d="M83.092,22.938 L84.128,22.938 L84.128,25.281 L82.682,25.281 C80.473,25.281 78.682,23.490 78.682,21.281 L78.682,20.094 C78.682,17.885 80.473,16.094 82.682,16.094 L84.128,16.094 L84.128,18.406 L83.092,18.406 C82.303,18.406 81.627,18.867 81.302,19.531 L84.128,19.531 L84.128,21.813 L81.302,21.813 C81.627,22.476 82.303,22.938 83.092,22.938 Z" class="cls-4"/>
      <path d="M57.365,22.938 L58.433,22.938 L58.433,25.281 L56.987,25.281 C54.778,25.281 52.987,23.490 52.987,21.281 L52.987,20.094 C52.987,17.885 54.778,16.094 56.987,16.094 L58.433,16.094 L58.433,18.406 L57.365,18.406 C56.576,18.406 55.900,18.867 55.575,19.531 L58.433,19.531 L58.433,21.813 L55.575,21.813 C55.900,22.476 56.576,22.938 57.365,22.938 Z" class="cls-4"/>
      <path d="M29.901,21.489 L31.157,25.262 L28.096,25.262 L27.359,21.937 L26.853,21.937 L26.853,19.750 L26.874,19.750 L26.872,19.743 L28.189,19.743 C28.473,19.723 28.700,19.492 28.700,19.203 C28.700,18.901 28.455,18.656 28.153,18.656 L26.806,18.656 C26.503,18.656 26.259,18.901 26.259,19.203 C26.259,19.209 26.262,19.213 26.262,19.219 L26.259,19.219 L26.259,21.937 L26.259,23.031 L26.259,25.281 L23.817,25.281 L23.817,21.937 L23.817,17.557 C23.818,17.557 23.818,17.556 23.819,17.556 C23.823,16.977 24.331,16.515 24.969,16.481 C24.969,16.477 24.972,16.473 24.972,16.469 L26.259,16.469 L28.407,16.469 C29.917,16.469 31.141,17.693 31.141,19.203 C31.141,20.161 30.647,21.001 29.901,21.489 Z" class="cls-4"/>
      <path d="M50.148,21.490 L51.399,25.262 L48.348,25.262 L47.613,21.937 L47.134,21.937 L47.134,19.774 L47.127,19.743 L48.439,19.743 C48.723,19.723 48.949,19.492 48.949,19.203 C48.949,18.901 48.705,18.656 48.403,18.656 L47.086,18.656 C46.784,18.656 46.539,18.901 46.539,19.203 C46.539,19.209 46.542,19.213 46.543,19.219 L46.539,19.219 L46.539,21.937 L46.539,23.031 L46.539,25.281 L44.098,25.281 L44.098,21.937 L44.098,17.560 C44.099,17.560 44.099,17.560 44.099,17.560 C44.101,16.958 44.644,16.471 45.315,16.469 C45.315,16.469 45.315,16.469 45.315,16.469 L46.539,16.469 L48.656,16.469 C50.166,16.469 51.391,17.693 51.391,19.203 C51.391,20.162 50.895,21.002 50.148,21.490 Z" class="cls-4"/>
    </g>
    <text transform="translate(46 13) scale(0.56 0.55)" class="cls-5"><tspan class="cls-6">智慧旅游</tspan></text>
  </g>
</svg>
