<?xml version="1.0" standalone="no"?><!DOCTYPE svg PUBLIC "-//W3C//DTD SVG 1.1//EN" "http://www.w3.org/Graphics/SVG/1.1/DTD/svg11.dtd"><svg class="icon" width="32px" height="32.00px" viewBox="0 0 1024 1024" version="1.1" xmlns="http://www.w3.org/2000/svg"><path fill="#848484" d="M748.749 816.538H527.36c-10.24 0-18.432-8.397-18.432-18.432V379.085c0-10.035 8.397-18.432 18.432-18.432h221.389c10.035 0 18.432 8.397 18.432 18.432V797.9c0 10.24-8.192 18.637-18.432 18.637z m-268.903 0H258.253c-10.035 0-18.432-8.397-18.432-18.432V379.085c0-10.035 8.397-18.432 18.432-18.432h221.389c10.24 0 18.432 8.397 18.432 18.432V797.9c0.204 10.24-8.192 18.637-18.228 18.637zM184.934 909.312H53.658c-12.903 0-23.552-10.65-23.552-23.552V120.832c0-12.902 10.65-23.552 23.552-23.552h131.276c12.903 0 23.552 10.65 23.552 23.552V885.76c0 12.902-10.65 23.552-23.552 23.552zM53.658 107.52a13.285 13.285 0 0 0-13.312 13.312V885.76c0 7.373 5.939 13.312 13.312 13.312h131.276c7.373 0 13.312-5.94 13.312-13.312V120.832c0-7.373-5.939-13.312-13.312-13.312H53.658z"  /><path fill="#848484" d="M157.9 211.968H83.15a4.108 4.108 0 0 1-4.096-4.096v-30.72a4.108 4.108 0 0 1 4.096-4.096H157.9a4.108 4.108 0 0 1 4.096 4.096v30.72a4.108 4.108 0 0 1-4.096 4.096z m0 58.573H83.15a4.108 4.108 0 0 1-4.096-4.096v-30.72a4.108 4.108 0 0 1 4.096-4.096H157.9a4.108 4.108 0 0 1 4.096 4.096v30.72a4.108 4.108 0 0 1-4.096 4.096zM83.968 643.482a36.454 36.454 0 1 0 72.909 0 36.454 36.454 0 1 0-72.909 0zM83.968 740.966a36.454 36.454 0 1 0 72.909 0 36.454 36.454 0 1 0-72.909 0zM954.982 909.312H823.706c-12.903 0-23.552-10.65-23.552-23.552V120.832c0-12.902 10.65-23.552 23.552-23.552h131.276c12.903 0 23.552 10.65 23.552 23.552V885.76c0 12.902-10.444 23.552-23.552 23.552zM823.706 107.52a13.285 13.285 0 0 0-13.312 13.312V885.76c0 7.373 5.939 13.312 13.312 13.312h131.276c7.373 0 13.312-5.94 13.312-13.312V120.832c0-7.373-5.939-13.312-13.312-13.312H823.706z"  /><path fill="#848484" d="M927.949 211.968h-74.752a4.108 4.108 0 0 1-4.096-4.096v-30.72a4.108 4.108 0 0 1 4.096-4.096h74.752a4.108 4.108 0 0 1 4.096 4.096v30.72a4.108 4.108 0 0 1-4.096 4.096z m0 58.573h-74.752a4.108 4.108 0 0 1-4.096-4.096v-30.72a4.108 4.108 0 0 1 4.096-4.096h74.752a4.108 4.108 0 0 1 4.096 4.096v30.72a4.108 4.108 0 0 1-4.096 4.096zM854.221 643.482a36.454 36.454 0 1 0 72.909 0 36.454 36.454 0 1 0-72.91 0zM854.221 740.966a36.454 36.454 0 1 0 72.909 0 36.454 36.454 0 1 0-72.91 0zM456.5 824.115H227.941c-16.384 0-29.696-13.312-29.696-29.696V356.147c0-16.384 13.312-29.696 29.696-29.696h228.762c16.384 0 29.696 13.312 29.696 29.696V794.42c-0.205 16.18-13.517 29.696-29.9 29.696zM227.941 336.691c-10.65 0-19.456 8.807-19.456 19.456V794.42c0 10.65 8.807 19.456 19.456 19.456h228.762c10.65 0 19.456-8.806 19.456-19.456V356.147c0-10.65-8.806-19.456-19.456-19.456H227.942zM779.47 819.2H550.707c-16.384 0-29.696-13.312-29.696-29.696V351.232c0-16.384 13.312-29.696 29.696-29.696H779.47c16.384 0 29.696 13.312 29.696 29.696v438.272c0 16.384-13.312 29.696-29.696 29.696zM550.707 331.776c-10.65 0-19.456 8.806-19.456 19.456v438.272c0 10.65 8.807 19.456 19.456 19.456H779.47c10.65 0 19.456-8.806 19.456-19.456V351.232c0-10.65-8.807-19.456-19.456-19.456H550.707z"  /></svg>