<?xml version="1.0" standalone="no"?><!DOCTYPE svg PUBLIC "-//W3C//DTD SVG 1.1//EN"
    "http://www.w3.org/Graphics/SVG/1.1/DTD/svg11.dtd">
<svg t="1526368586090" class="icon" style="" viewBox="0 0 1024 1024" version="1.1" xmlns="http://www.w3.org/2000/svg"
     p-id="3330" xmlns:xlink="http://www.w3.org/1999/xlink" width="32" height="32">
    <defs>
        <style type="text/css"></style>
    </defs>
    <path
        d="M933.248 355.541c-5.333-28.842-42.197-39.552-62.933-18.773L694.1 512.427a65.067 65.067 0 0 1-91.093 0l-90.453-90.539a63.147 63.147 0 0 1 0-90.496L690.09 154.411C710.869 133.589 700.8 96.725 672 91.349a328.107 328.107 0 0 0-295.424 90.539c-89.088 87.765-116.565 214.485-82.39 327.125 5.334 18.134 2.006 38.23-11.391 51.627L103.936 738.987c-24.79 24.832-24.79 65.706 0 90.538l91.093 90.454a65.067 65.067 0 0 0 91.094 0l180.224-179.627c13.397-13.44 32.853-17.45 51.584-12.075a328.107 328.107 0 0 0 325.546-83.157 325.973 325.973 0 0 0 89.771-289.621"
        p-id="3331" fill="#666"></path>
</svg>
