<?xml version="1.0" standalone="no"?><!DOCTYPE svg PUBLIC "-//W3C//DTD SVG 1.1//EN"
    "http://www.w3.org/Graphics/SVG/1.1/DTD/svg11.dtd">
<svg t="1527041789509" class="icon" style="" viewBox="0 0 1024 1024" version="1.1" xmlns="http://www.w3.org/2000/svg"
     p-id="1857" xmlns:xlink="http://www.w3.org/1999/xlink" width="24" height="24">
    <defs>
        <style type="text/css"></style>
    </defs>
    <path
        d="M511.104095 349.074304c-235.598856 0-382.789173 272.256754-382.789173 272.256754S274.116613 893.556089 511.104095 893.556089c221.666542 0 389.917524-272.225031 389.917524-272.225031S734.158241 349.074304 511.104095 349.074304zM514.655991 768.255315c-81.123622 0-146.923234-65.827241-146.923234-146.950863 0-81.149205 65.799612-146.9437 146.923234-146.9437 81.149205 0 146.94984 65.794495 146.94984 146.9437C661.604808 702.428074 595.804173 768.255315 514.655991 768.255315z"
        p-id="1858"  fill="#808080"></path>
    <path
        d="M514.655991 700.813297c-43.88551 0-79.495542-35.610032-79.495542-79.507822 0-43.912116 35.610032-79.494519 79.495542-79.494519 43.911092 0 79.505775 35.58138 79.505775 79.494519C594.161766 665.203264 558.567084 700.813297 514.655991 700.813297z"
        p-id="1859" fill="#808080"></path>
    <path d="M472.532615 130.443911l84.273359 0 0 184.508247-84.273359 0 0-184.508247Z" p-id="1860" fill="#808080"></path>
    <path d="M254.36271 394.273738 194.768427 453.860858 64.303027 323.401598 123.896286 263.807315Z"
          p-id="1861" fill="#808080"></path>
    <path d="M769.63422 414.773631 829.229526 474.360751 959.69595 343.902514 900.101667 284.308231Z"
          p-id="1862" fill="#808080"></path>
</svg>
