<?xml version="1.0" standalone="no"?><!DOCTYPE svg PUBLIC "-//W3C//DTD SVG 1.1//EN"
    "http://www.w3.org/Graphics/SVG/1.1/DTD/svg11.dtd">
<svg t="1526368566868" class="icon" style="" viewBox="0 0 1025 1024" version="1.1" xmlns="http://www.w3.org/2000/svg"
     p-id="3081" xmlns:xlink="http://www.w3.org/1999/xlink" width="32.03125" height="32">
    <defs>
        <style type="text/css"></style>
    </defs>
    <path
        d="M816.79857 995.239l-154.21-154.53a443.25 443.25 0 0 1-213.885 54.75 447.726 447.726 0 1 1 393.743-236.335l154.85 155.233a95.941 95.941 0 0 1 0 135.661l-45.157 45.22a95.558 95.558 0 0 1-135.405 0z m-686.876-547.57a319.1 319.1 0 1 0 319.164-319.804 319.805 319.805 0 0 0-319.164 319.804z m255.331 127.922v-63.96h-63.96a63.96 63.96 0 1 1 0-127.923h63.96v-63.96a63.96 63.96 0 0 1 127.922 0v63.96h63.961a63.96 63.96 0 1 1 0 127.922h-63.96v63.961a63.96 63.96 0 1 1-127.923 0z"
        p-id="3082" fill="#666"></path>
</svg>
