<svg xmlns="http://www.w3.org/2000/svg" xmlns:xlink="http://www.w3.org/1999/xlink" preserveAspectRatio="xMidYMid"
     width="17.969" height="17.969" viewBox="0 0 17.969 17.969">
    <defs>
        <style>
            .cls-1 {
            fill: #848484;
            fill-rule: evenodd;
            }
        </style>
    </defs>
    <path
        d="M16.169,16.169 C11.369,18.569 6.569,18.569 1.769,16.169 C-0.631,11.369 -0.631,6.569 1.769,1.769 C6.569,-0.631 11.369,-0.631 16.169,1.769 C18.569,6.569 18.569,11.369 16.169,16.169 ZM14.567,3.347 C10.827,1.477 7.087,1.477 3.347,3.347 C1.477,7.087 1.477,10.827 3.347,14.567 C7.087,16.436 10.827,16.436 14.567,14.567 C16.436,10.827 16.436,7.087 14.567,3.347 ZM6.969,5.965 L12.969,9.469 L6.969,12.973 L6.969,5.965 Z"
        class="cls-1" fill="#848484"/>
</svg>
