<?xml version="1.0" standalone="no"?><!DOCTYPE svg PUBLIC "-//W3C//DTD SVG 1.1//EN" "http://www.w3.org/Graphics/SVG/1.1/DTD/svg11.dtd"><svg class="icon" width="24px" height="21.01px" viewBox="0 0 1170 1024" version="1.1" xmlns="http://www.w3.org/2000/svg"><path fill="#808080" d="M190.5622499 962a128.5622455 128.5622455 0 0 1-128.5622455-128.5622455v-642.81122755a128.5622455 128.5622455 0 0 1 128.5622455-128.5622455h257.12449102a127.85515312 127.85515312 0 0 1 106.83522598 64.28112275l64.28112274 96.42168369a67.2380543 67.2380543 0 0 0 53.54617589 32.14056182H1090.49796934v-64.28112276h-411.39918633l-38.56867383-64.28112275h385.6867374a64.28112276 64.28112276 0 0 1 64.28112276 64.28112275v642.81122755a128.5622455 128.5622455 0 0 1-128.56224551 128.5622455z m0-707.09235029v514.24898203a64.28112276 64.28112276 0 0 0 64.28112276 64.28112275h642.81122841a64.28112276 64.28112276 0 0 0 64.28112276-64.28112275v-385.68673653h-321.40561465a128.5622455 128.5622455 0 0 1-107.15663145-64.28112275l-64.28112275-96.42168457a65.63102607 65.63102607 0 0 0-53.546175-32.14056094h-160.70280732a64.28112276 64.28112276 0 0 0-64.28112276 64.28112276z m438.26869512 512.64195381a32.14056182 32.14056182 0 0 1 0-45.44675333l81.44418251-81.50846396h-372.31626269a32.14056182 32.14056182 0 0 1-32.14056181-32.14056182 32.14056182 32.14056182 0 0 1 32.14056181-32.14056094h372.31626269l-81.44418251-81.44418251a32.14056182 32.14056182 0 0 1 0-45.44675421 32.14056182 32.14056182 0 0 1 45.4467542 0l135.82601191 135.76173135a32.14056182 32.14056182 0 0 1 9.96357481 23.33404776 31.69059346 31.69059346 0 0 1-4.04971084 15.62031299l-0.32140635 0.51424892a2.50696406 2.50696406 0 0 0 0 0.38568692v0.32140547l-0.32140547 0.51424892a30.4049707 30.4049707 0 0 1-3.92114795 4.82108379l-136.34026171 136.34026172a32.14056182 32.14056182 0 0 1-22.75551739 9.38504356 32.14056182 32.14056182 0 0 1-23.59117178-8.87079463z"  /></svg>