<?xml version="1.0" standalone="no"?><!DOCTYPE svg PUBLIC "-//W3C//DTD SVG 1.1//EN"
    "http://www.w3.org/Graphics/SVG/1.1/DTD/svg11.dtd">
<svg class="icon" width="32px" height="32.00px" viewBox="0 0 1024 1024" version="1.1"
     xmlns="http://www.w3.org/2000/svg">
    <path fill="#848484"
          d="M407.48373333 134.07573333a1.5616 1.5616 0 1 0 199.8848 0 1.5616 1.5616 0 1 0-199.8848 0z m167.04853334 144.1792h-130.048c-43.89546667 0-83.3536 15.9744-111.4112 41.50613334V577.536h97.75786666l21.02613334 302.76266667H571.392l20.34346667-302.76266667h99.19146666V324.608c-28.2624-28.33066667-69.8368-46.35306667-116.39466666-46.35306667z m89.22453333 418.67946667v52.70186667c110.7968 16.384 186.91413333 50.3808 186.91413333 89.63413333 0 55.5008-151.62026667 100.352-338.60266666 100.352s-338.67093333-44.8512-338.67093334-100.352c0-39.38986667 76.66346667-73.45493333 188.2112-89.9072v-52.6336C176.40106667 716.8 43.008 772.98346667 43.008 839.2704 42.87146667 922.4192 252.99626667 989.86666667 512 989.86666667s469.06026667-67.44746667 469.06026667-150.528c0-66.1504-132.77866667-122.12906667-317.30346667-142.40426667z"/>
</svg>
