<?xml version="1.0" standalone="no"?><!DOCTYPE svg PUBLIC "-//W3C//DTD SVG 1.1//EN" "http://www.w3.org/Graphics/SVG/1.1/DTD/svg11.dtd"><svg class="icon" width="32px" height="32.00px" viewBox="0 0 1024 1024" version="1.1" xmlns="http://www.w3.org/2000/svg"><path fill="#848484" d="M930.44462891 820.52861328c-27.09052734-24.08027344-54.18105469-69.23144531-192.6421875-90.30146484-138.46201172-21.07001953-114.38085938-90.30058594-117.39111329-96.32109375 0-12.04013673 6.02050781-57.19042969 6.02050782-57.19042969 30.09990234-27.09052734 51.16992188-60.20068359 66.2203125-96.32109375 33.11015625-21.07001953 45.14941406-24.08027344 51.16992187-48.16054687 0 0 12.04101563-93.31083984-24.08027344-93.31083985 0 0-15.04951172 3.01025391-9.02988281-18.06064453 3.01025391-39.12978516 3.01025391-75.25019531 0-111.37060547-3.01025391-24.08027344 3.01025391-93.31171875-45.15029297-102.34160156-18.06064453-3.01025391-36.12041015-3.01025391-54.18105468 0C590.31054688 107.15029297 569.24052734 62 539.140625 62l-66.2203125 9.02988281c-30.10078125 0-27.09052734 9.02988281-42.14091797 12.04101563-15.04951172 0-33.11015625 3.009375-48.16054687 6.0196289-48.16054688 12.04013673-66.2203125 78.26044922-69.23056641 102.34072265-3.01025391 21.07001953-3.01025391 90.30146484-3.01025391 126.42187501 6.02050781 21.07001953-12.04013673 21.07001953-12.04013672 21.07001953-30.09990234-3.01025391-18.05976563 93.31083984-18.05976562 93.31083985 6.02050781 21.07001953 0 33.11015625 45.15029297 51.16992187 15.05039063 39.13154297 42.14091797 69.23144531 75.25107422 90.30146484 0 0 3.01025391 39.13066406 3.0102539 66.22119141-3.01025391-3.01025391 15.04951172 69.23144531-123.41162109 90.30058594C141.81611328 751.29804688 114.72558594 796.44921875 87.63505859 820.52861328 60.54453125 847.61914063 63.55478516 962 63.55478516 962h896.98974609s-3.009375-114.38085938-30.09990234-141.47138672z m0 0" /></svg>