<?xml version="1.0" standalone="no"?><!DOCTYPE svg PUBLIC "-//W3C//DTD SVG 1.1//EN"
    "http://www.w3.org/Graphics/SVG/1.1/DTD/svg11.dtd">
<svg class="icon" width="32px" height="32.00px" viewBox="0 0 1024 1024" version="1.1"
     xmlns="http://www.w3.org/2000/svg">
    <path fill="#53b6a7"
          d="M302.082 132.73c-242.198 390.78 11.87 641.564 171.541 826.558 118.59-433.291-215.507-570.486-171.541-826.558zM842.32 564.122c8.616 275.714-198.637 329.805-337.104 378.028 68.367-260.72 283.126-231.781 337.104-378.028zM598.396 66.317c5.743 183.809-132.425 219.871-224.735 252.02 45.577-173.813 188.752-154.521 224.735-252.02z m88.218 89.185c6.464 206.784-148.976 247.353-252.826 283.522 51.276-195.542 212.344-173.836 252.826-283.522z m84.63 100.134c7.181 229.762-165.531 274.837-280.918 315.024 56.97-217.266 235.937-193.151 280.919-315.024z m59.296 134.965c7.897 252.738-182.085 302.324-309.011 346.526 62.67-238.993 259.532-212.465 309.011-346.526z"/>
</svg>
