<?xml version="1.0" standalone="no"?><!DOCTYPE svg PUBLIC "-//W3C//DTD SVG 1.1//EN" "http://www.w3.org/Graphics/SVG/1.1/DTD/svg11.dtd"><svg t="1525425809096" class="icon" style="" viewBox="0 0 1024 1024" version="1.1" xmlns="http://www.w3.org/2000/svg" p-id="821" xmlns:xlink="http://www.w3.org/1999/xlink" width="32" height="32"><defs><style type="text/css"></style></defs><path d="M216.4736 533.79640889c16.88348445 0 30.44465778-13.70112 30.44465778-30.58346667V105.21031111c0-16.88462222-13.56231111-30.58346667-30.44465778-30.58346666S186.02666667 88.32568889 186.02666667 105.21031111v398.00263111c0 16.88234667 13.70112 30.58346667 30.44579555 30.58346667z m0 35.15050666c-67.94808889 0-123.30325333 55.35402667-123.30325333 123.44092445 0 57.56928 39.57873778 106.14328889 92.85745778 119.7056v104.62094222c0 16.88348445 13.70112 30.58346667 30.44579555 30.58346667s30.44465778-13.69998222 30.44465778-30.58346667v-104.62094222c53.27985778-13.56231111 92.85859555-62.13632 92.85859555-119.7056 0-68.08689778-55.21635555-123.44092445-123.30325333-123.44092445z m1.93763555 185.85372445H214.81244445c-33.48935111-0.96824889-60.47516445-28.50702222-60.47516445-62.27399111 0-34.45873778 27.9552-62.4128 62.27512889-62.4128s62.27399111 27.9552 62.27399111 62.4128c0 33.76696889-26.98581333 61.30574222-60.47516445 62.27399111zM820.25813333 431.80487111c16.88348445 0 30.44579555-13.70112 30.44579556-30.58346666V105.21031111c0-16.88462222-13.70112-30.58346667-30.44579556-30.58346666-16.88348445 0-30.44465778 13.69884445-30.44465778 30.58346666v296.14876444c-0.13880889 16.74467555 13.56231111 30.44579555 30.44465778 30.44579556z m-271.37820444-219.06773333v-104.62094223c0-16.88348445-13.69998222-30.58346667-30.44465778-30.58346666-16.88348445 0-30.44579555 13.69998222-30.44579556 30.58346666v104.62094223c-53.27872 13.69998222-92.85745778 62.13632-92.85745777 119.7056 0 68.08576 55.35516445 123.57973333 123.30325333 123.57973333s123.30325333-55.49397333 123.30325334-123.57973333c-0.13880889-57.56928-39.57873778-106.00561778-92.85859556-119.7056z m-30.58346667 182.1184c-34.31992889 0-62.27399111-27.9552-62.27399111-62.4128 0-33.76696889 26.98581333-61.30574222 60.47516444-62.27512889h3.59765334c33.49048889 0.96938667 60.47516445 28.50816 60.47516444 62.27512889 0 34.4576-27.81525333 62.4128-62.27399111 62.4128z" fill="#848484" p-id="822"></path><path d="M615.85976889 954.77077333c-132.85148445 0-240.65592889-107.80444445-240.65592889-240.65592888s107.80444445-240.65592889 240.65592889-240.6559289 240.65592889 107.80444445 240.65592889 240.6559289-107.80444445 240.65592889-240.65592889 240.65592888z m0-427.47904c-103.23740445 0-186.82311111 83.58570667-186.82311111 186.82311112s83.58570667 186.82311111 186.82311111 186.8231111 186.82311111-83.58570667 186.82311111-186.8231111-83.72451555-186.82311111-186.82311111-186.82311112z m123.30325333 247.15946667c-3.32117333 7.05877333-11.76234667 10.10346667-18.82112 6.78115555l-113.06211555-37.77877333c-5.39761778-2.49173333-8.44231111-8.02702222-8.16469334-13.70112-0.13880889-0.55296-0.27648-1.10705778-0.27648-1.66115555V571.99160889c0-7.88707555 6.36586667-14.25294222 14.25294222-14.25294222s14.25408 6.36586667 14.25408 14.25294222v148.35143111l105.17504 35.15050667c6.91882667 3.45998222 9.96352 11.90115555 6.64234667 18.95992888z" fill="#848484" p-id="823"></path></svg>