<?xml version="1.0" standalone="no"?><!DOCTYPE svg PUBLIC "-//W3C//DTD SVG 1.1//EN" "http://www.w3.org/Graphics/SVG/1.1/DTD/svg11.dtd"><svg class="icon" width="32px" height="32.00px" viewBox="0 0 1024 1024" version="1.1" xmlns="http://www.w3.org/2000/svg"><path fill="#e84c3d" d="M955.31574482 252.48439883a57.81431602 57.81431602 0 0 0-48.14021777-31.10002383 31.94377207 31.94377207 0 0 0-23.05805098 9.33571934C867.52552344 247.70403916 719.16650088 397.75055732 711.74415518 405.39878193a44.87860459 44.87860459 0 0 1-21.20268429 10.91071583 3.20536318 3.20536318 0 0 1-3.09374297-1.57499562c-6.74822637-8.94197109 2.13749472-19.00893955 4.10624034-21.14643427l0.39374912-0.56249912c6.29910615-7.08572549 154.26437959-173.66618935 166.58046387-188.17601836a33.29288965 33.29288965 0 0 0 3.26161406-35.88038349 43.3036081 43.3036081 0 0 0-37.34288086-26.76966328 36.16163261 36.16163261 0 0 0-25.64466504 11.2473369c-13.15983164 12.7669623-159.8322375 161.8009831-168.71795947 170.7429542a50.89734053 50.89734053 0 0 1-24.18304834 13.10358252 3.26161318 3.26161318 0 0 1-2.81161407-1.01249823c-5.90535703-6.18660615 4.04911143-23.1705501 8.66072198-29.24465714 18.67144043-19.57055888 161.8001042-170.74207529 171.64207266-184.01440693a35.03663526 35.03663526 0 0 0 0.56249912-35.6553835 39.31162558 39.31162558 0 0 0-62.70629678-15.57857636 1442.1991166 1442.1991166 0 0 0-211.17869824 216.68942724l-3.93749033 8.04197286a91.66970391 91.66970391 0 0 0-13.27145274 69.17503095 121.92685927 121.92685927 0 0 0 37.68037911 55.28307217l-30.81965362 32.67502032c-51.45895987-52.47057832-277.54035732-283.10821523-297.73054336-303.91627149-35.43038437-36.89375977-64.11254326-54.89020195-87.17059424-54.89020195-36.49913174 0-46.5661002 41.27949229-46.84734931 64.05629326a301.38590567 301.38590567 0 0 0 5.17410879 107.69828027 608.28342012 608.28342012 0 0 0 100.555425 137.05543652c23.95892724 26.43216416 48.19734668 51.23396074 68.10628447 69.7929003 31.55002295 29.24377822 43.64110723 35.03663526 50.61521162 36.72413174a178.67242793 178.67242793 0 0 0 41.27949141 3.93661142 447.04581416 447.04581416 0 0 0 47.80359756-2.81249296l24.80091767 27.38929042C352.31893349 590.08906602 115.94468955 815.27046523 99.0732456 833.04190742a86.60809512 86.60809512 0 0 0-18.39019042 64.78842041 62.9875459 62.9875459 0 0 0 23.17055009 46.90272129 97.68756094 97.68756094 0 0 0 56.07057041 17.15357197 69.96165029 69.96165029 0 0 0 52.75182744-20.13393603L500.00295781 629.4560627C594.93515469 738.44808945 760.39062119 928.93035166 769.95134141 940.85356573a64.56254238 64.56254238 0 0 0 50.3348414 19.74018779 82.22148457 82.22148457 0 0 0 51.73933008-17.43394307 67.82503447 67.82503447 0 0 0 24.80179658-50.61609053 81.54648633 81.54648633 0 0 0-17.9964413-57.47593799L580.48157568 536.26761143l34.1937668-40.8866212a173.77956826 173.77956826 0 0 0 69.7366503 34.98126417 33.01164053 33.01164053 0 0 0 6.57947724 0.56249912c17.65894219 0 51.85270898-11.52858604 144.14116201-111.01614258a2437.52204795 2437.52204795 0 0 0 114.16613467-133.56794532l3.03661406-3.93749033a27.78216065 27.78216065 0 0 0 2.98036406-29.91789756z"  /></svg>