<?xml version="1.0" standalone="no"?><!DOCTYPE svg PUBLIC "-//W3C//DTD SVG 1.1//EN" "http://www.w3.org/Graphics/SVG/1.1/DTD/svg11.dtd"><svg class="icon" width="32px" height="32.00px" viewBox="0 0 1024 1024" version="1.1" xmlns="http://www.w3.org/2000/svg"><path fill="#848484" d="M86.596 474.578v363.166a36.055 36.055 0 0 0 10.522 25.542 36.056 36.056 0 0 0 25.512 10.602h39.53V438.544h-39.542a36.004 36.004 0 0 0-25.483 10.548 36.007 36.007 0 0 0-10.54 25.486z m790.146-84.837l-74.995-123.204c-10.717-18.205-22.55-28.534-40.331-24.019L132.802 407.376l743.94-17.635zM560.353 163.08c-6.323-9.345-20.631-16.846-32.686-10.777L90.164 386.257l521.651-156.568-51.462-66.608zM901.32 438.543h-687.2v435.344h687.2a36.039 36.039 0 0 0 36.085-36.085V474.578a35.942 35.942 0 0 0-36.085-36.035zM789.076 751.801a9.078 9.078 0 0 1-9.077 9.019H331.33a9.054 9.054 0 0 1-9.092-9.018v-14.358a9.1 9.1 0 0 1 9.092-9.077h448.718a9.124 9.124 0 0 1 9.078 9.077v14.358h-0.049z m0-155.355a9.077 9.077 0 0 1-9.077 9.02H331.33a9.06 9.06 0 0 1-9.092-9.019v-14.37a9.05 9.05 0 0 1 2.677-6.39 9.068 9.068 0 0 1 6.415-2.628h448.718a9.079 9.079 0 0 1 9.078 9.018v14.408l-0.049-0.039z" /></svg>