<?xml version="1.0" standalone="no"?><!DOCTYPE svg PUBLIC "-//W3C//DTD SVG 1.1//EN" "http://www.w3.org/Graphics/SVG/1.1/DTD/svg11.dtd"><svg t="1527242948397" class="icon" style="" viewBox="0 0 1024 1024" version="1.1" xmlns="http://www.w3.org/2000/svg" p-id="2121" xmlns:xlink="http://www.w3.org/1999/xlink" width="32" height="32"><defs><style type="text/css"></style></defs><path d="M995.408 503.616l0.128-0.08L822 330l0-135.744c0-25.664-20.832-46.496-46.496-46.496s-46.496 20.832-46.496 46.496l0 42.752L546.032 54.016l-0.032 0.032c-7.392-7.936-17.536-13.296-28.912-14.528-0.064 0-0.096 0-0.16 0-0.688-0.096-1.392-0.144-2.08-0.176-0.128 0-0.24-0.032-0.4-0.032-0.784-0.032-1.6-0.064-2.448-0.064-13.168 0-25.056 5.472-33.52 14.288L30.288 501.728C21.472 510.192 16 522.08 16 535.248c0 25.664 20.832 46.496 46.496 46.496 12.704 0 24.24-5.12 32.64-13.424l0.032 0.032L512 151.536l1.184 1.12 0 0.032L929.76 569.28l0.128-0.128c8.304 7.744 19.344 12.592 31.616 12.592 25.664 0 46.496-20.832 46.496-46.496C1008 522.992 1003.152 511.936 995.408 503.616z" p-id="2122" fill="#ffffff"></path><path d="M109.008 612.752l0 139.504 0 62 0 124c0 25.664 20.832 46.496 46.496 46.496l434 0 0-372 186 0 0 372 93.008 0c25.664 0 46.496-20.832 46.496-46.496l0-124 0-62 0-139.504L512 209.744 109.008 612.752zM434.496 798.752 248.496 798.752 248.496 612.752l186 0L434.496 798.752z" p-id="2123" fill="#ffffff"></path></svg>