<?xml version="1.0" standalone="no"?><!DOCTYPE svg PUBLIC "-//W3C//DTD SVG 1.1//EN" "http://www.w3.org/Graphics/SVG/1.1/DTD/svg11.dtd"><svg t="1527242914925" class="icon" style="" viewBox="0 0 1024 1024" version="1.1" xmlns="http://www.w3.org/2000/svg" p-id="1853" xmlns:xlink="http://www.w3.org/1999/xlink" width="32" height="32"><defs><style type="text/css"></style></defs><path d="M512.385701 685.156921A173.548428 173.548428 0 1 1 512.385701 337.987024 173.548428 173.548428 0 0 1 512.385701 685.156921z m508.95852-222.559789a53.247813 53.247813 0 0 0-44.77491-45.797502c-28.705611-3.140818-87.212467-10.664171-87.212467-10.664171a58.141645 58.141645 0 0 1-44.77491-56.38863c0-10.737213 3.21386-21.328342 9.568537-29.801245 0-1.095634 53.320855-70.339704 53.320855-70.339704a49.668742 49.668742 0 0 0-1.168676-62.81635 423.791236 423.791236 0 0 0-69.24407-69.24407 49.668742 49.668742 0 0 0-62.743308-1.022591c-23.373526 18.114482-69.24407 53.174771-69.244069 53.17477a65.738041 65.738041 0 0 1-31.919471 9.64158 56.972969 56.972969 0 0 1-55.366039-46.820094L607.194564 47.278799A53.174771 53.174771 0 0 0 561.32402 2.503889a509.104605 509.104605 0 0 0-97.94968 0 53.101728 53.101728 0 0 0-45.797502 44.77491l-10.591129 85.240326a56.169504 56.169504 0 0 1-55.366039 46.747051 61.355505 61.355505 0 0 1-34.110739-10.591128l-67.052801-52.152179a49.741784 49.741784 0 0 0-62.81635 1.022591c-25.564794 20.232708-48.938319 43.679276-69.171028 69.24407a48.427023 48.427023 0 0 0-1.095634 62.81635l51.129588 67.052801a54.781701 54.781701 0 0 1 11.686762 33.088148 57.33818 57.33818 0 0 1-48.938319 56.38863l-83.1221 10.664171a52.006094 52.006094 0 0 0-44.701868 45.797502 497.05263 497.05263 0 0 0 0 97.876638c3.21386 23.51961 21.182258 42.656684 44.701868 45.870544l83.049058 10.664171c27.756062 3.140818 49.011361 26.587385 49.011361 55.366039a55.512123 55.512123 0 0 1-11.686762 34.110739l-51.129588 67.052802a49.814826 49.814826 0 0 0 1.095634 62.81635c20.159666 25.564794 43.533191 49.011361 69.097986 69.244069 9.641579 7.377269 20.232708 11.686763 31.91947 11.686763a47.258347 47.258347 0 0 0 30.969922-10.664171l67.052801-52.152179a61.355505 61.355505 0 0 1 34.110739-10.591129c27.683019 0 51.056545 20.159666 55.366039 46.747052 0 1.168676 10.591129 85.240326 10.591129 85.240326a52.882602 52.882602 0 0 0 45.797502 44.701867c15.996257 1.095634 32.942063 2.191268 48.938319 2.191268 15.923214 0 33.015105-1.095634 48.938319-2.191268a53.028686 53.028686 0 0 0 45.870544-44.701867l10.591129-85.240326a56.972969 56.972969 0 0 1 87.28551-37.251557l69.244069 53.320855a47.258347 47.258347 0 0 0 30.823837 10.664171c11.686763 0 22.423976-3.286902 31.919471-11.686762 25.564794-20.30575 49.011361-43.752318 69.24407-69.317112a49.814826 49.814826 0 0 0 1.095634-62.81635 2515.575693 2515.575693 0 0 1-53.247813-70.266662 50.837418 50.837418 0 0 1-9.568538-30.896879 56.972969 56.972969 0 0 1 44.77491-55.366039s58.433814-7.450311 87.212468-10.664171a53.101728 53.101728 0 0 0 44.77491-45.797501 509.396774 509.396774 0 0 0 0-97.949681z" fill="#ffffff" p-id="1854"></path></svg>