<?xml version="1.0" standalone="no"?><!DOCTYPE svg PUBLIC "-//W3C//DTD SVG 1.1//EN" "http://www.w3.org/Graphics/SVG/1.1/DTD/svg11.dtd"><svg class="icon" width="32px" height="32.00px" viewBox="0 0 1024 1024" version="1.1" xmlns="http://www.w3.org/2000/svg"><path fill="#848484" d="M936.6875 936.6875H512c-22.5 0-25.3125-36.5625-25.3125-53.4375 8.4375-25.3125 28.125-45 50.625-53.4375 28.125-11.25 39.375-8.4375 67.5-19.6875 8.4375-2.8125 14.0625-2.8125 22.5-5.625 8.4375-5.625 16.875-25.3125 22.5-36.5625l11.25-2.8125c-2.8125-14.0625-11.25-14.0625-14.0625-22.5 0-14.0625-2.8125-28.125-2.8125-42.1875 0 0-11.25 0-11.25-2.8125-8.4375-11.25-14.0625-42.1875-16.875-59.0625 0-5.625 8.4375-11.25 5.625-25.3125-16.875-70.3125 5.625-104.0625 42.1875-115.3125 25.3125-8.4375 70.3125-28.125 112.5-2.8125l11.25 8.4375 16.875 2.8125c8.4375 5.625 14.0625 19.6875 14.0625 19.6875 5.625 16.875 5.625 19.6875 5.625 36.5625 0 5.625-5.625 39.375-2.8125 47.8125 0 8.4375 2.8125 8.4375 5.625 14.0625 5.625 11.25 2.8125 28.125 2.8125 39.375 0 5.625-2.8125 16.875-8.4375 19.6875-5.625 5.625-14.0625 5.625-16.875 11.25-5.625 8.4375-2.8125 22.5-5.625 33.75-2.8125 11.25-14.0625 14.0625-14.0625 28.125 5.625 0 8.4375 0 14.0625 2.8125 5.625 11.25 14.0625 30.9375 22.5 36.5625 8.4375 2.8125 14.0625 2.8125 22.5 5.625 28.125 11.25 39.375 8.4375 67.5 19.6875 25.3125 11.25 42.1875 28.125 50.625 53.4375 0 28.125-8.4375 61.875-25.3125 61.875zM638.5625 455.75c-42.1875 14.0625-95.625 53.4375-75.9375 137.8125 2.8125 14.0625-8.4375 22.5-8.4375 28.125 2.8125 16.875 8.4375 81.5625 30.9375 90 0 25.3125-2.8125 42.1875 0 50.625-5.625 11.25-8.4375 5.625-16.875 11.25-8.4375 2.8125-19.6875 5.625-28.125 8.4375-33.75 14.0625-47.8125 19.6875-78.75 30.9375-22.5 8.4375-25.3125 45-25.3125 75.9375H194.1875L149.1875 708.875 67.625 520.4375c-11.25-28.125 0-56.25 30.9375-67.5l67.5-36.5625V295.4375c0-5.625 115.3125-118.125 118.125-118.125H371.375c0 5.625 5.625 0 0 0V115.4375c0-5.625 25.3125-30.9375 30.9375-30.9375h118.125c5.625 0 30.9375 25.3125 30.9375 30.9375V174.5c-5.625 0 0 5.625 0 0h90c5.625 0 118.125 115.3125 118.125 118.125v118.125l2.8125 25.3125c-50.625-5.625-92.8125 8.4375-123.75 19.6875z m61.875-132.1875s-84.375-90-90-90H312.3125c-5.625 0-90 90-90 90 0 5.625-2.8125 61.875 0 59.0625l208.125-90h61.875l208.125 90c2.8125 2.8125 0-53.4375 0-59.0625z" /></svg>