<?xml version="1.0" standalone="no"?><!DOCTYPE svg PUBLIC "-//W3C//DTD SVG 1.1//EN" "http://www.w3.org/Graphics/SVG/1.1/DTD/svg11.dtd"><svg t="1540881813100" class="icon" style="" viewBox="0 0 1024 1024" version="1.1" xmlns="http://www.w3.org/2000/svg" p-id="2645" xmlns:xlink="http://www.w3.org/1999/xlink" width="32" height="32"><defs><style type="text/css"></style></defs><path d="M832.6 763.7h-0.1c0 37.8-74.1 119.9-117.4 140-51.3 23.9-123 29.7-177.9 20.4-54.9-9.3-115.2-33.7-132.6-56.5-99.8-131-169.1-227.4-178.7-245.5-16.8-31.8 21.9-70.8 55.6-68.3 30.8 2.1 55.9 32.2 64.5 43.6 8.5 11.4 16.5 17.7 25.9 20 9.4 2.3 32.1-0.5 32.1-19.1v-278c0-25.9 21.9-47 49-47s49 21 49 47v224c0 6.8 5.6 16.7 17 16.7s17.6-9.9 17.6-16.3V421.3c0-24.6 64-28.2 75.2 15.9 0 0 0.4 136.3 0.4 142.5 0 8.4 9.1 15.1 17.1 15.1S645 589.3 645 581c0-5.5 1.5-87.5 1.5-114.5 0-50.1 78.4-28.4 78.4 17.6 0 36.2 0.7 125.1 0.7 130.8 0 7.4 9.3 14.2 17.1 14.2 7.8 0 17.2-5.8 17.2-13.5V510.7c0-42.9 72.8-34.1 72.8 2.4v250.6z" p-id="2646" fill="#808080"></path><path d="M632.1 378.5c-6.6-2.7-12.8-6.4-18.4-10.9 25.2-87.9-21.1-180.5-106.6-213.1-85.5-32.6-181.7 5.7-221.4 88.1-39.7 82.4-9.8 181.5 69 228.1 0.9 8.5-0.6 17-4.3 24.7-10.1 18.4-23.5 11.6-23.5 11.6l-1.6 0.6c-97.1-61.8-131-187.5-78.2-289.7C299.9 115.6 422 70.4 528.6 113.7s162.6 160.8 129.1 270.9c-8.7-1.4-17.2-3.5-25.6-6.1z m0 0" p-id="2647" fill="#808080"></path></svg>