<?xml version="1.0" standalone="no"?><!DOCTYPE svg PUBLIC "-//W3C//DTD SVG 1.1//EN" "http://www.w3.org/Graphics/SVG/1.1/DTD/svg11.dtd"><svg class="icon" width="32px" height="32.00px" viewBox="0 0 1024 1024" version="1.1" xmlns="http://www.w3.org/2000/svg"><path fill="#848484" d="M519.117 54.4c90.132 0 163.23 88.023 163.23 196.521v0.727H812.82l65.26 717.906H160.205l65.254-717.911h130.545v-0.727c0-108.493 73.032-196.516 163.113-196.516M232.735 804.87c1.264 14.704 6.645 26.9 16.22 36.346 9.574 9.605 26.737 14.392 51.522 14.392 14.106 0 25.82-2.012 35.113-6.139 9.288-4.065 16.502-10.02 21.668-17.955 5.197-7.875 7.808-16.471 7.808-25.82 0-7.937-1.981-15.186-5.857-21.607-3.84-6.461-10.112-11.812-18.616-16.128-8.535-4.378-22.641-8.658-42.327-12.907-7.972-1.664-13.01-3.43-15.12-5.356-2.176-1.92-3.277-3.942-3.277-6.267 0-3.21 1.321-5.924 3.968-8.125 2.647-2.212 6.615-3.308 11.874-3.308 6.333 0 11.34 1.48 14.899 4.434 3.656 3.02 6.047 7.813 7.147 14.331l42.517-2.453c-1.89-15.119-7.68-26.142-17.48-33.105-9.758-6.964-23.997-10.394-42.644-10.394-15.145 0-27.116 1.925-35.871 5.73-8.755 3.814-15.242 9.103-19.558 15.748-4.378 6.651-6.518 13.737-6.518 21.228 0 11.371 4.255 20.782 12.723 28.185 8.412 7.312 22.487 13.225 42.235 17.67 12.093 2.703 19.779 5.478 23.086 8.499 3.308 2.964 4.946 6.395 4.946 10.143 0 3.937-1.7 7.434-5.197 10.516-3.461 3.02-8.438 4.439-14.832 4.439-8.664 0-15.279-2.893-19.938-8.791-2.836-3.615-4.756-8.965-5.637-15.928l-42.854 2.621z m149.284-24.602c0 17.1 3.307 31.247 10.014 42.577 6.713 11.367 15.468 19.62 26.235 24.91 10.773 5.227 24.376 7.874 40.817 7.874 16.19 0 29.634-3.088 40.535-9.165 10.834-6.016 19.092-14.515 24.878-25.416 5.73-10.956 8.596-24.914 8.596-41.953 0-23.49-6.579-41.692-19.68-54.728-13.103-13.04-31.842-19.558-56.121-19.558-23.624 0-42.112 6.65-55.368 19.942-13.26 13.195-19.906 31.78-19.906 55.517m45.035 0.225c0 14.704 2.74 25.287 8.223 31.744 5.442 6.39 12.907 9.6 22.297 9.6 9.703 0 17.193-3.149 22.513-9.41 5.294-6.273 7.972-17.603 7.972-33.895 0-13.788-2.8-23.803-8.346-30.142-5.509-6.323-13.01-9.472-22.512-9.472-9.068 0-16.41 3.21-21.863 9.667-5.545 6.4-8.284 17.044-8.284 31.908m130.289-73.19v145.791h115.39v-35.937H602.5V707.302h-45.158z m136.499 0v145.791h66.99c8.003 0 16.911-1.295 26.834-3.942 7.24-1.915 13.952-5.857 20.25-11.628 6.328-5.795 11.243-12.968 14.832-21.54 3.553-8.601 5.29-20.715 5.29-36.28 0-9.948-1.173-19.369-3.56-28.221-2.395-8.909-6.21-16.66-11.499-23.363-5.289-6.712-12.057-11.873-20.127-15.442-8.186-3.553-18.836-5.35-32-5.35h-67.015v-0.026z m45.03 33.039v79.58h11.095c9.416 0 16.118-0.968 20.122-3.087 3.937-2.08 7.086-5.796 9.36-10.967 2.206-5.161 3.307-13.666 3.307-25.344 0-15.437-2.453-26.015-7.501-31.683-5.033-5.734-13.414-8.535-25.093-8.535h-11.285v0.036z m-67.553-418.34c-6.897 21.417-16.85 41.006-29.163 58.045a32.604 32.604 0 0 0 11.683 2.14c18.023 0 32.66-14.643 32.66-32.63a32.46 32.46 0 0 0-15.18-27.555m-274.34 59.115c-12.252-16.63-22.175-35.778-29.163-56.688a32.594 32.594 0 0 0-11.843 25.129 32.66 32.66 0 0 0 32.655 32.63 32.256 32.256 0 0 0 8.351-1.07m-24.632-129.444h299.889c-0.63-100.813-67.554-182.288-149.97-182.288-82.391 0-149.29 81.475-149.92 182.288m16.318 65.254c-2.33 0-4.597 0.25-6.773 0.696 6.456 21.038 15.969 40.213 27.904 56.781a32.486 32.486 0 0 0 11.463-24.847 32.63 32.63 0 0 0-32.594-32.63m265.211 0c-18.017 0-32.665 14.612-32.665 32.63 0 10.552 5.11 19.968 12.861 25.922 12.186-16.66 21.883-36.09 28.467-57.385a34.33 34.33 0 0 0-8.663-1.167" /></svg>