<?xml version="1.0" standalone="no"?><!DOCTYPE svg PUBLIC "-//W3C//DTD SVG 1.1//EN" "http://www.w3.org/Graphics/SVG/1.1/DTD/svg11.dtd"><svg class="icon" width="32px" height="32.00px" viewBox="0 0 1024 1024" version="1.1" xmlns="http://www.w3.org/2000/svg"><path fill="#e84c3d" d="M274.6878125 283.04a228 228 0 0 1 453.3121875 0h61.63125c19.9209375 0 38.7375 16.1278125 42.04875 36l89.7121875 516.2878125C929.646875 885.104375 890.384375 932 837.344375 932h-672c-53.04 0-93.215625-41.4721875-84-96.6721875l89.615625-516.2878125c3.36-19.92 22.1278125-36.095625 42.0478125-36.095625h61.6321875z m72.624375 0h308.015625a156 156 0 0 0-308.015625 0z m297.5034375 142.8v32.4478125a143.52 143.52 0 1 1-286.9434375 0v-32.4478125a33.12 33.12 0 0 0-66.24 0v32.4478125a209.7121875 209.7121875 0 1 0 419.4234375 0v-32.4478125a33.12 33.12 0 1 0-66.24 0z"  /></svg>