<?xml version="1.0" standalone="no"?><!DOCTYPE svg PUBLIC "-//W3C//DTD SVG 1.1//EN" "http://www.w3.org/Graphics/SVG/1.1/DTD/svg11.dtd"><svg t="1527241587859" class="icon" style="" viewBox="0 0 1028 1024" version="1.1" xmlns="http://www.w3.org/2000/svg" p-id="19680" xmlns:xlink="http://www.w3.org/1999/xlink" width="16.0625" height="16"><defs><style type="text/css"></style></defs><path d="M515.1055756461218 977.8363924100995C257.83190066445513 977.8363924100995 49.26918323602223 769.3396690771492 49.26918323602223 512S257.83190066445513 46.163607589900494 515.1055756461218 46.163607589900494c257.33966907714927 0 465.8363924100995 208.4967233329503 465.8363924100995 465.8363924100995s-208.4967233329503 465.8363924100995-465.8363924100995 465.8363924100995z m0-853.7655304628254V123.80300602163817c-222.73190739429447 0.0659931856458628-388.19699397836183 174.35479804250568-388.19699306852516 388.23969534438714 0 213.8887795750972 174.1878730319465 387.975721691967 388.19699306852516 387.975721691967s388.19699397836183-174.02094802138726 388.19699397836183-387.975721691967c0-213.9508913973641-174.1218798463006-387.97183941875136-388.19699397836183-387.97183941875136z m-68.67593015105894 576.8607329044522a27.950183544605974 27.950183544605974 0 0 1-31.544887402758334 0.8617973259586841 36.867068186043724 36.867068186043724 0 0 1-16.04030008193333-31.14116283261516V314.41937643247195c0-12.911431706354357 6.12574856019281-24.821316078863706 16.04030008193333-31.1450451058308a27.950183544605974 27.950183544605974 0 0 1 31.61088149824091 0.931672784820199l248.4227835258747 178.1474823674323c8.982878736920323 6.521709493741394 14.50692135035895 17.969638837219588 14.506922260195651 30.2133723210106 0 12.247614847169965-5.524043523275331 23.691662827269212-14.572915445841515 30.147378225528037l-248.42278443571146 178.2173578262938z" fill="#808080" p-id="19681"></path></svg>