<?xml version="1.0" encoding="utf-8"?>
<!-- Generator: Adobe Illustrator 17.0.0, SVG Export Plug-In . SVG Version: 6.00 Build 0)  -->
<!DOCTYPE svg PUBLIC "-//W3C//DTD SVG 1.1//EN" "http://www.w3.org/Graphics/SVG/1.1/DTD/svg11.dtd">
<svg version="1.1" id="图层_1" xmlns="http://www.w3.org/2000/svg" xmlns:xlink="http://www.w3.org/1999/xlink" x="0px" y="0px"
	 width="40px" height="40px" viewBox="0 0 40 40" enable-background="new 0 0 40 40" xml:space="preserve">
<circle id="XMLID_37_" fill="#FFFFFF" stroke="#F46F62" stroke-width="1.5" stroke-miterlimit="10" cx="20" cy="20" r="19.208"/>
<path fill="#F46F62" stroke="#F46F62" stroke-width="0.75" stroke-miterlimit="10" d="M27.902,8.883H12.098
	c-0.637,0-1.153,0.519-1.153,1.153v11.853c0,0.637,0.519,1.153,1.153,1.153h6.97v8.944h1.807v-8.939h7.026
	c0.637,0,1.153-0.519,1.153-1.153V10.038C29.057,9.402,28.538,8.883,27.902,8.883z M12.098,9.838h15.803c0.11,0,0.2,0.09,0.2,0.2
	v4.007H11.896v-4.007C11.896,9.928,11.988,9.838,12.098,9.838z M27.902,22.094H12.098c-0.11,0-0.2-0.09-0.2-0.2v-6.04h16.206v6.04
	C28.102,22.001,28.012,22.094,27.902,22.094z"/>
<path fill="#F46F62" d="M14.102,11.353h3.905v1.13h-3.905V11.353z M14.21,16.947h0.952v3.799H14.21V16.947z M18.083,16.965h0.952
	v3.784h-0.952V16.965z M21.924,16.965h0.952v3.784h-0.952V16.965z M25.793,16.965h0.952v3.784h-0.952V16.965z"/>
</svg>
