<?xml version="1.0" standalone="no"?><!DOCTYPE svg PUBLIC "-//W3C//DTD SVG 1.1//EN" "http://www.w3.org/Graphics/SVG/1.1/DTD/svg11.dtd"><svg t="1535369703125" class="icon" style="" viewBox="0 0 1024 1024" version="1.1" xmlns="http://www.w3.org/2000/svg" p-id="928" xmlns:xlink="http://www.w3.org/1999/xlink" width="32" height="32"><defs><style type="text/css"></style></defs><path d="M928.84132347 433.68043457c0-230.16890469-186.67241876-416.84132347-416.84132347-416.84132346s-416.84132347 186.67241876-416.84132347 416.84132346c0 126.60584297 56.44186864 239.87794173 145.37664792 316.38515358l216.57625283 233.27579654c29.51547259 31.84564148 80.00246518 31.84564148 109.51793778 0l216.57625284-233.27579654C872.39945482 673.5583763 928.84132347 560.1568237 928.84132347 433.68043457z m-722.35235557 0c0-168.6783368 136.83269531-305.5110321 305.5110321-305.5110321s305.5110321 136.83269531 305.5110321 305.5110321-136.83269531 305.5110321-305.5110321 305.5110321-305.5110321-136.83269531-305.5110321-305.5110321z" fill="#878787" p-id="929"></path><path d="M545.14017975 521.5795832c0 2.84798419 2.33016889 5.17815309 5.17815308 5.30760693h0.51781532c30.0332879 0 60.06657581 0.12945383 89.97040988-0.12945383 3.10689185 0 6.86105283-1.55344592 9.19122172-3.62470716 15.01664395-13.07483653 30.0332879-26.27912691 44.66157038-39.74232495 4.91924543-4.53088395 8.15559111-2.45962272 13.8515595-0.64726913 4.78979161 1.55344592 7.89668347 2.84798419 11.65084445 4.66033777 5.04869925 2.33016889 10.35630617 4.53088395 14.88719011 7.76722964 4.91924543 3.62470717 6.34323753 9.19122173 3.23634568 14.62828247-5.30760691 9.32067555-10.09739852 19.15916642-16.82899752 27.31475753-18.90025876 22.78387358-38.5772405 44.79102419-58.1247684 66.92762864-1.55344592 1.81235358-4.91924543 2.97743803-7.37886814 2.97743803-49.71026963 0.12945383-99.42053925 0.12945383-149.1308089 0-3.10689185 0-6.47269136-1.03563061-9.45012938-2.20071506-32.49291061-12.29811358-65.63309037-17.47626667-99.67944692-8.15559111-10.22685235 2.71853037-19.80643555 8.02613728-29.64492642 12.16865975-2.20071506 0.9061768-4.40143013 1.68289975-6.60214517 2.45962271-7.76722963 2.45962272-13.20429037-0.51781531-18.77080494-6.34323753-18.12353581-19.02971259-37.02379457-37.28270222-55.53569186-55.92405333-4.2719763-4.2719763-3.62470717-15.27555161 1.55344593-18.25298963 47.38010075-27.1853037 81.03809581-46.34447013 128.54765037-73.40032 10.87412148-6.2137837 27.44421136-10.48576 51.78153087-4.53088396 17.34681283 4.2719763 29.38601876 7.63777581 46.08556246 13.85155952 3.3657995 1.29453827 7.1199605 2.45962272 10.61521384 2.4596227 32.62236445 0.12945383 65.24472889 0.12945383 97.86709333 0.12945383 21.35988148 0 32.3634568 16.95845136 23.69005037 36.76488692-3.10689185 7.1199605-7.37886815 11.13302914-16.31118222 10.87412148-26.02021925-0.77672297-52.16989235-0.25890765-78.19011162-0.25890765h-2.07126124c-3.23634569-0.38836148-5.56651457 1.94180741-5.56651456 4.91924542z m100.32671606-54.24115357V312.64110617c0-9.0617679-1.55344592-10.61521383-10.74466766-10.61521382h-44.01430124c-7.76722963 0-9.5795832 1.94180741-9.57958321 9.70903704v62.91456c0 3.88361482-3.10689185 7.1199605-7.1199605 7.11996048h-96.31364739c-3.88361482 0-7.1199605-3.10689185-7.1199605-7.11996048v-62.3967447c0-8.54395259-1.68289975-10.22685235-10.48576-10.22685234h-44.66157037c-7.24941431 0-9.19122173 2.07126124-9.19122174 9.45012938v114.82554469c0 3.88361482-3.10689185 7.1199605-7.11996048 7.11996049h-22.26605827c-3.88361482 0-7.1199605-3.10689185-7.1199605-7.11996049V274.06386569c0-3.88361482 3.10689185-7.1199605 7.1199605-7.11996051h295.15472592c3.88361482 0 7.1199605 3.10689185 7.11996049 7.11996051V460.21846914c0 3.88361482-3.10689185 7.1199605-7.11996049 7.11996049h-26.53803456z m0 0" fill="#878787" p-id="930"></path></svg>