<?xml version="1.0" standalone="no"?><!DOCTYPE svg PUBLIC "-//W3C//DTD SVG 1.1//EN" "http://www.w3.org/Graphics/SVG/1.1/DTD/svg11.dtd"><svg class="icon" width="32px" height="32.00px" viewBox="0 0 1024 1024" version="1.1" xmlns="http://www.w3.org/2000/svg"><path fill="#e84c3d" d="M467.696 289.93066667h0.05653333l400.75733334-1.3568a20.8032 20.8032 0 0 0 18.40213333-11.14666667 20.85866667 20.85866667 0 0 0-1.2064-21.504l-126.52266667-185.6a20.88106667 20.88106667 0 0 0-13.39413333-8.77653333c-5.44-1.04-11.09013333 0.16-15.66186667 3.2768L455.92 251.76533333a20.9088 20.9088 0 0 0-8.19626667 23.45066667 20.91733333 20.91733333 0 0 0 19.97226667 14.71466667z m500.16-14.10986667c-18.74133333-4.38613333-37.48693333 7.23413333-41.87306667 25.98826667l-9.936 42.57706666h-640.14933333l-18.48106667-86.87466666c-3.4176-16.0992-17.6256-27.58826667-34.08533333-27.58826667H63.34933333c-19.2512 0-34.8416 15.5808-34.8416 34.8224 0 19.24586667 15.58613333 34.8416 34.8416 34.8416h131.79306667l89.82613333 422.1824c3.45813333 16.0768 17.62453333 27.568 34.08533334 27.568H865.25866667c16.19733333 0 30.2336-11.13386667 33.93493333-26.89066667l94.64213333-404.75733333c4.36906667-18.74453333-7.2704-37.48693333-25.97866666-41.8688zM347.24266667 679.67466667l-56.5312-265.63946667h25.58293333c0.37866667 0.70933333 0.60586667 1.47093333 1.07733333 2.15466667L497.00266667 679.6736h-149.76z m490.3904 0H537.35893333l357.22666667-243.51466667-56.95253333 243.51466667zM424.7296 833.74186667c-42.96533333 0-77.792 34.82133333-77.792 77.80906666 0 42.9088 34.8256 77.7504 77.792 77.7504 42.94506667 0 77.7504-34.8416 77.7504-77.74933333 0-42.9888-34.8064-77.81013333-77.74933333-77.81013333z m334.39786667 0c-42.9664 0-77.78773333 34.82133333-77.78773334 77.80906666 0 42.9088 34.82133333 77.7504 77.78773334 77.7504 42.9504 0 77.75573333-34.8416 77.75573333-77.74933333-0.00533333-42.9888-34.80533333-77.81013333-77.75573333-77.81013333z m0 0"  /></svg>