<?xml version="1.0" standalone="no"?><!DOCTYPE svg PUBLIC "-//W3C//DTD SVG 1.1//EN" "http://www.w3.org/Graphics/SVG/1.1/DTD/svg11.dtd"><svg class="icon" width="32px" height="32.00px" viewBox="0 0 1024 1024" version="1.1" xmlns="http://www.w3.org/2000/svg"><path fill="#e84c3d" d="M847.36 415.744c-20.48 0-39.936 4.096-57.856 10.752-14.336-12.8-30.208-25.088-47.616-35.328-2.56-1.536-4.608-3.072-7.168-4.608H366.08c-4.096 2.048-7.68 4.608-11.776 7.168-43.008 27.136-77.312 61.952-98.816 102.912-6.144 11.776-11.264 23.552-15.36 36.352-7.168 21.504-11.264 44.032-11.264 67.584 0 22.528 3.584 44.032 10.24 64.512 5.632 17.408 13.312 34.304 23.04 50.176 24.576 40.96 61.952 75.776 108.032 101.376h-0.512v27.136c0 9.728 8.192 17.92 17.92 17.92h325.632c9.728 0 17.92-8.192 17.92-17.92V816.64h-0.512c35.328-19.456 66.048-45.056 89.088-74.24 9.216 1.536 18.432 2.56 27.648 2.56 90.624 0 164.352-73.728 164.352-164.352 0.512-91.136-73.728-164.864-164.352-164.864z m1.536 281.088c14.848-29.696 23.04-62.464 23.04-96.256 0-49.152-16.896-95.232-46.08-134.656 7.168-1.536 14.336-2.048 22.016-2.048 64.512 0 116.736 52.224 116.736 116.736-0.512 63.488-52.224 115.712-115.712 116.224zM736.256 345.6c0-18.944-70.144-34.304-161.28-36.864 7.68-6.656 12.8-16.384 12.8-27.648 0-20.48-16.384-36.864-36.864-36.864s-36.864 16.384-36.864 36.864c0 11.264 5.12 20.992 12.8 27.648-91.136 2.56-161.28 17.92-161.28 36.864v9.216h371.2V345.6z"  /><path fill="#e84c3d" d="M212.992 600.576c0-29.696 5.632-58.368 16.384-84.992 4.096-11.264 9.728-21.504 15.36-32.256-63.488-79.36-140.8-91.136-144.384-91.648-4.096-0.512-8.192 0.512-11.776 3.072l-70.144 52.224c-5.632 4.096-7.68 11.264-5.632 17.92 2.048 6.656 8.192 10.752 15.36 10.752 69.632 0 125.952 91.648 145.408 150.016 13.312 40.448 41.984 64 63.488 77.312-9.728-19.456-16.384-40.448-19.968-61.952-2.56-13.312-4.096-26.624-4.096-40.448z"  /></svg>