<?xml version="1.0" standalone="no"?><!DOCTYPE svg PUBLIC "-//W3C//DTD SVG 1.1//EN" "http://www.w3.org/Graphics/SVG/1.1/DTD/svg11.dtd"><svg class="icon" width="32px" height="32.00px" viewBox="0 0 1024 1024" version="1.1" xmlns="http://www.w3.org/2000/svg"><path fill="#848484" d="M580.42595555 351.70986666c0-32.71338667-28.39779555-59.22474667-63.41973333-59.22474667-35.03786667 0-61.65959111 26.51136-61.65959111 59.22474667 0 32.69632 26.62058667 59.20995555 61.65959111 59.20995555 35.02193778 0 63.41973333-26.51363555 63.41973333-59.20995555z m221.12028445 188.93027555V158.29674666c0-62.94641778-30.40369778-113.98144-67.90144-113.98144h-452.61937778c-37.49888 0-67.88664889 51.03502222-67.88664889 113.98144v382.34339555H9.46062222v406.06378667h271.5648V202.23658666h452.61824v744.46848h271.57959111V540.64014221H801.54624zM518.66168889 179.68924444c-31.25475555 0-56.58396445-25.25184-56.58396444-56.39736889s25.32920889-56.39850667 56.58396444-56.39850667c31.23996445 0 56.56803555 25.25070222 56.56803556 56.39850667s-25.32807111 56.39736889-56.56803556 56.39736889z m80.66616889 250.85952H408.06286222s-27.81866667-3.28021333-36.51015111 19.75182222v178.67662222s0.75889778 18.29319111 20.10225778 18.29319111c0 0 21.51537778 0.10581333 21.51537778-19.31150222v-108.05703111s11.95804445-24.58282667 20.87594666 1.23107555l0.10695112 383.1660089s-0.76003555 19.64487111 20.10339555 19.6448711l21.62005333 0.30378667s20.43448889-0.21276445 20.43448889-19.94865777V726.44380444s0.76231111-10.07388445 11.62467556-10.07388445c0 0 9.57212445 3.60220445 9.57212444 10.48462222v179.08508445s0 18.00419555 20.86115556 18.00419555h20.96924444s20.86115555-1.23107555 20.86115556-18.00419555v-386.3552s7.50705778-22.82154667 20.87708444-0.30378667l0.68380445 109.45422222s-4.84579555 18.94627555 21.48352 18.94627556c19.83032889 0 19.23640889-18.08042667 19.23640888-18.08042666l0.21276445-179.29898667c-0.00227555-0.00113778-10.31850667-19.75182222-43.36526222-19.75182223z" /></svg>