<?xml version="1.0" standalone="no"?><!DOCTYPE svg PUBLIC "-//W3C//DTD SVG 1.1//EN"
    "http://www.w3.org/Graphics/SVG/1.1/DTD/svg11.dtd">
<svg class="icon" width="32px" height="32.00px" viewBox="0 0 1024 1024" version="1.1"
     xmlns="http://www.w3.org/2000/svg">
    <path fill="#53b6a7"
          d="M729.57 232.085c45.54 0 82.471-37.087 82.471-82.845 0-45.757-36.932-82.851-82.47-82.851-45.555 0-80.183 37.094-80.183 82.851 0 45.758 34.628 82.845 80.182 82.845z m82.334 309.012c-0.047-0.154-0.091-0.31-0.138-0.463v-156.52s9.746-31.94 27.115-0.44l0.892 153.146s-6.292 26.499 27.95 26.499c25.787 0 25.006-25.292 25.006-25.292l0.274-250.857s-13.42-27.615-56.37-27.615H587.92s-36.178-4.598-47.473 27.615v249.993s0.987 25.593 26.128 25.593c0 0 27.992 0.137 27.992-27.032V384.551s15.545-34.38 27.116 1.728l0.086 155.814c-0.057 0.189-0.11 0.378-0.169 0.567-19.424 63.303-81.073 230.939-81.073 230.939s86.419-31.789 126.75 43.276c36.71 68.32 5.593 133.598 5.593 133.598h88.242s-30.2-66.963 7.006-136.244c39.905-74.256 125.35-40.63 125.35-40.63s-61.933-168.581-81.564-232.502z m-501.46-309.012c45.547 0 82.472-37.087 82.472-82.845 0-45.757-36.925-82.851-82.471-82.851-45.547 0-80.174 37.094-80.174 82.851 0 45.758 34.627 82.845 80.174 82.845z m107.065 27.47H168.794s-36.176-4.598-47.48 27.615v249.993s0.987 25.593 26.143 25.593c0 0 27.98 0.137 27.98-27.032V384.551s15.544-34.38 27.136 1.728l0.137 536.064s-0.988 27.47 26.141 27.47l28.123 0.44s26.567-0.301 26.567-27.91V673.518s0.988-14.106 15.127-14.106c0 0 12.428 5.045 12.428 14.682v250.554s0 25.168 27.136 25.168h27.273s27.13-1.727 27.13-25.168V384.113s9.753-31.94 27.128-0.439l0.884 153.146s-6.291 26.499 27.952 26.499c25.8 0 25.004-25.292 25.004-25.292l0.288-250.857c0.001 0-13.42-27.615-56.382-27.615z"/>
</svg>
