<?xml version="1.0" standalone="no"?><!DOCTYPE svg PUBLIC "-//W3C//DTD SVG 1.1//EN" "http://www.w3.org/Graphics/SVG/1.1/DTD/svg11.dtd"><svg class="icon" width="32px" height="32.00px" viewBox="0 0 1024 1024" version="1.1" xmlns="http://www.w3.org/2000/svg"><path fill="#848484" d="M868.383 210.852v-4.506c0-22.405-18.156-40.55-40.56-40.55h-98.581c0.235-0.092 0.399-0.184 0.655-0.266 22.661-7.455 7.885-7.824 7.885-7.824L665.64 85.023l-38.461 4.372s-1.885 20.173-14.541 30.546c-1.925 1.587-3.257 3.215-4.363 4.864 0.605-1.71-4.659-1.853-4.659-1.853l-72.12-72.674-38.482 4.383s-1.884 20.173-14.52 30.546-5.397 23.03-5.397 23.03l-14.285 14.172 8.838 8.919s-18.699 18.38-21.965 34.458H417.32c8.417-20.511 7.28-59.239 7.28-59.239s-35.4 17.756-24.719-3.584c10.66-21.34 0-11.1 0-11.1h-102.4l-24.002 30.392s13.004 15.545 11.458 31.826c-0.481 5.059 0.625 8.786 2.263 11.705h-54.139c-22.384 0-40.54 18.145-40.54 40.55v4.506c0 22.405 18.156 64.215 40.54 64.215h25.815l34.479 664.135c0.757 14.377 12.615 25.641 27.002 25.641h423.517c14.438 0 26.316-11.335 27.002-25.764l31.366-664.023h25.559c22.415 0.01 40.58-41.8 40.58-64.194z m-272.64-80.077c8.12-2.673 11.397-4.424 12.298-5.58-5.683 8.96-0.799 17.776-0.799 17.776l-4.72 4.69c-9.565-4.23-22.303-11.766-6.78-16.886z m2.672 31.877l3.124 3.144h-6.636a328.884 328.884 0 0 0 3.512-3.144zM401.603 656.59c-16.036 9.328-22.979-5.018-22.979-5.018-1.72-7.987-2.683-16.281-2.683-24.832 0-61.163 46.223-111.001 103.578-112.537l-40.479-26.665c-7.68-5.07-10.035-15.75-5.263-23.88 4.761-8.161 14.858-10.64 22.497-5.591l69.796 45.967c3.676 2.427 6.297 6.298 7.28 10.783 0.983 4.475 0.256 9.196-2.037 13.097l-43.357 74.004c-3.082 5.284-8.417 8.192-13.875 8.192-2.96 0-5.918-0.84-8.622-2.61-7.68-5.06-10.025-15.74-5.263-23.89l20.377-34.786c-39.823 0.911-71.936 35.482-71.936 77.916 0 4.035 0.38 7.926 0.943 11.776 0 0 3.676 11.96-7.977 18.074z m210.4 86.815c-5.795 5.765-12.236 11.059-19.414 15.687-51.415 33.116-118.385 21.258-150.723-26.132l-0.481 48.476c-0.123 9.175-7.803 16.968-17.244 17.357-9.421 0.399-16.978-6.738-16.876-15.913l0.84-83.559c0.061-4.413 1.905-8.714 5.12-11.98 3.236-3.216 7.598-5.192 12.124-5.387l85.699-3.604c6.103-0.266 11.458 2.642 14.397 7.23 1.598 2.488 2.499 5.437 2.458 8.652-0.103 9.196-7.803 16.957-17.224 17.357l-40.305 1.72c22.344 32.983 68.803 41.257 104.5 18.279 3.358-2.182 6.44-4.619 9.38-7.168 0 0 8.058-9.575 19.517-3.093 16.527 8.448 8.233 22.078 8.233 22.078z m102.995-95.355l-69.776 45.947c-3.696 2.416-8.284 3.297-12.8 2.426-4.495-0.87-8.54-3.389-11.223-7.045l-50.841-69.069c-3.635-4.915-4.22-10.977-2.058-16.005 1.177-2.713 3.143-5.11 5.816-6.88 7.68-5.05 18.422-2.991 24.023 4.607l23.9 32.481c14.9-36.946-4.157-80.117-43.162-96.9-3.676-1.588-7.424-2.776-11.182-3.79 0 0-12.441-1.341-13.455-14.458-2.222-18.422 13.722-19.139 13.722-19.139 8.018 1.597 16.005 3.983 23.838 7.352 56.197 24.177 83.723 86.344 62.485 139.633l40.479-26.665c7.68-5.048 18.442-2.99 24.023 4.608 5.59 7.608 3.89 17.869-3.79 22.897z m21.903-341.76h-418.16l-5.725-31.232h435.118l-11.233 31.232zM994.1 878.756s-30.464 32.061-51.282 38c-20.818 5.95-4.557 19.436-4.557 19.436l-16.455-3.86-9.964 7.383-8.745-11.776s-36.362-1.506-64.522-15.145 12.565-53.556 12.565-53.556l-8.838-8.919 14.285-14.172s-7.24-12.646 5.397-23.03 14.52-30.545 14.52-30.545l38.482-4.383 72.12 72.683s14.797 0.369-7.885 7.824c-22.66 7.444 14.88 20.06 14.88 20.06z" /></svg>