<?xml version="1.0" standalone="no"?><!DOCTYPE svg PUBLIC "-//W3C//DTD SVG 1.1//EN" "http://www.w3.org/Graphics/SVG/1.1/DTD/svg11.dtd"><svg t="1527241803912" class="icon" style="" viewBox="0 0 1024 1024" version="1.1" xmlns="http://www.w3.org/2000/svg" p-id="27126" xmlns:xlink="http://www.w3.org/1999/xlink" width="16" height="16"><defs><style type="text/css"></style></defs><path d="M962.56 413.013333c-13.653333-23.893333-40.96-34.133333-71.68-34.133333l-58.026667 0 0 0c0-58.026667-44.373333-102.4-102.4-102.4l-273.066667 0c0-58.026667-44.373333-102.4-102.4-102.4l-170.666667 0c-58.026667 0-102.4 44.373333-102.4 102.4l0 477.866667c0 47.786667 30.72 85.333333 75.093333 98.986667-3.413333-3.413333-3.413333-3.413333-6.826667-6.826667C160.426667 849.92 170.666667 853.333333 184.32 853.333333l546.133333 0c51.2 0 109.226667-37.546667 126.293333-85.333333l105.813333-283.306667C976.213333 460.8 976.213333 436.906667 962.56 413.013333zM901.12 460.8l-105.813333 286.72C785.066667 764.586667 754.346667 785.066667 730.453333 785.066667l-546.133333 0C174.08 785.066667 170.666667 781.653333 170.666667 781.653333c0 0 0-3.413333 3.413333-10.24l105.813333-286.72c6.826667-20.48 40.96-40.96 64.853333-40.96l546.133333 0c10.24 0 13.653333 3.413333 13.653333 3.413333C904.533333 450.56 904.533333 453.973333 901.12 460.8z" p-id="27127"></path></svg>