<?xml version="1.0" standalone="no"?><!DOCTYPE svg PUBLIC "-//W3C//DTD SVG 1.1//EN" "http://www.w3.org/Graphics/SVG/1.1/DTD/svg11.dtd"><svg class="icon" width="24px" height="24.00px" viewBox="0 0 1024 1024" version="1.1" xmlns="http://www.w3.org/2000/svg"><path fill="#808080" d="M403.392 202.688H896a64 64 0 0 1 64 64v519.04a64 64 0 0 1-64 64H128a64 64 0 0 1-64-64v-519.04a65.28 65.28 0 0 1 0-1.792V192a64 64 0 0 1 64-64h196.672a64 64 0 0 1 56.192 33.344l22.528 41.344zM556.48 581.76h70.4a32 32 0 0 0 23.68-53.376L560 427.52a64 64 0 0 0-95.168 0L374.08 528.384a32 32 0 0 0 23.808 53.376h68.992v123.52c0 8.768 7.104 16 16 16h57.6a16 16 0 0 0 16-16V581.76z"  /></svg>