<?xml version="1.0" standalone="no"?><!DOCTYPE svg PUBLIC "-//W3C//DTD SVG 1.1//EN" "http://www.w3.org/Graphics/SVG/1.1/DTD/svg11.dtd"><svg t="1527671274501" class="icon" style="" viewBox="0 0 1024 1024" version="1.1" xmlns="http://www.w3.org/2000/svg" p-id="4767" xmlns:xlink="http://www.w3.org/1999/xlink" width="32" height="32"><defs><style type="text/css"></style></defs><path d="M380.05248 510.6176h63.11424v103.35232c0 18.97984 15.47776 34.45248 34.45248 34.45248h68.90496c18.9696 0 34.45248-15.47264 34.45248-34.45248V510.6176h62.51008c22.20032 0 26.64448-3.63008 7.59808-23.0144l-104.4992-104.4224c-35.11808-34.85696-34.65216-35.0208-69.64224 0L372.5824 487.60832c-19.3792 19.3792-12.8512 23.00928 7.47008 23.00928z" fill="#808080" p-id="4768"></path><path d="M856.50944 219.16672H443.10016c0-57.05728-46.29504-103.35232-103.35232-103.35232H167.49056c-57.0624 0-103.35232 46.29504-103.35232 103.35232V804.83328c0 57.0624 46.29504 103.35232 103.35232 103.35232h689.01888c57.0624 0 103.35232-46.28992 103.35232-103.35232V322.52416c0-57.0624-46.28992-103.35744-103.35232-103.35744z m34.45248 585.66144a34.47296 34.47296 0 0 1-34.45248 34.45248H167.49056a34.47808 34.47808 0 0 1-34.45248-34.45248v-482.304a34.47296 34.47296 0 0 1 34.45248-34.45248h689.01888a34.47808 34.47808 0 0 1 34.45248 34.45248v482.304z" fill="#808080" p-id="4769"></path><path d="M649.8048 667.02848a34.47808 34.47808 0 0 1-34.45248 34.45248H408.64768a34.47296 34.47296 0 0 1-34.45248-34.45248v-34.45248H305.29536v34.45248c0 57.0624 46.29504 103.35232 103.35744 103.35232h206.69952c57.0624 0 103.35744-46.28992 103.35744-103.35232v-34.45248h-68.89984v34.45248z" fill="#808080" p-id="4770"></path></svg>