<?xml version="1.0" standalone="no"?><!DOCTYPE svg PUBLIC "-//W3C//DTD SVG 1.1//EN" "http://www.w3.org/Graphics/SVG/1.1/DTD/svg11.dtd"><svg class="icon" width="32px" height="24.18px" viewBox="0 0 1355 1024" version="1.1" xmlns="http://www.w3.org/2000/svg"><path fill="#54c5f2" d="M849.68670654 752.51818848c-18.16204834 0-36.27960205-7.3894043-49.45578003-21.90124512-33.78707886-37.30297852-81.90884399-58.62661743-132.07653808-58.62661743-51.01473999 0-97.88983154 20.69989013-131.98754883 58.31515503-24.75137329 27.37820435-66.95123291 29.4694519-94.32861328 4.62991333-27.33206177-24.79421997-29.4241333-66.99655151-4.62991333-94.28411866 58.84909057-64.94815063 143.02798462-102.20663452 230.94607544-102.20663451 87.78378296 0 171.96350098 37.34912109 230.98974609 102.42993164 24.79421997 27.33288574 22.70297242 69.53356933-4.62908936 94.32861328-12.73205566 11.618042-28.80203247 17.31665039-44.82669068 17.31665039l-0.00164794-0.00082398z m148.14733887-167.0657959c-17.04968261 0-34.09936523-6.49868774-47.0975647-19.45321656-75.58648682-75.1876831-175.92517089-116.58581543-282.58456421-116.58581542-106.88021851 0-207.26339722 41.31079102-282.71640015 116.31884765-26.13070679 25.99639893-68.42037964 25.86291504-94.41760253-0.26696777-25.99639893-26.13070679-25.90823364-68.42037964 0.26696777-94.41760254 100.60482788-100.07006836 234.4619751-155.18078613 376.86703491-155.18078614 142.1817627 0 275.99606323 55.19970703 376.77722168 155.44775391 26.17520141 25.9972229 26.26419068 68.28689575 0.26696778 94.46209717-13.04351807 13.04351807-30.2258606 19.67651367-47.36453248 19.67651368l0.00247193-0.00082398z m147.83670044-166.7996521c-16.60308838 0-33.25231934-6.18804932-46.20684815-18.56332397C982.87890625 288.35681152 829.74569702 226.83557128 668.15438843 226.83557128c-161.90277099 0-315.12496948 61.431427-431.39849854 173.07504273-26.57647705 25.50613403-68.86532593 24.66156006-94.41677856-1.95941162C116.78765869 371.33105469 117.67755127 329.04220581 144.25320434 303.53442383 285.54589843 167.93951416 471.57464599 93.28741455 668.1552124 93.28741455c196.17929077 0 382.16436768 74.74108886 523.72402954 210.38049316 26.62014771 25.50613403 27.51086426 67.79663086 2.0022583 94.41677857-13.13168335 13.66644287-30.67080688 20.56640625-48.21075439 20.56640625v0.00164794zM587.49221802 850.05041504c0 44.54901123 36.11315917 80.66217041 80.66217041 80.66217041s80.66217041-36.11315917 80.6621704-80.66217042-36.11315917-80.66217041-80.6621704-80.6621704-80.66217041 36.11315917-80.66217041 80.6621704z" /></svg>