<?xml version="1.0" standalone="no"?><!DOCTYPE svg PUBLIC "-//W3C//DTD SVG 1.1//EN"
    "http://www.w3.org/Graphics/SVG/1.1/DTD/svg11.dtd">
<svg class="icon" width="32px" height="32.00px" viewBox="0 0 1024 1024" version="1.1"
     xmlns="http://www.w3.org/2000/svg">
    <path fill="#F36A5A"
          d="M410.79130859 511.99560547a101.20429687 101.20429687 0 1 0 202.40771485 0 101.20429687 101.20429687 0 1 0-202.40771485 0z"/>
    <path fill="#F36A5A"
          d="M956.47167969 582.60957031a453.28183594 453.28183594 0 0 0 5.51865234-70.61396484C961.99033203 263.46992188 760.52041016 62 511.99472656 62S62 263.46992188 62 511.99560547C62 678.54042969 152.47988281 823.95019531 286.96220703 901.76328125l43.93652344-76.09921875c-27.2671875-15.76230469-52.36787109-35.03759766-74.95048828-57.62109375-33.28417969-33.28417969-59.40527344-72.01757813-77.6381836-115.12792969-18.85869141-44.58515625-28.4203125-91.996875-28.4203125-140.9203125s9.56162109-96.33427734 28.4203125-140.9203125c18.23291016-43.10859375 44.35400391-81.84375 77.6381836-115.12617187s72.01757813-59.40527344 115.12617187-77.6381836c44.58603516-18.85869141 91.99775391-28.4203125 140.92119141-28.4203125 48.92167969 0 96.33427734 9.56162109 140.9203125 28.4203125 43.10859375 18.23291016 81.84287109 44.35400391 115.12617187 77.6381836 33.28330078 33.28417969 59.40527344 72.01757813 77.6381836 115.12617187 18.85869141 44.58603516 28.4203125 91.99775391 28.4203125 140.92119141 0 3.14296875-0.04130859 6.28066406-0.12041016 9.41308594 31.38574219 14.90097656 59.38066406 35.78730469 82.490625 61.2008789z"/>
    <path fill="#F36A5A"
          d="M787.20136719 497.27392578c-7.65087891-145.36494141-127.93535156-260.87783203-275.20664063-260.87783203-152.20898438 0-275.59863281 123.38964844-275.59863281 275.59863281 0 102.00146484 55.41591797 191.053125 137.77998047 238.7100586l43.93037109-76.08955079c-14.0203125-8.12548828-27.07822266-18.12392578-38.84238281-29.88896484-35.45244141-35.45419922-54.97822266-82.59169922-54.97822266-132.73154297s19.52578125-97.27734375 54.97822266-132.73066406c35.45419922-35.45244141 82.59169922-54.97822266 132.73066406-54.97822266s97.27734375 19.52578125 132.73154297 54.97822266c33.33779297 33.33867188 52.58759766 77.00976563 54.76640625 123.79130859a265.39628906 265.39628906 0 0 1 61.11738281-7.10595703c8.97539063 0 17.8453125 0.45263672 26.5913086 1.32451172z"/>
    <path fill="#F36A5A"
          d="M760.60917969 603.17421875c42.05302734 0 81.58886719 16.37666016 111.32402344 46.11269531s46.11269531 69.27011719 46.11269531 111.32226563-16.37666016 81.58886719-46.11269531 111.32402344-69.27099609 46.11269531-111.32402344 46.11269531-81.58798828-16.37666016-111.32226563-46.11269532c-29.73603516-29.73603516-46.11269531-69.27099609-46.11269531-111.32402343s16.37666016-81.58710938 46.11269531-111.32226563c29.73427734-29.73603516 69.27011719-46.11269531 111.32226563-46.11269531m0-43.9453125c-111.21855469 0-201.37939453 90.16259766-201.37939453 201.38027344 0 111.21943359 90.16083984 201.38115234 201.37939453 201.38115234s201.38115234-90.16171875 201.38115234-201.38115234c0-111.21767578-90.16259766-201.37939453-201.38115234-201.37939453z"/>
    <path fill="#F36A5A"
          d="M726.92861328 851.37646484a33.68144531 33.68144531 0 1 0 67.36201172 0 33.68144531 33.68144531 0 1 0-67.36201172 0zM760.60917969 634.57402344c-18.20830078 0-32.97304688 9.55107422-32.97304688 21.33017578 0 11.77998047 0.46054688 141.29384766 32.97304688 141.29384765s32.97480469-129.51298828 32.97480469-141.29384765c0-11.77910156-14.765625-21.33017578-32.97480469-21.33017578z"/>
</svg>
