<?xml version="1.0" standalone="no"?><!DOCTYPE svg PUBLIC "-//W3C//DTD SVG 1.1//EN"
    "http://www.w3.org/Graphics/SVG/1.1/DTD/svg11.dtd">
<svg class="icon" width="32px" height="32.00px" viewBox="0 0 1024 1024" version="1.1"
     xmlns="http://www.w3.org/2000/svg">
    <path fill="#F36A5A"
          d="M421.49033201 421.49033201a128 128 0 1 0 181.01933598 181.01933598 128 128 0 1 0-181.01933598-181.01933598z"/>
    <path fill="#F36A5A"
          d="M368.81936209 639.97218526a192 192 0 1 0 286.35279054-255.848204 192 192 0 1 0-286.35279054 255.848204z"/>
    <path fill="#F36A5A"
          d="M959.99457229 512l-63.9931637 0a383.62 383.62 0 0 1-384.00140859 384.00140859l0 63.9931637a448 448 0 0 0 448.00164336-448.00164336zM512 256.02734521l-0.00707107-64.00023476a320 320 0 0 0-320.00117382 320.00117382L256.02734521 512a255.73 255.73 0 0 1 255.97265479-255.97265479z m320.00117383 255.99386799L767.97265479 512a255.73 255.73 0 0 1-255.97265479 255.97265479l0 64.00730583a320 320 0 0 0 320.00117383-320.00117382zM156.11315703 367.46737393a383.62 383.62 0 0 1 355.90098511-239.48292466l0-63.99316369a448 448 0 0 0-448.00164336 448.00164335l63.9931637 0a382.8 382.8 0 0 1 28.10749455-144.525555z"/>
</svg>
