<?xml version="1.0" standalone="no"?><!DOCTYPE svg PUBLIC "-//W3C//DTD SVG 1.1//EN" "http://www.w3.org/Graphics/SVG/1.1/DTD/svg11.dtd"><svg class="icon" width="32px" height="32.00px" viewBox="0 0 1024 1024" version="1.1" xmlns="http://www.w3.org/2000/svg"><path fill="#808080" d="M558.433542 369.607966c0 17.237593-13.973246 31.210839-31.210839 31.210839H287.47741c-17.237593 0-31.210839-13.973246-31.210839-31.210839s13.973246-31.210839 31.210839-31.210839h239.745293c17.237593 0 31.210839 13.974269 31.210839 31.210839zM492.089531 497.692133c0 17.237593-13.973246 31.210839-31.210839 31.210839H287.648302c-17.237593 0-31.210839-13.973246-31.210839-31.210839s13.973246-31.210839 31.210839-31.210839h173.23039c17.237593 0 31.210839 13.973246 31.210839 31.210839zM427.406346 624.326275c0 17.237593-13.973246 31.210839-31.210839 31.210839H289.480021c-17.237593 0-31.210839-13.973246-31.21084-31.210839s13.973246-31.210839 31.21084-31.210839h106.715486c17.237593 0 31.210839 13.973246 31.210839 31.210839z"  /><path fill="#808080" d="M322.005808 786.605242H199.253066v-547.98047h516.769631v93.102445h66.770729v-108.470457c0-28.257577-22.907733-51.16531-51.16531-51.16531H179.254593c-28.257577 0-51.16531 22.907733-51.16531 51.16531v577.62258c0 28.257577 22.907733 51.16531 51.16531 51.16531h142.751215v-65.439408z"  /><path fill="#808080" d="M749.408061 330.320171m-33.385364 0a33.385365 33.385365 0 1 0 66.770729 0 33.385365 33.385365 0 1 0-66.770729 0Z"  /><path fill="#808080" d="M320.069713 819.2395m-32.942273 0a32.942273 32.942273 0 1 0 65.884546 0 32.942273 32.942273 0 1 0-65.884546 0Z"  /><path fill="#808080" d="M886.046045 783.242657L679.344333 408.689053s-12.3247-23.133883-30.43415-23.133883c-0.122797 0-0.242524 0.007163-0.36225 0.013303-0.119727-0.00614-0.239454-0.013303-0.362251-0.013303-18.108426 0-30.43415 23.133883-30.43415 23.133883L411.04982 783.242657s-13.730723 21.331841-3.374864 37.279045c9.862625 15.186887 35.977399 12.924357 35.9774 12.924358l112.627127 0.050142v0.068561h184.535876v-0.068561l112.627127-0.050142s26.114774 2.26253 35.977399-12.924358c10.356882-15.94618-3.373841-37.279045-3.37384-37.279045z m-85.175915 0.756224l-306.437228-0.092098s-10.370185 0.556679-13.242605-4.110621c-2.907213-4.723581 4.049223-15.700587 4.049223-15.700587l153.515372-288.924365s5.853311-10.770298 12.028965-10.656711c5.588275 0.103354 10.898211 11.012821 10.898211 11.012821l150.231583 290.432719s5.17179 9.348925 2.945075 13.803377c-2.577708 5.155417-13.988596 4.235464-13.988596 4.235465z"  /><path fill="#808080" d="M671.976528 668.906609c0 12.715603-10.308787 23.024389-23.02439 23.02439s-23.024389-10.308787-23.024389-23.02439v-94.14417c0-12.715603 10.308787-23.024389 23.024389-23.024389s23.024389 10.308787 23.02439 23.024389v94.14417zM673.511487 722.630185c0 12.43317-10.079566 22.512736-22.512736 22.512736s-22.512736-10.079566-22.512737-22.512736 10.079566-22.512736 22.512737-22.512737 22.512736 10.079566 22.512736 22.512737z"  /></svg>