<?xml version="1.0" standalone="no"?><!DOCTYPE svg PUBLIC "-//W3C//DTD SVG 1.1//EN" "http://www.w3.org/Graphics/SVG/1.1/DTD/svg11.dtd"><svg class="icon" width="32px" height="32.00px" viewBox="0 0 1024 1024" version="1.1" xmlns="http://www.w3.org/2000/svg"><path fill="#808080" d="M467.478261 957.985007c-28.657671 0-52.709645-18.934533-61.409295-45.033483H337.495252c10.234883 62.432784 63.968016 111.048476 129.471265 111.048476s119.236382-48.103948 129.471264-111.048476h-67.550225c-9.211394 26.098951-32.751624 45.033483-61.409295 45.033483zM271.992004 314.722639c-26.610695 35.822089-40.427786 77.785107-40.427786 121.795102v185.251374c0 10.234883 8.187906 18.422789 18.422788 18.422789s18.422789-8.187906 18.422789-18.422789V437.029485c0-36.333833 11.770115-71.132434 33.263368-99.790105 6.14093-8.187906 4.605697-19.958021-3.582208-25.587206-8.69965-6.652674-20.469765-5.117441-26.098951 3.070465z"  /><path fill="#808080" d="M439.844078 857.171414c0-18.422789-14.84058-33.263368-33.263368-33.263368H115.910045c25.587206-35.822089 52.709645-85.973013 56.803598-144.823588 3.582209-52.197901 2.558721-136.635682 2.046977-198.556722l-0.511744-47.592204c0-80.855572 34.286857-158.128936 94.672663-212.373813 58.338831-52.709645 132.541729-76.249875 210.326837-68.061969 61.921039 6.652674 118.724638 35.822089 163.246377 83.926037 12.793603 13.817091 33.263368 14.328836 46.056971 1.535232 13.305347-12.281859 14.328836-33.263368 1.535233-46.056971-42.474763-45.545227-95.696152-77.785107-153.011495-94.16092v-4.605697C537.075462 43.498251 497.671164 3.582209 448.543728 3.582209S360.523738 43.498251 360.523738 93.137431v4.605697c-49.63918 13.817091-96.207896 38.38081-136.123938 74.714643-74.202899 65.503248-116.165917 160.687656-116.165917 260.477761l0.511744 47.592204c0.511744 60.897551 1.023488 144.311844-2.046976 193.951025-5.629185 89.043478-84.437781 156.593703-85.46127 157.617191-10.746627 8.69965-14.328836 23.54023-9.211394 36.333833s16.887556 21.493253 30.704648 21.493253h365.385307c17.3993 0 31.728136-14.84058 31.728136-32.751624z m9.211394-788.085957c10.234883 0 18.422789 7.164418 20.98151 17.399301-14.328836-1.023488-28.145927-1.023488-42.474763 0 3.070465-9.723138 11.258371-17.3993 21.493253-17.399301z"  /><path fill="#808080" d="M966.94053 589.017491c-3.070465-1.535232-4.093953-3.582209-4.093953-5.117441-0.511744-1.535232 0-4.093953 2.046976-6.652674 2.558721-2.558721 5.117441-4.605697 9.211395-6.140929 29.681159-13.305347 45.033483-38.892554 41.963018-68.061969-3.070465-30.704648-12.281859-56.291854-27.634183-77.785108-20.469765-28.145927-52.709645-37.869065-84.437781-24.563718-4.605697 2.046977-8.69965 2.558721-13.305347 2.558721-2.558721 0-5.629185-2.558721-6.14093-4.605697 0-3.070465 0-6.14093 1.535233-10.234883 3.070465-8.69965 7.676162-22.516742 4.605697-38.892554-5.117441-25.587206-23.028486-39.916042-31.728136-46.568715-23.54023-19.446277-51.686157-25.075462-70.62069-27.634183-23.54023-3.582209-46.056972 5.117441-60.897551 24.051974-5.629185 7.164418-10.746627 14.328836-13.817092 22.004997-1.023488 2.046977-6.14093 8.69965-13.817091 4.093953-3.070465-1.535232-4.605697-5.629185-7.164418-12.281859-13.817091-27.634183-37.869065-41.963018-67.550225-38.380809-33.263368 3.582209-58.850575 13.817091-79.832084 30.704647-23.028486 18.934533-32.23988 44.009995-25.075462 71.644178 0.511744 3.070465 1.023488 5.629185 2.046977 8.69965 0 0 1.023488 3.582209 1.023488 6.14093 0 2.046977 0.511744 3.582209-0.511744 5.629185s-3.070465 4.605697-8.187906 4.093953c-3.582209 0-8.69965-1.535232-18.934533-4.093953-14.84058-4.093953-42.986507-6.652674-69.085457 22.004998-17.911044 20.469765-25.075462 43.498251-29.68116 63.456272-8.187906 34.798601 5.117441 77.273363 46.056972 91.602199 0.511744 0.511744 6.14093 0.511744 6.652673 6.652673 0.511744 3.070465-4.093953 7.164418-12.793603 11.258371-29.681159 12.281859-44.521739 38.38081-42.474762 71.644178 2.046977 28.145927 11.770115 54.244878 29.681159 76.761619 17.911044 23.54023 44.521739 33.263368 73.691154 26.610695 8.69965-2.046977 16.375812-3.582209 20.98151-3.582209 0 2.558721-1.535232 7.164418-3.070465 11.770115-3.070465 8.187906-7.164418 21.493253-4.605697 37.357321 2.558721 17.3993 11.770115 32.23988 27.122439 45.033484 19.958021 16.375812 44.009995 26.610695 75.226386 32.751624 36.333833 6.652674 69.597201-11.258371 82.390805-43.498251 0.511744-1.535232 3.070465-12.281859 10.746627-11.770115 5.629185 0.511744 6.14093 4.605697 10.234882 13.305347 12.793603 27.634183 36.333833 44.009995 63.456272 44.009995 3.070465 0 6.14093 0 9.211394-0.511744 25.587206-3.070465 49.63918-12.793603 71.132434-26.610695 30.192904-20.469765 40.93953-57.315342 26.098951-89.555222-0.511744-1.535232-2.558721-7.676162-1.023489-10.746627 2.558721-4.605697 12.793603 0 23.54023 2.558721 28.145927 6.652674 55.78011-1.535232 76.249875-24.563718 19.958021-22.516742 26.610695-49.63918 30.192904-67.550225 4.605697-27.122439-4.093953-46.568716-12.793603-58.338831-11.258371-16.375812-24.563718-24.051974-35.822089-28.657671z m-16.887556 73.179411c-3.070465 16.375812-7.164418 27.122439-14.328836 35.310344-5.117441 6.14093-7.676162 5.629185-11.258371 4.605698-15.352324-3.582209-32.751624-6.652674-51.686157-3.582209-28.145927 5.117441-52.197901 31.728136-54.244877 59.874063-1.023488 15.864068 1.023488 29.681159 6.652673 41.963018 2.046977 4.093953-2.046977 7.164418-3.070464 8.187906-13.305347 8.69965-26.610695 14.328836-42.986507 16.375812-0.511744 0-2.046977-2.046977-3.582209-5.117441-8.69965-20.469765-23.028486-35.310345-41.451274-42.986507-24.563718-11.258371-50.150925-7.676162-72.155923 8.69965-13.305347 10.234883-22.516742 22.004998-27.634182 36.333833-0.511744 1.535232-1.535232 4.093953-9.211395 3.070465-19.958021-3.582209-34.286857-9.211394-45.033483-18.934533l-4.605697-4.093953 2.046976-3.582208c4.093953-10.746627 8.187906-23.028486 7.164418-38.38081-1.535232-31.216392-24.563718-56.803598-55.78011-60.897551-4.093953-0.511744-8.187906-0.511744-12.281859-0.511744-12.281859 0-23.028486 2.046977-33.775112 4.605697-4.093953 1.023488-4.605697 0.511744-6.652674-2.046977-9.211394-12.793603-14.84058-26.098951-15.864068-41.451274v-4.093953l2.046977-2.046977c19.446277-12.281859 36.845577-23.54023 46.056971-42.474762 12.281859-24.051974 8.69965-50.662669-7.676162-70.62069-8.187906-9.211394-19.446277-21.493253-35.310345-26.610695-7.164418-2.558721-4.605697-14.84058-4.605697-14.840579 4.093953-17.3993 8.187906-27.634183 20.469765-36.333833 10.234883 2.558721 22.516742 6.14093 37.357322 5.117441 38.38081-2.558721 65.503248-28.145927 67.550225-63.968016l1.023488-11.258371-0.511744-13.305347c-0.511744-6.14093-1.535232-12.793603 0-23.028486 11.258371-8.69965 25.587206-14.328836 47.080459-15.352324 4.093953 8.69965 10.746627 20.981509 21.493254 31.728136 16.887556 15.864068 39.404298 22.516742 62.432783 18.422789 24.051974-4.093953 45.033483-19.958021 55.78011-41.451275 1.535232-3.070465 3.582209-6.652674 6.14093-9.211394 17.911044 2.558721 29.681159 6.652674 37.869065 13.817092 2.046977 1.535232 8.187906 6.652674 8.699651 6.652673l-2.046977 6.14093c-4.605697 12.793603-6.14093 24.563718-5.117441 37.869065 3.070465 34.798601 33.263368 62.944528 67.550225 64.47976 14.328836 0 28.145927-2.046977 41.963018-7.676162l3.070465-1.535232 3.070465 3.582209c8.69965 12.281859 13.817091 26.610695 12.793603 47.08046-12.281859 5.117441-22.516742 12.793603-31.216392 21.493253-16.375812 17.3993-23.028486 40.93953-18.934533 63.968016 4.093953 23.028486 19.958021 42.474763 40.939531 52.709645 3.582209 1.535232 8.187906 4.093953 10.234882 6.14093 1.535232 0.511744 2.046977 2.046977 1.535233 7.164418z"  /><path fill="#808080" d="M704.415792 426.794603c-86.484758 1.023488-154.546727 69.085457-154.546727 154.546726 0 41.451274 16.375812 80.855572 46.056972 110.024988 28.657671 28.657671 67.038481 44.521739 108.489755 44.521739h1.535232c85.973013-1.023488 155.570215-70.62069 155.058471-155.058471-0.511744-41.451274-16.887556-80.343828-46.568715-109.513243-29.681159-29.681159-69.085457-44.521739-110.024988-44.521739z m0.511744 243.07846c-24.563718 2.046977-45.545227-8.69965-62.944528-25.587206s-26.610695-39.404298-26.610694-62.944528c0-48.615692 38.892554-87.508246 89.555222-88.531734h1.023488c23.028486 0 45.033483 8.69965 61.92104 25.075462 17.3993 16.887556 26.610695 38.892554 26.610695 62.944528 0.511744 48.615692-39.404298 88.531734-89.555223 89.043478z"  /></svg>