<?xml version="1.0" standalone="no"?><!DOCTYPE svg PUBLIC "-//W3C//DTD SVG 1.1//EN" "http://www.w3.org/Graphics/SVG/1.1/DTD/svg11.dtd"><svg t="1531982675068" class="icon" style="" viewBox="0 0 1024 1024" version="1.1" xmlns="http://www.w3.org/2000/svg" p-id="2957" xmlns:xlink="http://www.w3.org/1999/xlink" width="32" height="32"><defs><style type="text/css"></style></defs><path d="M869.869 367.467c17.861 42.786 28.238 92.497 28.242 144.627 0 29.808-3.731 58.796-10.166 86.752l124.571 32.374c-37.324 147.052-135.827 270.493-270.022 338.39 0 0-17.747 9.168-26.955 13.113l-56.331-113.83c-43.451 18.476-93.988 29.217-147.036 29.217-0.061 0-0.121 0-0.181 0-23.873 0-47.139-2.473-69.821-6.622l-27.028 121.026c-146.42-33.303-271.293-129.433-342.050-263.385 0 0-9.424-17.747-13.698-26.828l99.662-54.156c-20.948-45.932-33.162-99.626-33.163-156.173 0-26.801 2.761-52.974 7.967-78.256l-122.37-31.806c37.28-147.078 135.795-270.535 270.006-338.39 0 0 17.702-9.168 26.913-13.127l52.569 106.196c44.427-19.41 96.195-30.703 150.603-30.703 0.149 0 0.298 0 0.448 0 32.81 0 64.5 4.549 94.93 12.256l28.286-126.661c146.409 33.303 271.25 129.433 342.010 263.341 0 0 9.595 17.847 13.744 26.828l-121.124 65.81zM512 197.391c-173.75 0-314.609 140.861-314.609 314.609s140.861 314.609 314.609 314.609 314.609-140.861 314.609-314.609-140.861-314.609-314.609-314.609zM469.099 569.202l-42.901-257.409h171.605l-42.901 257.409h-85.804zM512 597.804c39.491 0.002 71.502 32.019 71.502 71.509 0 39.495-32.017 71.509-71.509 71.509-0.001 0-0.003 0-0.004 0-39.49-0.002-71.5-32.019-71.5-71.509 0-39.495 32.017-71.509 71.509-71.509 0.002 0 0.003 0 0.005 0z" fill="#808080" p-id="2958"></path></svg>