<?xml version="1.0" standalone="no"?><!DOCTYPE svg PUBLIC "-//W3C//DTD SVG 1.1//EN"
    "http://www.w3.org/Graphics/SVG/1.1/DTD/svg11.dtd">
<svg class="icon" width="32px" height="32.00px" viewBox="0 0 1024 1024" version="1.1"
     xmlns="http://www.w3.org/2000/svg">
    <path fill="#f39943"
          d="M554.269296 320.071713L511.393664 192.084751l-42.875632 127.986962H63.439299v703.928287h895.908729V320.071713zM831.361067 896.013039H191.42626V448.058674h639.934807z m-479.951105-127.986962A95.990221 95.990221 0 1 0 255.419741 670.755987 95.990221 95.990221 0 0 0 351.409962 768.026077zM639.380625 576.045635H575.387144v191.980442h63.993481z m127.986961 0h-63.99348v191.980442h63.99348zM664.978017 178.006186l76.792177-102.389569a389.720297 389.720297 0 0 0-461.392995 0l76.792176 102.389569a259.813531 259.813531 0 0 1 307.808642 0z"/>
</svg>
