<?xml version="1.0" standalone="no"?><!DOCTYPE svg PUBLIC "-//W3C//DTD SVG 1.1//EN"
    "http://www.w3.org/Graphics/SVG/1.1/DTD/svg11.dtd">
<svg class="icon" width="32px" height="32.00px" viewBox="0 0 1024 1024" version="1.1"
     xmlns="http://www.w3.org/2000/svg">
    <path fill="#4db3a4"
          d="M872.519285 560.370273c12.041392 26.960677 1.709878 55.426529-23.023142 63.686924L221.152211 832.553904c-24.901599 8.224271-54.679962-6.935842-66.757479-33.884478-12.029351-26.90047-1.770085-55.378363 23.035183-63.602634L805.773848 526.570085c24.793227-8.272437 54.57159 6.887676 66.745437 33.800188zM805.761806 832.553904c24.841392 8.224271 54.631797-6.935842 66.757479-33.884478 12.041392-26.90047 1.709878-55.378363-23.023142-63.602634l-82.784572-27.442333-168.832361 55.968391 207.882596 68.961054zM221.104045 526.558043c-24.889558-8.260395-54.692004 6.899718-66.745437 33.824271-12.053434 26.960677-1.794167 55.426529 22.987018 63.686924l82.929068 27.454374 168.711948-56.028598-207.882597-68.936971zM593.062653 522.042521s204.88429-74.451929 97.968768-200.56143c-31.440075-40.230292-52.693133-93.730198-29.007715-157.043838 0 0-70.189276 65.866416-49.092756 132.371025-9.693321-14.750706-106.590405-52.705174-98.847789-238.889181 0 0-117.475823 92.586265-117.475823 206.028222 0 0 11.102164 130.817686 74.945625 151.239887 0 0-97.499153-24.696896-117.078457-148.012794-4.780433 14.847037-125.459266 148.891816 39.78476 250.89445 0 0-60.893321-40.82032-31.175164-117.837065 60.038382 101.545061 180.163311 29.308749 180.163311 29.308749s-124.616369-28.682596-56.871496-191.265475c15.581562 84.313829 90.527187 129.107808 138.066604 136.561429-24.985889-50.320978 18.134337-11.631985 36.702164 19.820132 24.468109 60.929445-68.082032 127.385889-68.082032 127.385889z"/>
</svg>
