<?xml version="1.0" standalone="no"?><!DOCTYPE svg PUBLIC "-//W3C//DTD SVG 1.1//EN"
    "http://www.w3.org/Graphics/SVG/1.1/DTD/svg11.dtd">
<svg class="icon" width="32px" height="32.00px" viewBox="0 0 1024 1024" version="1.1"
     xmlns="http://www.w3.org/2000/svg">
    <path fill="#808080"
          d="M517.669204 720.697578l-36.141176-21.968166c-11.338408-6.377855-270.704498-165.115571-270.704499-391.175087a306.845675 306.845675 0 0 1 614.4 0c0 226.768166-259.36609 384.797232-270.704498 391.175087z m0-578.967474a165.824221 165.824221 0 0 0-165.115571 165.115571c0 106.297578 107.714879 201.256747 165.824222 244.484429 66.613149-49.605536 165.115571-141.730104 165.115571-244.484429A165.824221 165.824221 0 0 0 517.669204 141.730104z"/>
    <path fill="#808080"
          d="M517.669204 306.845675m-94.250519 0a94.250519 94.250519 0 1 0 188.501038 0 94.250519 94.250519 0 1 0-188.501038 0Z"/>
    <path fill="#808080"
          d="M685.619377 1024l-31.889273-63.778547 68.03045-34.015225H1.771626l465.583391-214.012456 29.763322 63.778546-172.202076 79.368858h697.312111l-336.608997 168.658824z"/>
</svg>
