<?xml version="1.0" standalone="no"?><!DOCTYPE svg PUBLIC "-//W3C//DTD SVG 1.1//EN" "http://www.w3.org/Graphics/SVG/1.1/DTD/svg11.dtd"><svg class="icon" width="32px" height="32.00px" viewBox="0 0 1024 1024" version="1.1" xmlns="http://www.w3.org/2000/svg"><path fill="#808080" d="M768 704h128v320h-128v-320z m-192 128h128v192H576v-192z"  /><path fill="#808080" d="M512 128a128 128 0 0 0-128 128v64a128 128 0 1 0 256 0V256a128 128 0 0 0-128-128z m0-128a256 256 0 0 1 256 256v64a256 256 0 1 1-512 0V256a256 256 0 0 1 256-256z"  /><path fill="#808080" d="M704 640V576l96.512-96.512L896 576l-64 64zM128 1024V576l96.512-96.512L320 576l-64 64v258.176h256V1024z"  /></svg>