<?xml version="1.0" encoding="utf-8"?>
<!-- Generator: Adobe Illustrator 17.0.0, SVG Export Plug-In . SVG Version: 6.00 Build 0)  -->
<!DOCTYPE svg PUBLIC "-//W3C//DTD SVG 1.1//EN" "http://www.w3.org/Graphics/SVG/1.1/DTD/svg11.dtd">
<svg version="1.1" id="图层_1" xmlns="http://www.w3.org/2000/svg" xmlns:xlink="http://www.w3.org/1999/xlink" x="0px" y="0px"
	 width="22px" height="22px" viewBox="0 0 22 22" enable-background="new 0 0 22 22" xml:space="preserve">
<path fill="#878787" d="M5.093,22.033H19.15c1.209,0,2.212-0.918,2.212-2.079c0-1.161-1.002-2.079-2.212-2.079H3.084
	c-0.454,0-0.801-0.318-0.801-0.68c0-0.363,0.347-0.681,0.801-0.681h2.51c0.388,0.002,0.703-0.311,0.705-0.699c0,0,0,0,0-0.001
	c-0.002-0.388-0.317-0.701-0.705-0.699l0,0h-2.51c-1.209,0-2.211,0.918-2.211,2.079s1.002,2.079,2.211,2.079H19.15
	c0.455,0,0.801,0.317,0.801,0.68s-0.347,0.68-0.801,0.68H5.093c-0.388-0.001-0.704,0.312-0.705,0.7
	C4.389,21.722,4.705,22.035,5.093,22.033z"/>
<path fill="#878787" d="M18.449,15.213l-1.907-0.01l0.036-6.219c0-3.016-2.445-5.461-5.461-5.461s-5.461,2.444-5.461,5.46
	l-0.004,6.229H3.746c-0.151,0-0.274-0.1-0.274,0.051v1.092c0,0.151,0.145,0.17,0.296,0.17l14.699,0.016
	c0.151,0,0.296-0.035,0.296-0.185v-1.092C18.763,15.264,18.6,15.213,18.449,15.213z M15.149,15.062H7.086v-6.03
	c0-2.226,1.805-4.031,4.031-4.031s4.031,1.805,4.031,4.031V15.062z"/>
<path fill="#878787" d="M10.298,0.245c0.29-0.29,1.381-0.319,1.638,0c0.343,0.425,0.386,1.798,0,2.185
	c-0.29,0.29-1.32,0.257-1.638,0C9.873,2.087,9.912,0.631,10.298,0.245z"/>
<path fill="#878787" d="M6.04,1.826C6.146,1.431,7.077,0.86,7.459,1.007c0.51,0.196,1.234,1.364,1.092,1.892
	C8.445,3.295,7.537,3.782,7.132,3.718C6.593,3.633,5.899,2.354,6.04,1.826z"/>
<path fill="#878787" d="M3.139,5.323C2.992,4.941,3.562,4.01,3.958,3.904C4.485,3.763,5.713,4.468,5.85,4.997
	c0.103,0.397-0.436,1.275-0.819,1.419C4.519,6.607,3.335,5.833,3.139,5.323z"/>
<path fill="#878787" d="M16.385,4.996c0.085-0.539,1.364-1.234,1.892-1.092c0.396,0.106,0.966,1.037,0.819,1.419
	c-0.196,0.51-1.364,1.234-1.892,1.092C16.808,6.309,16.321,5.401,16.385,4.996z"/>
<path fill="#878787" d="M13.683,2.897c-0.196-0.51,0.565-1.75,1.092-1.892c0.396-0.106,1.355,0.415,1.419,0.819
	c0.085,0.539-0.565,1.75-1.092,1.892C14.706,3.822,13.83,3.279,13.683,2.897z"/>
<path fill="#878787" d="M13.28,9.486h-1.734l0.325-2.269c0.009-0.075-0.045-0.143-0.12-0.151c-0.044-0.005-0.088,0.012-0.118,0.045
	l-2.782,3.244c-0.048,0.057-0.041,0.144,0.017,0.192c0.024,0.02,0.055,0.031,0.086,0.032h1.734l-0.325,2.269
	c-0.009,0.075,0.045,0.143,0.12,0.151c0.044,0.005,0.088-0.012,0.118-0.045l2.783-3.244c0.048-0.058,0.04-0.144-0.018-0.192
	C13.342,9.498,13.311,9.486,13.28,9.486z"/>
</svg>
