<?xml version="1.0" encoding="utf-8"?>
<!-- Generator: Adobe Illustrator 17.0.0, SVG Export Plug-In . SVG Version: 6.00 Build 0)  -->
<!DOCTYPE svg PUBLIC "-//W3C//DTD SVG 1.1//EN" "http://www.w3.org/Graphics/SVG/1.1/DTD/svg11.dtd">
<svg version="1.1" id="图层_1" xmlns="http://www.w3.org/2000/svg" xmlns:xlink="http://www.w3.org/1999/xlink" x="0px" y="0px"
	 width="18px" height="18px" viewBox="0 0 18 18" enable-background="new 0 0 18 18" xml:space="preserve">
<path fill="#E83707" d="M4.187,18.034h11.504c0.99,0,1.81-0.751,1.81-1.702c0-0.95-0.82-1.701-1.81-1.701l-13.147,0
	c-0.372,0-0.655-0.26-0.655-0.557c0-0.297,0.284-0.557,0.655-0.557h2.054c0.317,0.001,0.576-0.255,0.577-0.572c0,0,0,0,0-0.001
	c-0.001-0.317-0.26-0.574-0.577-0.572c0,0,0,0,0,0H2.543c-0.99,0-1.81,0.751-1.81,1.702c0,0.95,0.82,1.701,1.81,1.701h13.147
	c0.372,0,0.656,0.26,0.656,0.557s-0.284,0.557-0.656,0.557l-11.504,0c-0.317-0.001-0.576,0.255-0.577,0.573
	C3.611,17.779,3.87,18.035,4.187,18.034z"/>
<path fill="#E83707" d="M15.117,12.452l-1.56-0.009l0.03-5.089c0-2.468-2.001-4.469-4.469-4.469S4.648,4.886,4.648,7.354
	l-0.003,5.098h-1.56c-0.123,0-0.224-0.082-0.224,0.042v0.894c0,0.123,0.119,0.139,0.242,0.139l12.029,0.013
	c0.123,0,0.242-0.028,0.242-0.152v-0.894C15.374,12.494,15.24,12.452,15.117,12.452z"/>
<path fill="#E83707" d="M8.447,0.203c0.237-0.237,1.13-0.261,1.341,0c0.281,0.348,0.316,1.472,0,1.788
	c-0.237,0.237-1.08,0.211-1.341,0C8.099,1.71,8.131,0.519,8.447,0.203z"/>
<path fill="#E83707" d="M4.962,1.497c0.087-0.324,0.848-0.791,1.161-0.67c0.417,0.161,1.01,1.116,0.894,1.548
	c-0.087,0.324-0.83,0.722-1.161,0.67C5.414,2.976,4.846,1.929,4.962,1.497z"/>
<path fill="#E83707" d="M2.588,4.359c-0.12-0.313,0.347-1.074,0.67-1.161C3.69,3.082,4.695,3.659,4.807,4.092
	c0.084,0.325-0.356,1.044-0.67,1.161C3.718,5.409,2.749,4.776,2.588,4.359z"/>
<path fill="#E83707" d="M13.428,4.091c0.069-0.441,1.116-1.01,1.548-0.894c0.324,0.087,0.791,0.848,0.67,1.161
	c-0.161,0.417-1.116,1.01-1.548,0.894C13.775,5.165,13.376,4.422,13.428,4.091z"/>
<path fill="#E83707" d="M11.217,2.374c-0.161-0.417,0.462-1.433,0.894-1.548c0.324-0.087,1.109,0.339,1.161,0.67
	c0.069,0.441-0.462,1.433-0.894,1.548C12.054,3.131,11.337,2.686,11.217,2.374z"/>
<path fill="#FFFFFF" d="M10.887,7.131H9.468l0.266-1.857C9.741,5.212,9.697,5.157,9.636,5.15C9.6,5.146,9.564,5.159,9.54,5.187
	L7.263,7.841C7.223,7.889,7.229,7.959,7.277,7.999c0.02,0.017,0.045,0.026,0.071,0.026h1.419L8.501,9.882
	c-0.007,0.061,0.037,0.117,0.098,0.124c0.036,0.004,0.072-0.01,0.096-0.037l2.277-2.655c0.039-0.047,0.033-0.118-0.014-0.157
	C10.938,7.14,10.913,7.131,10.887,7.131z"/>
</svg>
