<?xml version="1.0" standalone="no"?><!DOCTYPE svg PUBLIC "-//W3C//DTD SVG 1.1//EN" "http://www.w3.org/Graphics/SVG/1.1/DTD/svg11.dtd"><svg t="1529564933887" class="icon" style="" viewBox="0 0 1117 1024" version="1.1" xmlns="http://www.w3.org/2000/svg" p-id="2289" xmlns:xlink="http://www.w3.org/1999/xlink" width="34.90625" height="32"><defs><style type="text/css"></style></defs><path d="M924.4672 987.02848l-73.25184-80.75776 13.42976-13.77792c111.89248-114.8416 155.04384-251.66336 128.2816-406.70208-19.328-111.9488-75.88352-204.59008-168.09984-275.35872-76.73856-58.92608-168.41728-90.07104-265.09824-90.07104-121.02144 0-234.07104 48.36352-318.32576 136.18176-168.3712 175.49824-162.93888 466.63168 11.8528 635.72992l15.49824 15.00672-79.872 74.4704-13.97248-13.16864C77.33248 876.5952 16.384 743.5264 7.68 603.48416c-9.18528-147.9168 39.3216-291.34848 136.58624-403.88096 104.91904-121.43104 255.9488-191.06816 414.37184-191.06816 148.57728 0 288.41472 59.55584 393.75872 167.69536 105.0368 107.83744 161.4848 249.89184 158.9504 399.99488-2.52416 149.53984-65.1008 293.94944-171.66848 396.21632l-15.21152 14.58688z" p-id="2290" fill="#808080"></path><path d="M811.4688 261.58592c-8.1408 17.54112-16.27136 35.08736-24.45824 52.62848-54.84544 117.36064-167.65952 360.45312-168.33536 364.8256-4.80256 30.08512-29.08672 53.49376-58.04544 55.56224-31.54944 2.24256-58.59328-16.78848-67.95776-47.81056-8.13568-27.03872 4.61824-58.13248 29.88544-73.5488 4.18304-2.56 192.0512-234.01984 282.2656-346.34752 1.72544-2.05312 3.47648-4.096 5.22752-6.1184 0.4352 0.24576 0.92672 0.55808 1.41824 0.80896" p-id="2291" fill="#808080"></path></svg>