<?xml version="1.0" standalone="no"?><!DOCTYPE svg PUBLIC "-//W3C//DTD SVG 1.1//EN" "http://www.w3.org/Graphics/SVG/1.1/DTD/svg11.dtd"><svg class="icon" width="32px" height="32.00px" viewBox="0 0 1024 1024" version="1.1" xmlns="http://www.w3.org/2000/svg"><path fill="#808080" d="M548.82304 468.74624c-9.43104-20.49024-62.1568-131.9168-172.3392-309.49888-0.03072-0.03072-0.0512-0.06144-0.06656-0.1024-0.78336-1.25952-1.64864-2.4576-2.51904-3.65056-0.2304-0.31232-0.44544-0.64-0.67584-0.9472-0.54784-0.72704-1.17248-1.39776-1.75616-2.09408-0.61952-0.7168-1.21856-1.4592-1.8432-2.12992-0.2304-0.25088-0.50176-0.47616-0.74752-0.72704-1.03936-1.06496-2.08896-2.08896-3.2-3.03616-0.03072-0.02048-0.04096-0.04096-0.07168-0.06144-0.20992-0.1792-0.4352-0.32768-0.65536-0.50688-1.11104-0.90624-2.22208-1.80224-3.38432-2.60096-0.55808-0.38912-1.13152-0.71168-1.69984-1.0752-0.83968-0.53248-1.6896-1.07008-2.54976-1.55136-0.82944-0.4608-1.67424-0.84992-2.51392-1.24928-0.62976-0.29696-1.24416-0.61952-1.8944-0.88576-0.97792-0.4096-1.97632-0.74752-2.97984-1.09056-0.53248-0.18944-1.0496-0.39424-1.60256-0.55296-1.024-0.30208-2.03264-0.53248-3.06176-0.76288-0.57856-0.12288-1.13152-0.27136-1.71008-0.37888-0.95744-0.17408-1.89952-0.2816-2.8672-0.39424-0.67584-0.0768-1.35168-0.17408-2.01728-0.21504-0.82944-0.05632-1.64864-0.05632-2.4576-0.07168-0.83968-0.00512-1.65888-0.0256-2.46784 0.01024-0.67584 0.03072-1.36192 0.1024-2.02752 0.15872-0.96768 0.09728-1.92 0.17408-2.87744 0.32768-0.56832 0.08704-1.1264 0.21504-1.70496 0.3328-1.03424 0.19968-2.05312 0.4096-3.09248 0.68608-0.53248 0.14848-1.05984 0.3328-1.60768 0.50176-1.00352 0.32256-2.00704 0.64-3.00032 1.02912-0.64 0.24064-1.23392 0.5376-1.86368 0.81408-0.87552 0.39424-1.74592 0.76288-2.59584 1.20832-0.83968 0.43008-1.62816 0.9216-2.44224 1.40288-0.62976 0.37376-1.2544 0.72192-1.87392 1.12128-1.05984 0.70144-2.07872 1.47968-3.09248 2.26816-0.32256 0.256-0.65536 0.47104-0.99328 0.72704-0.03072 0.0256-0.06656 0.07168-0.09728 0.10752-0.9728 0.7936-1.92 1.68448-2.84672 2.56512-0.38912 0.36864-0.80384 0.71168-1.17248 1.08544-0.50176 0.512-0.9728 1.0752-1.44384 1.61792-0.76288 0.83456-1.536 1.64864-2.24256 2.51904-0.10752 0.14336-0.21504 0.31232-0.33792 0.45056-1.03936 1.32096-2.01728 2.66752-2.92864 4.0704-0.01024 0.01536-0.02048 0.03584-0.03072 0.04608-115.72736 178.05824-164.9664 290.90816-173.98784 312.5504-22.49216 43.72992-34.41664 93.68576-34.41664 144.73728 0 157.27616 111.51872 285.22496 248.58624 285.22496 137.07264 0 248.59648-127.9488 248.59648-285.2352 0-51.85536-12.24704-102.61504-35.4048-146.7648L548.82304 468.74624zM335.65184 785.72544c-81.80224 0-148.34176-76.3648-148.34176-170.20928 0-30.19264 6.97344-59.6992 20.1216-85.5552 1.37216-2.37056 2.59584-4.89984 3.66592-7.56224 0.37376-0.96768 35.01056-86.15936 123.76576-230.61504 86.31808 144.85504 125.36832 230.76864 126.35648 232.92416 0.52224 1.17248 1.1776 2.22208 1.76128 3.33824l-0.02048 0.02048c13.76256 26.22976 21.0432 56.47872 21.0432 87.44448C483.98848 709.36064 417.44384 785.72544 335.65184 785.72544zM883.31264 567.84896c29.60896 0 53.61152-24.00256 53.61152-53.61152 0-29.59872-24.00256-53.6064-53.61152-53.6064L759.3472 460.63104 759.3472 289.08032l123.97056 0c29.60896 0 53.61152-24.00256 53.61152-53.61152 0-29.60896-24.00256-53.61152-53.61152-53.61152L759.3472 181.85728l0-44.47232-93.696 0 0 753.70496 93.696 0 0-44.4672 123.96544 0c29.61408 0 53.61664-23.99232 53.61664-53.61152 0-29.58848-24.00256-53.60128-53.61664-53.60128L759.3472 739.40992l0-171.5712L883.31264 567.83872z" /></svg>