<?xml version="1.0" encoding="utf-8"?>
<!-- Generator: Adobe Illustrator 17.0.0, SVG Export Plug-In . SVG Version: 6.00 Build 0)  -->
<!DOCTYPE svg PUBLIC "-//W3C//DTD SVG 1.1//EN" "http://www.w3.org/Graphics/SVG/1.1/DTD/svg11.dtd">
<svg version="1.1" id="图层_1" xmlns="http://www.w3.org/2000/svg" xmlns:xlink="http://www.w3.org/1999/xlink" x="0px" y="0px"
	 width="35px" height="44px" viewBox="0 0 35 44" enable-background="new 0 0 35 44" xml:space="preserve">
<path id="XMLID_20_" fill="#FFFFFF" d="M35,17.5c0,9.665-16.344,26.63-17.5,26.63C15.978,44.13,0,27.165,0,17.5S7.835,0,17.5,0
	S35,7.835,35,17.5z"/>
<circle id="XMLID_26_" fill="#0EC2E0" cx="17.246" cy="17.374" r="14.552"/>
<g id="XMLID_28_">
	<polygon id="XMLID_31_" fill="#FFFFFF" points="25.94,22.898 8.553,22.898 8.553,17.836 7.458,17.836 7.458,24.163 27.035,24.163 
		27.035,17.836 25.94,17.836 	"/>
	<path id="XMLID_23_" fill="#FFFFFF" d="M22.412,15.397l-0.173-3.174l0.639-0.003c0.277-0.005,0.498-0.234,0.493-0.511
		c-0.005-0.271-0.224-0.489-0.495-0.493h-0.003l-2.309,0.011c-0.277,0.001-0.501,0.227-0.5,0.504
		c0.001,0.276,0.226,0.499,0.502,0.499h0.003l0.666-0.003l0.051,0.945l-6.289-0.652c-0.006-0.001-0.011,0.002-0.017,0.002
		l0.567-1.73c0.008-0.024,0.004-0.048,0.008-0.071c0.002-0.006,0.007-0.009,0.01-0.015c0.105-0.256-0.017-0.55-0.273-0.655
		l-1.809-0.745c-0.375-0.136-0.789-0.116-1.149,0.056c-0.361,0.169-0.639,0.476-0.773,0.852c-0.136,0.375-0.116,0.789,0.055,1.149
		c0.169,0.361,0.476,0.64,0.852,0.773c0.261,0.094,0.548-0.042,0.642-0.303c0.094-0.261-0.042-0.549-0.303-0.642
		c-0.125-0.044-0.227-0.137-0.283-0.257c-0.057-0.12-0.063-0.257-0.018-0.381c0.044-0.125,0.137-0.227,0.257-0.283
		c0.121-0.057,0.256-0.064,0.36-0.027l1.364,0.563l-1.52,4.638c-0.202-0.039-0.408-0.059-0.614-0.059
		c-1.833,0-3.325,1.491-3.325,3.325c0,1.834,1.492,3.325,3.325,3.325c1.834,0,3.325-1.491,3.325-3.325
		c0-1.269-0.715-2.374-1.764-2.934l0.766-2.335c0.063,0.041,0.134,0.071,0.214,0.079l6.448,0.669l0.069,1.278
		c-1.483,0.333-2.596,1.659-2.596,3.242c0,1.834,1.491,3.325,3.325,3.325c1.834,0,3.325-1.491,3.325-3.325
		C25.465,16.967,24.118,15.536,22.412,15.397z M14.674,18.709c0,1.28-1.041,2.321-2.321,2.321c-1.28,0-2.321-1.042-2.321-2.321
		c0-1.28,1.041-2.321,2.321-2.321c0.101,0,0.197,0.017,0.295,0.03l-0.563,1.716c-0.082,0.265,0.066,0.546,0.331,0.628
		c0.259,0.08,0.534-0.059,0.623-0.315l0.555-1.692C14.241,17.166,14.674,17.886,14.674,18.709z M22.14,21.03
		c-1.28,0-2.321-1.042-2.321-2.321c0-1.044,0.698-1.919,1.648-2.21l0.099,1.819c0.014,0.266,0.234,0.474,0.5,0.475
		c0.009,0,0.019,0,0.028-0.001c0.276-0.015,0.489-0.251,0.474-0.528l0,0l-0.1-1.843c1.124,0.161,1.994,1.121,1.994,2.288
		C24.461,19.988,23.42,21.03,22.14,21.03z"/>
</g>
</svg>
