<?xml version="1.0" encoding="utf-8"?>
<!-- Generator: Adobe Illustrator 17.0.0, SVG Export Plug-In . SVG Version: 6.00 Build 0)  -->
<!DOCTYPE svg PUBLIC "-//W3C//DTD SVG 1.1//EN" "http://www.w3.org/Graphics/SVG/1.1/DTD/svg11.dtd">
<svg version="1.1" id="图层_1" xmlns="http://www.w3.org/2000/svg" xmlns:xlink="http://www.w3.org/1999/xlink" x="0px" y="0px"
	 width="35px" height="44px" viewBox="0 0 35 44" enable-background="new 0 0 35 44" xml:space="preserve">
<path id="XMLID_37_" fill="#FFFFFF" d="M35,17.5c0,9.665-16.344,26.63-17.5,26.63C15.978,44.13,0,27.165,0,17.5S7.835,0,17.5,0
	S35,7.835,35,17.5z"/>
<circle id="XMLID_36_" fill="#1CEA91" cx="17.246" cy="17.374" r="14.552"/>
<path id="XMLID_65_" fill="#FFFFFF" d="M23.332,16.51l-0.195-3.584l0.722-0.003c0.313-0.006,0.562-0.264,0.556-0.577
	c-0.006-0.306-0.253-0.552-0.559-0.556h-0.003l-2.607,0.012c-0.313,0.002-0.565,0.257-0.564,0.57
	c0.002,0.312,0.255,0.564,0.567,0.564h0.003l0.752-0.003l0.057,1.067l-7.1-0.737c-0.007-0.001-0.012,0.002-0.019,0.002l0.64-1.953
	c0.009-0.027,0.005-0.054,0.009-0.08c0.003-0.007,0.008-0.01,0.011-0.017c0.119-0.289-0.019-0.621-0.308-0.74l-2.042-0.842
	c-0.424-0.153-0.891-0.13-1.298,0.063c-0.408,0.191-0.722,0.538-0.873,0.962c-0.153,0.423-0.131,0.891,0.062,1.297
	c0.191,0.408,0.538,0.722,0.962,0.873c0.295,0.106,0.619-0.048,0.725-0.342c0.106-0.295-0.048-0.619-0.342-0.725
	c-0.141-0.05-0.256-0.154-0.32-0.29c-0.064-0.135-0.072-0.29-0.021-0.431c0.05-0.141,0.154-0.256,0.29-0.32
	c0.136-0.064,0.289-0.072,0.406-0.03l1.54,0.635l-1.717,5.236c-0.229-0.044-0.461-0.066-0.693-0.067
	c-2.07,0-3.754,1.684-3.754,3.754s1.684,3.754,3.754,3.754c2.07,0,3.754-1.684,3.754-3.754c0-1.433-0.807-2.68-1.991-3.313
	l0.864-2.636c0.071,0.046,0.151,0.08,0.241,0.09l7.28,0.755l0.078,1.443c-1.675,0.376-2.931,1.873-2.931,3.66
	c0,2.07,1.684,3.754,3.754,3.754s3.754-1.684,3.754-3.754C26.779,18.282,25.259,16.667,23.332,16.51z M14.596,20.249
	c0,1.445-1.176,2.621-2.621,2.621c-1.445,0-2.621-1.176-2.621-2.621c0-1.445,1.176-2.621,2.621-2.621
	c0.114,0,0.222,0.019,0.333,0.034L11.672,19.6c-0.093,0.299,0.075,0.616,0.374,0.709c0.292,0.09,0.603-0.067,0.703-0.356
	l0.626-1.911C14.106,18.507,14.596,19.32,14.596,20.249z M23.025,22.87c-1.445,0-2.621-1.176-2.621-2.621
	c0-1.179,0.788-2.167,1.861-2.495l0.111,2.054c0.016,0.3,0.264,0.535,0.565,0.536c0.011,0,0.021,0,0.032-0.001
	c0.312-0.017,0.552-0.284,0.535-0.596l0,0l-0.113-2.08c1.269,0.182,2.251,1.265,2.251,2.583C25.646,21.694,24.47,22.87,23.025,22.87
	z"/>
<circle id="XMLID_29_" fill="#FFFFFF" cx="11.975" cy="20.359" r="3.183"/>
<path id="XMLID_61_" fill="#1CEA91" d="M13.313,19.102l-0.653,0.653h0.286c0.156,0,0.283,0.127,0.283,0.283
	c0,0.156-0.127,0.283-0.283,0.283h-0.687v0.362h0.687c0.156,0,0.283,0.127,0.283,0.283s-0.127,0.283-0.283,0.283h-0.687v0.786
	c0,0.156-0.127,0.283-0.283,0.283s-0.283-0.127-0.283-0.283v-0.786h-0.687c-0.156,0-0.283-0.127-0.283-0.283
	s0.127-0.283,0.283-0.283h0.687v-0.362h-0.687c-0.156,0-0.283-0.127-0.283-0.283c0-0.156,0.127-0.283,0.283-0.283h0.286
	l-0.653-0.653c-0.111-0.111-0.111-0.29,0-0.401c0.111-0.111,0.29-0.111,0.401,0l0.937,0.938l0.937-0.937
	c0.111-0.111,0.29-0.111,0.401,0C13.423,18.812,13.423,18.991,13.313,19.102z"/>
<circle id="XMLID_34_" fill="#FFFFFF" cx="23.025" cy="20.249" r="3.183"/>
<path id="XMLID_33_" fill="#1CEA91" d="M24.363,18.992l-0.653,0.653h0.286c0.156,0,0.283,0.127,0.283,0.283
	s-0.127,0.283-0.283,0.283h-0.687v0.362h0.687c0.156,0,0.283,0.127,0.283,0.283s-0.127,0.283-0.283,0.283h-0.687v0.786
	c0,0.156-0.127,0.283-0.283,0.283s-0.283-0.127-0.283-0.283v-0.786h-0.687c-0.156,0-0.283-0.127-0.283-0.283
	s0.127-0.283,0.283-0.283h0.687v-0.362h-0.687c-0.156,0-0.283-0.127-0.283-0.283s0.127-0.283,0.283-0.283h0.286l-0.653-0.653
	c-0.111-0.111-0.111-0.29,0-0.401c0.111-0.111,0.29-0.111,0.401,0l0.937,0.938l0.937-0.937c0.111-0.111,0.29-0.111,0.401,0
	C24.474,18.702,24.474,18.881,24.363,18.992z"/>
</svg>
