<?xml version="1.0" encoding="utf-8"?>
<!-- Generator: Adobe Illustrator 17.0.0, SVG Export Plug-In . SVG Version: 6.00 Build 0)  -->
<!DOCTYPE svg PUBLIC "-//W3C//DTD SVG 1.1//EN" "http://www.w3.org/Graphics/SVG/1.1/DTD/svg11.dtd">
<svg version="1.1" id="图层_1" xmlns="http://www.w3.org/2000/svg" xmlns:xlink="http://www.w3.org/1999/xlink" x="0px" y="0px"
	 width="35px" height="44px" viewBox="0 0 35 44" enable-background="new 0 0 35 44" xml:space="preserve">
<path id="XMLID_37_" fill="#FFFFFF" d="M34.823,17.411c0,9.602-16.136,26.332-17.323,26.332c-1.485,0-17.323-16.729-17.323-26.332
	S7.898,0.088,17.5,0.088S34.823,7.809,34.823,17.411z"/>
<circle id="XMLID_36_" fill="#34A0D6" cx="17.352" cy="17.215" r="14.453"/>
<path fill="#FFFFFF" d="M15.059,9.972c0,1.058,0.858,1.915,1.915,1.915s1.915-0.858,1.915-1.915s-0.858-1.915-1.915-1.915
	S15.059,8.915,15.059,9.972z M18.26,12.735h-2.492c-0.841,0-1.597,0.306-2.135,0.795v4.94h1.873l0.403,5.802H18.2l0.39-5.802h1.901
	v-4.847C19.949,13.081,19.152,12.735,18.26,12.735z M19.97,20.759v1.01c2.123,0.314,3.582,0.966,3.582,1.718
	c0,1.064-2.906,1.923-6.489,1.923s-6.49-0.86-6.49-1.923c0-0.755,1.469-1.408,3.607-1.723v-1.009
	c-3.549,0.385-6.106,1.461-6.106,2.732c-0.003,1.593,4.024,2.886,8.988,2.886s8.989-1.293,8.989-2.885
	C26.051,22.22,23.506,21.148,19.97,20.759z"/>
</svg>
