<?xml version="1.0" encoding="utf-8"?>
<!-- Generator: Adobe Illustrator 17.0.0, SVG Export Plug-In . SVG Version: 6.00 Build 0)  -->
<!DOCTYPE svg PUBLIC "-//W3C//DTD SVG 1.1//EN" "http://www.w3.org/Graphics/SVG/1.1/DTD/svg11.dtd">
<svg version="1.1" id="图层_1" xmlns="http://www.w3.org/2000/svg" xmlns:xlink="http://www.w3.org/1999/xlink" x="0px" y="0px"
	 width="46px" height="58px" viewBox="0 0 46 58" enable-background="new 0 0 46 58" xml:space="preserve">
<path id="XMLID_37_" fill="#FFFFFF" d="M46.039,22.948c0,12.72-21.375,34.882-22.948,34.882c-1.967,0-22.948-22.162-22.948-34.882
	S10.371,0,23.091,0S46.039,10.228,46.039,22.948z"/>
<circle id="XMLID_36_" fill="#34A0D6" cx="22.894" cy="22.689" r="19.146"/>
<path fill="#FFFFFF" d="M19.856,13.094c0,1.401,1.136,2.537,2.537,2.537s2.537-1.136,2.537-2.537s-1.136-2.537-2.537-2.537
	S19.856,11.693,19.856,13.094z M24.097,16.755h-3.302c-1.114,0-2.116,0.406-2.828,1.054v6.544h2.482l0.534,7.686h3.035l0.516-7.686
	h2.518v-6.421C26.335,17.212,25.279,16.755,24.097,16.755z M26.362,27.384v1.338c2.813,0.416,4.745,1.279,4.745,2.276
	c0,1.409-3.849,2.548-8.596,2.548s-8.598-1.139-8.598-2.548c0-1,1.946-1.865,4.778-2.282v-1.336
	c-4.702,0.51-8.088,1.936-8.088,3.619C10.6,33.108,15.935,34.82,22.51,34.82s11.908-1.712,11.908-3.821
	C34.418,29.319,31.047,27.898,26.362,27.384z"/>
</svg>
