<?xml version="1.0" encoding="utf-8"?>
<!-- Generator: Adobe Illustrator 17.0.0, SVG Export Plug-In . SVG Version: 6.00 Build 0)  -->
<!DOCTYPE svg PUBLIC "-//W3C//DTD SVG 1.1//EN" "http://www.w3.org/Graphics/SVG/1.1/DTD/svg11.dtd">
<svg version="1.1" id="图层_1" xmlns="http://www.w3.org/2000/svg" xmlns:xlink="http://www.w3.org/1999/xlink" x="0px" y="0px"
	 width="35px" height="44px" viewBox="0 0 35 44" enable-background="new 0 0 35 44" xml:space="preserve">
<path id="XMLID_37_" fill="#FFFFFF" d="M35.15,17.45c0,9.7-16.3,26.6-17.5,26.6c-1.5,0-17.5-16.9-17.5-26.6s7.8-17.5,17.5-17.5
	S35.15,7.75,35.15,17.45z"/>
<circle id="XMLID_36_" fill="#E83707" cx="17.5" cy="17.252" r="14.6"/>
<path fill="#FFFFFF" d="M12.129,26.822h12.533c1.079,0,1.972-0.818,1.972-1.854c0-1.035-0.893-1.853-1.972-1.853H10.339
	c-0.405,0-0.714-0.283-0.714-0.607S9.935,21.9,10.339,21.9h2.238c0.345,0.001,0.628-0.278,0.629-0.623c0,0,0,0,0-0.001
	c-0.001-0.345-0.283-0.625-0.629-0.623l0,0h-2.239c-1.079,0-1.972,0.818-1.972,1.854c0,1.035,0.893,1.853,1.972,1.853h14.323
	c0.405,0,0.715,0.283,0.715,0.607c0,0.324-0.309,0.607-0.715,0.607H12.128c-0.345-0.001-0.628,0.278-0.629,0.624
	C11.501,26.544,11.784,26.823,12.129,26.822z"/>
<path fill="#FFFFFF" d="M24.037,20.74l-1.7-0.01l0.033-5.544c0-2.689-2.18-4.869-4.869-4.869s-4.87,2.18-4.87,4.869l-0.003,5.554
	h-1.7c-0.134,0-0.244-0.089-0.244,0.046v0.974c0,0.134,0.13,0.151,0.264,0.151l13.105,0.014c0.134,0,0.264-0.031,0.264-0.166v-0.974
	C24.317,20.786,24.171,20.74,24.037,20.74z"/>
<path fill="#FFFFFF" d="M16.77,7.395c0.258-0.258,1.231-0.284,1.461,0c0.306,0.379,0.344,1.604,0,1.948
	c-0.258,0.258-1.177,0.23-1.461,0C16.391,9.037,16.426,7.74,16.77,7.395z"/>
<path fill="#FFFFFF" d="M12.973,8.805c0.095-0.353,0.924-0.862,1.265-0.73c0.454,0.175,1.1,1.216,0.974,1.686
	c-0.095,0.353-0.904,0.787-1.265,0.73C13.466,10.416,12.847,9.276,12.973,8.805z"/>
<path fill="#FFFFFF" d="M10.387,11.923c-0.131-0.341,0.378-1.17,0.73-1.265c0.471-0.126,1.566,0.502,1.688,0.974
	c0.092,0.354-0.388,1.137-0.73,1.265C11.618,13.067,10.562,12.377,10.387,11.923z"/>
<path fill="#FFFFFF" d="M22.197,11.631c0.075-0.48,1.216-1.1,1.686-0.974c0.353,0.095,0.862,0.924,0.73,1.265
	c-0.175,0.454-1.216,1.1-1.686,0.974C22.575,12.801,22.14,11.992,22.197,11.631z"/>
<path fill="#FFFFFF" d="M19.788,9.761c-0.175-0.454,0.503-1.561,0.974-1.686c0.353-0.095,1.208,0.369,1.265,0.73
	c0.075,0.48-0.503,1.561-0.974,1.686C20.7,10.585,19.919,10.101,19.788,9.761z"/>
<path fill="#E83707" d="M19.428,14.943h-1.546l0.29-2.023c0.008-0.068-0.04-0.127-0.107-0.135c-0.039-0.004-0.078,0.01-0.105,0.04
	l-2.481,2.891c-0.044,0.052-0.037,0.129,0.015,0.172c0.022,0.019,0.049,0.028,0.077,0.028h1.546l-0.29,2.023
	c-0.008,0.066,0.04,0.127,0.107,0.135c0.039,0.004,0.078-0.011,0.105-0.04l2.481-2.893c0.042-0.051,0.036-0.129-0.015-0.171
	C19.484,14.953,19.457,14.943,19.428,14.943z"/>
</svg>
