<?xml version="1.0" encoding="utf-8"?>
<!-- Generator: Adobe Illustrator 17.0.0, SVG Export Plug-In . SVG Version: 6.00 Build 0)  -->
<!DOCTYPE svg PUBLIC "-//W3C//DTD SVG 1.1//EN" "http://www.w3.org/Graphics/SVG/1.1/DTD/svg11.dtd">
<svg version="1.1" id="图层_1" xmlns="http://www.w3.org/2000/svg" xmlns:xlink="http://www.w3.org/1999/xlink" x="0px" y="0px"
	 width="46px" height="58px" viewBox="0 0 46 58" enable-background="new 0 0 46 58" xml:space="preserve">
<path id="XMLID_37_" fill="#FFFFFF" d="M45.975,23.078C45.975,35.813,24.575,58,23,58C21.031,58,0.025,35.813,0.025,23.078
	S10.265,0.103,23,0.103S45.975,10.343,45.975,23.078z"/>
<circle id="XMLID_36_" fill="#E83707" cx="22.803" cy="22.818" r="19.168"/>
<path fill="#FFFFFF" d="M15.73,34.701h16.505c1.42,0,2.597-1.077,2.597-2.442c0-1.363-1.176-2.441-2.597-2.441H13.372
	c-0.534,0-0.94-0.373-0.94-0.799c0-0.426,0.407-0.799,0.94-0.799h2.947c0.455,0.001,0.826-0.366,0.828-0.821c0,0,0,0,0-0.001
	c-0.001-0.455-0.373-0.824-0.828-0.821l0,0h-2.948c-1.42,0-2.597,1.077-2.597,2.442c0,1.363,1.176,2.441,2.597,2.441h18.863
	c0.534,0,0.941,0.373,0.941,0.799s-0.407,0.799-0.941,0.799H15.728c-0.455-0.001-0.826,0.366-0.828,0.822
	C14.903,34.335,15.275,34.702,15.73,34.701z"/>
<path fill="#FFFFFF" d="M31.411,26.692l-2.238-0.013l0.043-7.301c0-3.541-2.871-6.412-6.412-6.412s-6.413,2.871-6.413,6.412
	l-0.004,7.314h-2.238c-0.176,0-0.321-0.118-0.321,0.06v1.283c0,0.176,0.171,0.199,0.347,0.199l17.259,0.019
	c0.176,0,0.347-0.04,0.347-0.218v-1.283C31.78,26.752,31.588,26.692,31.411,26.692z"/>
<path fill="#FFFFFF" d="M21.842,9.118c0.34-0.34,1.621-0.374,1.924,0c0.403,0.499,0.453,2.112,0,2.565
	c-0.34,0.34-1.55,0.303-1.924,0C21.342,11.28,21.388,9.571,21.842,9.118z"/>
<path fill="#FFFFFF" d="M16.841,10.974c0.125-0.465,1.217-1.135,1.666-0.961c0.598,0.231,1.449,1.601,1.283,2.221
	c-0.125,0.465-1.191,1.036-1.666,0.961C17.49,13.096,16.675,11.594,16.841,10.974z"/>
<path fill="#FFFFFF" d="M13.435,15.08c-0.172-0.449,0.498-1.541,0.961-1.666c0.62-0.166,2.062,0.661,2.222,1.283
	c0.121,0.466-0.511,1.498-0.961,1.666C15.057,16.587,13.666,15.679,13.435,15.08z"/>
<path fill="#FFFFFF" d="M28.988,14.696c0.099-0.633,1.601-1.449,2.221-1.283c0.465,0.125,1.135,1.217,0.961,1.666
	c-0.231,0.598-1.601,1.449-2.221,1.283C29.486,16.237,28.913,15.171,28.988,14.696z"/>
<path fill="#FFFFFF" d="M25.816,12.232c-0.231-0.598,0.663-2.056,1.283-2.221c0.465-0.125,1.591,0.486,1.666,0.961
	c0.099,0.633-0.663,2.056-1.283,2.221C27.017,13.319,25.988,12.68,25.816,12.232z"/>
<path fill="#E83707" d="M25.342,19.058h-2.036l0.382-2.664c0.01-0.089-0.053-0.168-0.141-0.178
	c-0.052-0.006-0.103,0.013-0.138,0.053l-3.267,3.808c-0.057,0.069-0.049,0.169,0.02,0.227c0.029,0.024,0.065,0.037,0.102,0.037
	h2.036l-0.382,2.664c-0.01,0.088,0.053,0.168,0.141,0.178c0.052,0.006,0.103-0.014,0.138-0.053l3.267-3.809
	c0.056-0.067,0.047-0.169-0.02-0.225C25.416,19.07,25.38,19.058,25.342,19.058z"/>
</svg>
