<?xml version="1.0" encoding="utf-8"?>
<!-- Generator: Adobe Illustrator 17.0.0, SVG Export Plug-In . SVG Version: 6.00 Build 0)  -->
<!DOCTYPE svg PUBLIC "-//W3C//DTD SVG 1.1//EN" "http://www.w3.org/Graphics/SVG/1.1/DTD/svg11.dtd">
<svg version="1.1" id="图层_1" xmlns="http://www.w3.org/2000/svg" xmlns:xlink="http://www.w3.org/1999/xlink" x="0px" y="0px"
	 width="35px" height="44px" viewBox="0 0 35 44" enable-background="new 0 0 35 44" xml:space="preserve">
<path id="XMLID_37_" fill="#FFFFFF" d="M35.15,17.45c0,9.7-16.3,26.6-17.5,26.6c-1.5,0-17.5-16.9-17.5-26.6s7.8-17.5,17.5-17.5
	S35.15,7.75,35.15,17.45z"/>
<circle id="XMLID_36_" fill="#EA7387" cx="17.5" cy="17.252" r="14.6"/>
<path fill="#FFFFFF" d="M19.3,19.272V18.73c0.605-0.377,1.005-1.025,1.005-1.759v-1.919c0-1.162-1.002-2.107-2.235-2.107h-0.88
	c-1.232,0-2.235,0.945-2.235,2.107v1.919c0,0.734,0.4,1.381,1.006,1.759v0.421c-1.836,0.78-3.157,2.914-3.157,5.419
	c0,0.497,0.427,0.899,0.954,0.899h7.485c0.527,0,0.954-0.403,0.954-0.899C22.197,22.185,20.999,20.136,19.3,19.272z M24.346,14.612
	c-0.557-3.159-3.477-5.577-6.837-5.577c-3.422,0-6.319,2.38-6.835,5.572c-0.587,0.108-1,0.36-1,0.652v4.806
	c0,0.39,0.737,0.708,1.644,0.708c0.906,0,1.642-0.318,1.642-0.708v-0.898c0.076,0.01,0.157,0.016,0.24,0.016
	c0.446,0,0.809-0.156,0.809-0.349v-2.346c0-0.192-0.364-0.349-0.809-0.349c-0.084,0-0.164,0.006-0.24,0.016v-0.898
	c0-0.288-0.402-0.537-0.978-0.648c0.445-2.585,2.778-4.506,5.526-4.506c2.689,0,5.032,1.937,5.523,4.486
	c-0.642,0.101-1.1,0.361-1.1,0.664v0.887c-0.038-0.002-0.078-0.004-0.118-0.004c-0.46,0-0.836,0.156-0.836,0.348v2.35
	c0,0.192,0.375,0.348,0.836,0.348c0.04,0,0.079-0.001,0.118-0.004v0.887c0,0.391,0.761,0.709,1.697,0.709
	c0.935,0,1.695-0.318,1.695-0.709v-4.812C25.325,14.971,24.924,14.725,24.346,14.612z M12.975,16.488
	c0-0.066,0.104-0.121,0.227-0.121c0.124,0,0.228,0.056,0.228,0.121v2.346c0,0.066-0.104,0.121-0.228,0.121
	c-0.123,0-0.227-0.055-0.227-0.121V16.488z M21.933,18.939c-0.035,0.011-0.075,0.017-0.118,0.017c-0.128,0-0.236-0.055-0.236-0.12
	l0-2.35c0-0.065,0.108-0.121,0.236-0.121c0.043,0,0.083,0.006,0.118,0.017V18.939z M11.8,20.064c0,0.138-0.22,0.254-0.481,0.254
	c-0.261,0-0.483-0.116-0.483-0.254v-4.805c0.011,0.002,0.023,0.003,0.034,0.004c0.14,0.011,0.28-0.082,0.291-0.206l0.004-0.04
	c0.048-0.009,0.1-0.014,0.153-0.014c0.024,0,0.047,0.001,0.071,0.003c0.009,0.11,0.115,0.201,0.251,0.209
	c0.049,0,0.097-0.01,0.139-0.028c0.013,0.022,0.02,0.046,0.02,0.07L11.8,20.064L11.8,20.064z M17.51,9.656
	c-3.022,0-5.582,2.088-6.063,4.895c-0.042-0.001-0.084-0.002-0.127-0.002c-0.029,0-0.058,0-0.087,0.001
	c0.529-2.911,3.169-5.067,6.277-5.067c3.047,0,5.704,2.185,6.276,5.065c-0.052-0.002-0.104-0.003-0.156-0.003
	c-0.019,0-0.038,0-0.056,0C23.05,11.77,20.473,9.656,17.51,9.656z M24.126,20.067c0,0.138-0.227,0.254-0.497,0.254
	c-0.27,0-0.498-0.116-0.498-0.254v-4.812c0-0.033,0.014-0.066,0.038-0.095c0.05,0.045,0.121,0.073,0.199,0.073
	c0.008,0,0.016-0.001,0.024-0.001c0.144-0.011,0.251-0.112,0.247-0.23c0.08,0.001,0.155,0.012,0.222,0.03
	c0.002,0.016,0.004,0.031,0.006,0.047c0.012,0.114,0.125,0.2,0.259,0.204L24.126,20.067L24.126,20.067z"/>
</svg>
