<?xml version="1.0" encoding="utf-8"?>
<!-- Generator: Adobe Illustrator 17.0.0, SVG Export Plug-In . SVG Version: 6.00 Build 0)  -->
<!DOCTYPE svg PUBLIC "-//W3C//DTD SVG 1.1//EN" "http://www.w3.org/Graphics/SVG/1.1/DTD/svg11.dtd">
<svg version="1.1" id="图层_1" xmlns="http://www.w3.org/2000/svg" xmlns:xlink="http://www.w3.org/1999/xlink" x="0px" y="0px"
	 width="35px" height="44px" viewBox="0 0 35 44" enable-background="new 0 0 35 44" xml:space="preserve">
<path id="XMLID_63_" fill="#FFFFFF" d="M35,17.435c0,9.665-16.344,26.63-17.5,26.63C15.978,44.065,0,27.1,0,17.435
	s7.835-17.5,17.5-17.5S35,7.77,35,17.435z"/>
<circle id="XMLID_62_" fill="#EFA750" cx="17.246" cy="17.309" r="14.552"/>
<path id="XMLID_84_" fill="#FFFFFF" d="M19.8,17.402v-0.806h1.756c0.148,0,0.269-0.12,0.269-0.269c0-0.148-0.12-0.269-0.269-0.269
	h-1.569l1.759-1.478c0.105-0.105,0.105-0.275,0-0.38c-0.105-0.105-0.275-0.105-0.38,0l-1.83,1.538l-1.83-1.538
	c-0.105-0.105-0.275-0.105-0.38,0c-0.105,0.105-0.105,0.275,0,0.38l1.759,1.478h-1.569c-0.148,0-0.269,0.12-0.269,0.269
	s0.12,0.269,0.269,0.269h1.747v0.806h-1.747c-0.148,0-0.269,0.12-0.269,0.269c0,0.148,0.12,0.269,0.269,0.269h1.747v1.344
	c0,0.148,0.12,0.269,0.269,0.269c0.148,0,0.269-0.12,0.269-0.269v-1.344h1.756c0.148,0,0.269-0.12,0.269-0.269
	c0-0.148-0.12-0.269-0.269-0.269L19.8,17.402z M25.232,18.587v3.573c0,0.735-0.597,1.331-1.334,1.331H10.595
	c-0.737,0-1.334-0.598-1.334-1.331v-3.573c1.002,0,1.815-0.784,1.815-1.751c0-0.967-0.813-1.751-1.815-1.751v-3.573
	c0-0.735,0.597-1.331,1.334-1.331h13.304c0.737,0,1.334,0.598,1.334,1.331v3.573c-1.002,0-1.815,0.784-1.815,1.751
	C23.417,17.803,24.23,18.587,25.232,18.587z"/>
<g id="XMLID_35_">
	<rect id="XMLID_83_" x="13.664" y="10.181" fill="#7F7F7F" width="0.636" height="0.745"/>
	<rect id="XMLID_82_" x="13.664" y="11.438" fill="#7F7F7F" width="0.636" height="0.745"/>
	<rect id="XMLID_81_" x="13.664" y="12.694" fill="#7F7F7F" width="0.636" height="0.745"/>
	<rect id="XMLID_78_" x="13.664" y="13.951" fill="#7F7F7F" width="0.636" height="0.745"/>
	<rect id="XMLID_77_" x="13.664" y="15.207" fill="#7F7F7F" width="0.636" height="0.745"/>
	<rect id="XMLID_76_" x="13.664" y="16.464" fill="#7F7F7F" width="0.636" height="0.745"/>
	<rect id="XMLID_75_" x="13.664" y="17.72" fill="#7F7F7F" width="0.636" height="0.745"/>
	<rect id="XMLID_74_" x="13.664" y="18.977" fill="#7F7F7F" width="0.636" height="0.745"/>
	<rect id="XMLID_73_" x="13.664" y="20.233" fill="#7F7F7F" width="0.636" height="0.745"/>
	<rect id="XMLID_72_" x="13.664" y="21.49" fill="#7F7F7F" width="0.636" height="0.745"/>
	<rect id="XMLID_71_" x="13.664" y="22.746" fill="#7F7F7F" width="0.636" height="0.745"/>
</g>
</svg>
