<?xml version="1.0" standalone="no"?><!DOCTYPE svg PUBLIC "-//W3C//DTD SVG 1.1//EN" "http://www.w3.org/Graphics/SVG/1.1/DTD/svg11.dtd"><svg t="1527932734266" class="icon" style="" viewBox="0 0 1024 1024" version="1.1" xmlns="http://www.w3.org/2000/svg" p-id="2048" xmlns:xlink="http://www.w3.org/1999/xlink" width="32" height="32"><defs><style type="text/css"></style></defs><path d="M929.380709 467.62481c15.487289 0 28.019646-12.545667 28.019646-28.019646V303.422273c0-30.905979-25.146624-56.038268-56.038268-56.038268H119.148511c-30.892668 0-56.024957 25.132289-56.024957 56.038268v136.483914c0 15.186267 12.094133 27.609068 27.26709 28.005311 44.272801 1.190779 78.96818 36.707313 78.96818 80.856224 0 44.149935-34.695378 79.666469-78.96818 80.856224-15.172957 0.410578-27.26709 12.819044-27.26709 28.005312v136.483913c0 30.905979 25.132289 56.038268 56.024957 56.038268h782.213576c30.892668 0 56.038268-25.132289 56.038268-56.038268v-136.197226c0-15.473979-12.532356-28.019646-28.019646-28.019645-44.737645 0-81.129601-36.391956-81.129601-81.129602 0-44.735598 36.391956-81.141888 81.129601-81.141888z m-28.019645 215.438783l0.027644 111.050602H322.28736V751.44275c0-15.472955-12.532356-28.019646-28.019646-28.019645s-28.019646 12.545667-28.019646 28.019645v42.671445H119.148511V682.243461c61.373734-13.900267 106.24858-68.091446 106.248581-133.474715 0-65.39658-44.874846-119.587758-106.248581-133.474715V303.422273h147.100581v44.861535c0 15.473979 12.532356 28.019646 28.019646 28.019646s28.019646-12.545667 28.019646-28.019646v-44.861535h579.073703v111.037292c-62.25018 12.969555-109.149247 68.269602-109.149247 134.309181-0.001024 66.03958 46.899067 121.325292 109.148224 134.294847z" fill="#848484" p-id="2049"></path><path d="M659.582831 557.182012h0.027645c15.459645 0 28.019646-12.532356 28.019645-28.005312 0-15.473979-12.532356-28.019646-27.992-28.032956l-36.631546-0.026621 47.439679-56.51847c9.960356-11.861711 8.4276-29.523733-3.447422-39.48409-11.848401-9.960356-29.523733-8.359-39.456445 3.447422l-61.730046 73.542611-61.730046-73.542611c-9.905067-11.807446-27.553778-13.407778-39.456445-3.447422-11.875022 9.960356-13.407778 27.622378-3.447422 39.48409l47.371078 56.436559-39.408322-0.028669h-0.027645c-15.459645 0-28.019646 12.532356-28.019646 28.005312 0 15.473979 12.532356 28.019646 27.992001 28.032956l67.305102 0.048123-0.01843 18.031644-67.231382-0.048123h-0.027645c-15.459645 0-28.019646 12.532356-28.019646 28.005312 0 15.473979 12.532356 28.019646 27.992001 28.032956l67.227287 0.048123-0.052218 50.203145c-0.027645 15.473979 12.504711 28.032956 27.992001 28.046267h0.027645c15.459645 0 27.992001-12.532356 28.019645-27.992001l0.052219-50.21748 67.232405 0.048123h0.027645c15.459645 0 28.019646-12.532356 28.019646-28.005312 0-15.473979-12.532356-28.019646-27.992001-28.032956l-67.22831-0.048122 0.01843-18.031645 67.152543 0.049147zM294.268738 454.655255c-15.487289 0-28.019646 12.545667-28.019646 28.019645v134.391093c0 15.472955 12.532356 28.019646 28.019646 28.019645s28.019646-12.545667 28.019646-28.019645V482.6749c-0.001024-15.473979-12.532356-28.019646-28.019646-28.019645z" fill="#848484" p-id="2050"></path></svg>