<?xml version="1.0" standalone="no"?><!DOCTYPE svg PUBLIC "-//W3C//DTD SVG 1.1//EN" "http://www.w3.org/Graphics/SVG/1.1/DTD/svg11.dtd"><svg t="1527662286622" class="icon" style="" viewBox="0 0 1024 1024" version="1.1" xmlns="http://www.w3.org/2000/svg" p-id="3011" xmlns:xlink="http://www.w3.org/1999/xlink" width="32" height="32"><defs><style type="text/css"></style></defs><path d="M960 64l0 64c-20.224 0-31.68 14.912-52.992 49.024C886.144 210.368 857.536 256 799.808 256s-86.4-45.696-107.264-79.04C671.232 142.912 659.776 128 639.552 128 619.392 128 608 142.912 586.688 176.96 565.824 210.304 537.344 256 479.552 256 421.824 256 393.28 210.304 372.48 176.96 351.168 142.912 339.776 128 319.616 128 299.52 128 288.064 142.912 266.816 176.96 246.016 210.304 217.408 256 159.744 256 102.08 256 73.536 210.304 52.736 176.96 31.488 142.912 20.096 128 0 128L0 64c57.664 0 86.208 45.696 107.008 79.04C128.256 177.088 139.648 192 159.744 192c20.16 0 31.552-14.912 52.864-48.96C233.344 109.696 261.888 64 319.616 64s86.272 45.696 107.072 79.04C448 177.088 459.456 192 479.552 192c20.16 0 31.616-14.912 52.864-48.96C553.28 109.696 581.824 64 639.552 64c57.792 0 86.4 45.696 107.264 79.04C768.064 177.088 779.584 192 799.808 192s31.68-14.912 52.992-48.96C873.6 109.696 902.208 64 960 64zM852.736 463.04C831.424 497.088 820.032 512 799.808 512s-31.68-14.912-52.992-48.96C725.888 429.696 697.344 384 639.552 384 581.824 384 553.28 429.696 532.416 463.04 511.168 497.088 499.712 512 479.552 512 459.456 512 448 497.088 426.688 463.04 405.888 429.696 377.344 384 319.616 384S233.344 429.696 212.544 463.04C191.296 497.088 179.904 512 159.744 512 139.648 512 128.256 497.088 107.008 463.04 86.208 429.696 57.664 384 0 384l0 64c20.096 0 31.488 14.912 52.736 48.96C73.536 530.304 102.08 576 159.744 576c57.728 0 86.272-45.696 107.136-79.04C288.064 462.912 299.52 448 319.616 448 339.776 448 351.168 462.912 372.48 496.96 393.28 530.304 421.824 576 479.552 576c57.728 0 86.272-45.696 107.136-79.04C608 462.912 619.392 448 639.552 448c20.224 0 31.68 14.912 52.992 48.96C713.408 530.304 742.016 576 799.808 576s86.336-45.632 107.2-78.976C928.32 462.912 939.776 448 960 448L960 384C902.208 384 873.6 429.696 852.736 463.04zM852.736 783.04C831.424 817.088 820.032 832 799.808 832s-31.68-14.912-52.992-48.96C725.888 749.696 697.344 704 639.552 704c-57.728 0-86.272 45.696-107.072 79.04C511.168 817.088 499.712 832 479.552 832 459.456 832 448 817.088 426.688 783.04 405.888 749.696 377.344 704 319.616 704s-86.272 45.696-107.072 79.04C191.296 817.088 179.904 832 159.744 832c-20.032 0-31.488-14.912-52.672-48.96C86.208 749.696 57.664 704 0 704l0 64c20.096 0 31.488 14.912 52.736 48.96C73.536 850.304 102.08 896 159.744 896c57.728 0 86.272-45.696 107.136-79.04C288.064 782.912 299.52 768 319.616 768c20.16 0 31.552 14.912 52.864 48.96C393.28 850.304 421.824 896 479.552 896c57.728 0 86.272-45.696 107.136-79.04C608 782.912 619.392 768 639.552 768c20.224 0 31.68 14.912 52.992 48.96C713.408 850.304 742.016 896 799.808 896s86.336-45.632 107.2-78.976C928.32 782.912 939.776 768 960 768l0-64C902.208 704 873.6 749.696 852.736 783.04z" p-id="3012" fill="#848484"></path></svg>