<?xml version="1.0" standalone="no"?><!DOCTYPE svg PUBLIC "-//W3C//DTD SVG 1.1//EN" "http://www.w3.org/Graphics/SVG/1.1/DTD/svg11.dtd"><svg t="1527662194082" class="icon" style="" viewBox="0 0 1024 1024" version="1.1" xmlns="http://www.w3.org/2000/svg" p-id="2380" xmlns:xlink="http://www.w3.org/1999/xlink" width="32" height="32"><defs><style type="text/css"></style></defs><path d="M468.89984 11.59168c-4.20864 0.52224-19.74272 3.42016-33.96608 6.31808C308.28544 44.2368 203.23328 139.01824 163.7376 262.5024c-13.42464 42.12736-16.05632 59.77088-16.05632 107.95008 0 39.49568 0.78848 45.81376 7.3728 69.77536 30.80192 109.27104 121.37472 266.72128 260.92544 452.864 25.53856 34.23232 85.83168 111.90272 93.73696 120.58624 3.16416 3.6864 102.15424-124.79488 163.76832-212.736 109.78304-156.66176 179.82464-290.93888 198.25664-380.45696 12.38016-58.97216-1.05472-144.2816-31.60064-205.62944C775.89504 86.6304 649.25696 8.42752 508.39552 10.27072c-17.37728 0-35.0208 0.78848-39.49568 1.32096z m92.416 164.02432c57.3952 14.7456 105.05216 52.65408 132.70016 105.3184 52.66432 101.632 11.32544 227.74784-90.83904 277.77024-30.27968 14.7456-48.71168 19.74272-81.62304 21.58592-100.05504 5.79584-191.15008-64.512-212.21376-163.76832-5.00736-23.9616-3.6864-67.14368 2.63168-92.14976 19.48672-75.02848 80.31232-134.01088 154.29632-150.0672 25.27232-5.5296 70.56384-5.00736 95.04768 1.31072z" p-id="2381" fill="#848484"></path></svg>