<?xml version="1.0" standalone="no"?><!DOCTYPE svg PUBLIC "-//W3C//DTD SVG 1.1//EN" "http://www.w3.org/Graphics/SVG/1.1/DTD/svg11.dtd"><svg t="1527662879975" class="icon" style="" viewBox="0 0 1024 1024" version="1.1" xmlns="http://www.w3.org/2000/svg" p-id="3823" xmlns:xlink="http://www.w3.org/1999/xlink" width="32" height="32"><defs><style type="text/css"></style></defs><path d="M454.034 499.653c7.622 7.622 18.169 12.347 29.841 12.347 11.644 0 22.191-4.725 29.841-12.347l112.5-112.5c7.622-7.622 12.347-18.169 12.347-29.841 0-23.287-18.9-42.188-42.188-42.188-11.644 0-22.191 4.725-29.841 12.347l-82.659 82.688-26.409-26.409c-7.65-7.65-18.197-12.375-29.841-12.375-23.316 0-42.188 18.9-42.188 42.188 0 11.644 4.725 22.191 12.347 29.841l56.25 56.25zM919.756 118.25h-815.513c-23.287 0-42.188 18.9-42.188 42.188v562.5c0 23.287 18.9 42.188 42.188 42.188h295.256v58.697l-70.313 67.866v14.063h365.625v-14.063l-70.313-70.313v-56.25h295.256c23.287 0 42.188-18.9 42.188-42.188v-562.5c0-23.287-18.9-42.188-42.188-42.188zM905.75 652.625h-787.5v-478.125h787.5v478.125z" p-id="3824" fill="#848484"></path></svg>